SplineFontDB: 3.2
FontName: Reijima-Light
FullName: Reijima Light
FamilyName: Reijima Light
Weight: Light
Copyright: Copyright (c) 2019 by Coji Morishita. All rights reserved.
Version: 1.001
ItalicAngle: 0
UnderlinePosition: -100
UnderlineWidth: 50
Ascent: 860
Descent: 140
InvalidEm: 0
sfntRevision: 0x00010000
LayerCount: 2
Layer: 0 1 "Back" 1
Layer: 1 1 "Fore" 0
XUID: [1021 531 -1996577725 3224307]
StyleMap: 0x0040
FSType: 8
OS2Version: 4
OS2_WeightWidthSlopeOnly: 0
OS2_UseTypoMetrics: 1
CreationTime: 1575364793
ModificationTime: 1707368706
PfmFamily: 81
TTFWeight: 300
TTFWidth: 5
LineGap: 0
VLineGap: 1000
Panose: 0 0 4 0 0 0 0 0 0 0
OS2TypoAscent: 960
OS2TypoAOffset: 0
OS2TypoDescent: -230
OS2TypoDOffset: 0
OS2TypoLinegap: 200
OS2WinAscent: 1060
OS2WinAOffset: 0
OS2WinDescent: 330
OS2WinDOffset: 0
HheadAscent: 1060
HheadAOffset: 0
HheadDescent: -330
HheadDOffset: 0
OS2SubXSize: 650
OS2SubYSize: 600
OS2SubXOff: 0
OS2SubYOff: 75
OS2SupXSize: 650
OS2SupYSize: 600
OS2SupXOff: 0
OS2SupYOff: 350
OS2StrikeYSize: 50
OS2StrikeYPos: 312
OS2CapHeight: 730
OS2XHeight: 520
OS2Vendor: 'M+  '
OS2CodePages: 0000019f.00000000
OS2UnicodeRanges: a00002ff.4000004b.00000000.00000000
Lookup: 1 0 0 "'aalt' Access All Alternates in Latin lookup 0" { "'aalt' Access All Alternates in Latin lookup 0 subtable"  } ['aalt' ('DFLT' <'dflt' > 'latn' <'AZE ' 'CAT ' 'CRT ' 'KAZ ' 'MOL ' 'ROM ' 'TAT ' 'TRK ' 'dflt' > ) ]
Lookup: 3 0 0 "'aalt' Access All Alternates in Latin lookup 1" { "'aalt' Access All Alternates in Latin lookup 1 subtable"  } ['aalt' ('DFLT' <'dflt' > 'latn' <'AZE ' 'CAT ' 'CRT ' 'KAZ ' 'MOL ' 'ROM ' 'TAT ' 'TRK ' 'dflt' > ) ]
Lookup: 6 0 0 "'ccmp' Glyph Composition/Decomposition in Latin lookup 2" { "'ccmp' Glyph Composition/Decomposition in Latin lookup 2 contextual 0"  "'ccmp' Glyph Composition/Decomposition in Latin lookup 2 contextual 1"  } ['ccmp' ('DFLT' <'dflt' > 'latn' <'AZE ' 'CAT ' 'CRT ' 'KAZ ' 'MOL ' 'ROM ' 'TAT ' 'TRK ' 'dflt' > ) ]

StartChar: .notdef
Encoding: 1114112 -1 0
Width: 500
Flags: W
LayerCount: 2
Fore
SplineSet
410 -140 m 1,0,-1
 93 -140 l 1,1,-1
 93 860 l 1,2,-1
 410 860 l 1,3,-1
 410 -140 l 1,0,-1
168 793 m 1,4,-1
 168 760 l 1,5,-1
 233 760 l 1,6,-1
 233 723 l 1,7,-1
 167 723 l 1,8,-1
 167 690 l 1,9,-1
 333 690 l 1,10,-1
 333 723 l 1,11,-1
 267 723 l 1,12,-1
 267 760 l 1,13,-1
 333 760 l 1,14,-1
 333 793 l 1,15,-1
 168 793 l 1,4,-1
167 664 m 1,16,-1
 167 560 l 1,17,-1
 333 560 l 1,18,-1
 333 594 l 1,19,-1
 267 594 l 1,20,-1
 267 664 l 1,21,-1
 167 664 l 1,16,-1
233 594 m 1,22,-1
 200 594 l 1,23,-1
 200 630 l 1,24,-1
 233 630 l 1,25,-1
 233 594 l 1,22,-1
167 533 m 1,26,-1
 167 500 l 1,27,-1
 233 500 l 1,28,-1
 233 463 l 1,29,-1
 167 463 l 1,30,-1
 167 430 l 1,31,-1
 267 430 l 1,32,-1
 267 500 l 1,33,-1
 333 500 l 1,34,-1
 333 533 l 1,35,-1
 167 533 l 1,26,-1
300 473 m 1,36,-1
 300 407 l 1,37,-1
 167 407 l 1,38,-1
 167 373 l 1,39,-1
 333 373 l 1,40,-1
 333 473 l 1,41,-1
 300 473 l 1,36,-1
233 351 m 1,42,-1
 233 295 l 1,43,-1
 267 295 l 1,44,-1
 267 318 l 1,45,-1
 300 318 l 1,46,-1
 300 271 l 1,47,-1
 200 271 l 1,48,-1
 200 351 l 1,49,-1
 167 351 l 1,50,-1
 167 238 l 1,51,-1
 333 238 l 1,52,-1
 333 351 l 1,53,-1
 233 351 l 1,42,-1
167 178 m 1,54,-1
 167 65 l 1,55,-1
 333 65 l 1,56,-1
 333 178 l 1,57,-1
 167 178 l 1,54,-1
300 98 m 1,58,-1
 200 98 l 1,59,-1
 200 145 l 1,60,-1
 300 145 l 1,61,-1
 300 98 l 1,58,-1
167 42 m 1,62,-1
 167 9 l 1,63,-1
 237 9 l 1,64,-1
 167 -38 l 1,65,-1
 167 -71 l 1,66,-1
 333 -71 l 1,67,-1
 333 -38 l 1,68,-1
 231 -38 l 1,69,-1
 301 9 l 1,70,-1
 333 9 l 1,71,-1
 333 42 l 1,72,-1
 167 42 l 1,62,-1
EndSplineSet
EndChar

StartChar: A
Encoding: 65 65 2
Width: 657
GlyphClass: 2
Flags: W
AnchorPoint: "Anchor-6" 328 730 basechar 0
AnchorPoint: "Anchor-5" 640 0 basechar 0
AnchorPoint: "Anchor-4" 328 0 basechar 0
LayerCount: 2
Fore
SplineSet
585 0 m 1,0,-1
 503 219 l 1,1,-1
 153 219 l 1,2,-1
 71 0 l 1,3,-1
 17 0 l 1,4,-1
 293 730 l 1,5,-1
 363 730 l 1,6,-1
 640 0 l 1,7,-1
 585 0 l 1,0,-1
170 266 m 1,8,-1
 486 266 l 1,9,-1
 329 686 l 1,10,-1
 327 686 l 1,11,-1
 170 266 l 1,8,-1
EndSplineSet
Substitution2: "Single Substitution lookup 21 subtable" ordfeminine
Substitution2: "'aalt' Access All Alternates in Latin lookup 0 subtable" ordfeminine
EndChar

StartChar: uni1EB2
Encoding: 7858 7858 8
Width: 657
GlyphClass: 2
Flags: W
AnchorPoint: "Anchor-6" 332 1095 basechar 0
AnchorPoint: "Anchor-5" 640 0 basechar 0
AnchorPoint: "Anchor-4" 328 0 basechar 0
LayerCount: 2
Fore
SplineSet
406.5 862.5 m 128,-1,1
 438 885 438 885 448 925 c 1,2,-1
 399 925 l 1,3,4
 405 940 405 940 410 964 c 128,-1,5
 415 988 415 988 415 1005 c 0,6,7
 415 1033 415 1033 396 1043 c 128,-1,8
 377 1053 377 1053 323 1053 c 0,9,10
 266 1053 266 1053 203 1037 c 1,11,-1
 196 1078 l 1,12,13
 266 1095 266 1095 332 1095 c 0,14,15
 408 1095 408 1095 437.5 1078.5 c 128,-1,16
 467 1062 467 1062 467 1019 c 0,17,18
 467 1001 467 1001 463 977.5 c 128,-1,19
 459 954 459 954 453 934 c 1,20,-1
 502 934 l 1,21,22
 494 873 494 873 446 835.5 c 128,-1,23
 398 798 398 798 328 798 c 256,24,25
 258 798 258 798 210 835.5 c 128,-1,26
 162 873 162 873 154 934 c 1,27,-1
 206 934 l 1,28,29
 214 890 214 890 246.5 865 c 128,-1,30
 279 840 279 840 328 840 c 0,31,0
 375 840 375 840 406.5 862.5 c 128,-1,1
585 0 m 1,32,-1
 503 219 l 1,33,-1
 153 219 l 1,34,-1
 71 0 l 1,35,-1
 17 0 l 1,36,-1
 293 730 l 1,37,-1
 363 730 l 1,38,-1
 640 0 l 1,39,-1
 585 0 l 1,32,-1
170 266 m 1,40,-1
 486 266 l 1,41,-1
 329 686 l 1,42,-1
 327 686 l 1,43,-1
 170 266 l 1,40,-1
EndSplineSet
EndChar

StartChar: Aogonek
Encoding: 260 260 23
Width: 657
GlyphClass: 2
Flags: W
AnchorPoint: "Anchor-6" 328 730 basechar 0
AnchorPoint: "Anchor-5" 640 0 basechar 0
AnchorPoint: "Anchor-4" 328 0 basechar 0
LayerCount: 2
Fore
SplineSet
727 -198 m 1,0,1
 679 -219 679 -219 622 -219 c 0,2,3
 548 -219 548 -219 515.5 -192.5 c 128,-1,4
 483 -166 483 -166 483 -127 c 0,5,6
 483 -91 483 -91 508.5 -56.5 c 128,-1,7
 534 -22 534 -22 582 9 c 1,8,-1
 503 219 l 1,9,-1
 153 219 l 1,10,-1
 71 0 l 1,11,-1
 17 0 l 1,12,-1
 293 730 l 1,13,-1
 363 730 l 1,14,-1
 640 0 l 1,15,16
 587 -29 587 -29 558.5 -60.5 c 128,-1,17
 530 -92 530 -92 530 -121 c 0,18,19
 530 -151 530 -151 557 -164 c 128,-1,20
 584 -177 584 -177 625 -177 c 0,21,22
 675 -177 675 -177 716 -158 c 1,23,-1
 727 -198 l 1,0,1
170 266 m 1,24,-1
 486 266 l 1,25,-1
 329 686 l 1,26,-1
 327 686 l 1,27,-1
 170 266 l 1,24,-1
EndSplineSet
EndChar

StartChar: Aring
Encoding: 197 197 24
Width: 657
GlyphClass: 2
Flags: W
AnchorPoint: "Anchor-6" 328 907 basechar 0
AnchorPoint: "Anchor-5" 640 0 basechar 0
AnchorPoint: "Anchor-4" 328 0 basechar 0
LayerCount: 2
Fore
SplineSet
503 219 m 1,0,-1
 153 219 l 1,1,-1
 71 0 l 1,2,-1
 17 0 l 1,3,-1
 288 718 l 1,4,5
 247 731 247 731 221 766 c 128,-1,6
 195 801 195 801 195 845 c 0,7,8
 195 881 195 881 213 911.5 c 128,-1,9
 231 942 231 942 261.5 960 c 128,-1,10
 292 978 292 978 328 978 c 0,11,12
 365 978 365 978 395.5 960 c 128,-1,13
 426 942 426 942 444 911.5 c 128,-1,14
 462 881 462 881 462 845 c 0,15,16
 462 800 462 800 436 765 c 128,-1,17
 410 730 410 730 368 718 c 1,18,-1
 640 0 l 1,19,-1
 585 0 l 1,20,-1
 503 219 l 1,0,-1
262.5 779 m 128,-1,22
 290 752 290 752 328 752 c 0,23,24
 367 752 367 752 394.5 779 c 128,-1,25
 422 806 422 806 422 845 c 256,26,27
 422 884 422 884 394.5 911 c 128,-1,28
 367 938 367 938 328 938 c 0,29,30
 290 938 290 938 262.5 911 c 128,-1,31
 235 884 235 884 235 845 c 256,32,21
 235 806 235 806 262.5 779 c 128,-1,22
170 266 m 1,33,-1
 486 266 l 1,34,-1
 329 686 l 1,35,-1
 327 686 l 1,36,-1
 170 266 l 1,33,-1
EndSplineSet
EndChar

StartChar: Aringacute
Encoding: 506 506 25
Width: 657
GlyphClass: 2
Flags: W
AnchorPoint: "Anchor-6" 328 907 basechar 0
AnchorPoint: "Anchor-5" 640 0 basechar 0
AnchorPoint: "Anchor-4" 328 0 basechar 0
LayerCount: 2
Fore
SplineSet
503 219 m 1,0,-1
 153 219 l 1,1,-1
 71 0 l 1,2,-1
 17 0 l 1,3,-1
 288 718 l 1,4,5
 247 731 247 731 221 766 c 128,-1,6
 195 801 195 801 195 845 c 0,7,8
 195 878 195 878 210 906.5 c 128,-1,9
 225 935 225 935 250 953 c 1,10,-1
 360 1157 l 1,11,-1
 421 1157 l 1,12,-1
 317 978 l 1,13,-1
 328 978 l 2,14,15
 365 978 365 978 395.5 960 c 128,-1,16
 426 942 426 942 444 911.5 c 128,-1,17
 462 881 462 881 462 845 c 0,18,19
 462 800 462 800 436 765 c 128,-1,20
 410 730 410 730 368 718 c 1,21,-1
 640 0 l 1,22,-1
 585 0 l 1,23,-1
 503 219 l 1,0,-1
262.5 779 m 128,-1,25
 290 752 290 752 328 752 c 0,26,27
 367 752 367 752 394.5 779 c 128,-1,28
 422 806 422 806 422 845 c 256,29,30
 422 884 422 884 394.5 911 c 128,-1,31
 367 938 367 938 328 938 c 0,32,33
 290 938 290 938 262.5 911 c 128,-1,34
 235 884 235 884 235 845 c 256,35,24
 235 806 235 806 262.5 779 c 128,-1,25
170 266 m 1,36,-1
 486 266 l 1,37,-1
 329 686 l 1,38,-1
 327 686 l 1,39,-1
 170 266 l 1,36,-1
EndSplineSet
EndChar

StartChar: AE
Encoding: 198 198 27
Width: 822
GlyphClass: 2
Flags: W
AnchorPoint: "Anchor-6" 447 730 basechar 0
AnchorPoint: "Anchor-4" 447 0 basechar 0
LayerCount: 2
Fore
SplineSet
753 684 m 1,0,-1
 461 684 l 1,1,-1
 461 410 l 1,2,-1
 733 410 l 1,3,-1
 733 365 l 1,4,-1
 461 365 l 1,5,-1
 461 46 l 1,6,-1
 753 46 l 1,7,-1
 753 0 l 1,8,-1
 412 0 l 1,9,-1
 412 219 l 1,10,-1
 173 219 l 1,11,-1
 72 0 l 1,12,-1
 17 0 l 1,13,-1
 359 730 l 1,14,-1
 753 730 l 1,15,-1
 753 684 l 1,0,-1
195 266 m 1,16,-1
 412 266 l 1,17,-1
 412 687 l 1,18,-1
 390 687 l 1,19,-1
 195 266 l 1,16,-1
EndSplineSet
EndChar

StartChar: B
Encoding: 66 66 29
Width: 624
Flags: W
LayerCount: 2
Fore
SplineSet
542.5 327.5 m 128,-1,1
 587 281 587 281 587 202 c 0,2,3
 587 99 587 99 512.5 49.5 c 128,-1,4
 438 0 438 0 283 0 c 2,5,-1
 90 0 l 1,6,-1
 90 730 l 1,7,-1
 282 730 l 2,8,9
 417 730 417 730 483.5 686.5 c 128,-1,10
 550 643 550 643 550 554 c 0,11,12
 550 489 550 489 514 448 c 128,-1,13
 478 407 478 407 408 391 c 1,14,-1
 408 389 l 1,15,0
 498 374 498 374 542.5 327.5 c 128,-1,1
140 684 m 1,16,-1
 140 410 l 1,17,-1
 283 410 l 2,18,19
 394 410 394 410 447 443.5 c 128,-1,20
 500 477 500 477 500 548 c 0,21,22
 500 618 500 618 447.5 651 c 128,-1,23
 395 684 395 684 283 684 c 2,24,-1
 140 684 l 1,16,-1
475 84.5 m 128,-1,26
 536 123 536 123 536 205 c 0,27,28
 536 288 536 288 474.5 326.5 c 128,-1,29
 413 365 413 365 283 365 c 2,30,-1
 140 365 l 1,31,-1
 140 46 l 1,32,-1
 283 46 l 2,33,25
 414 46 414 46 475 84.5 c 128,-1,26
EndSplineSet
EndChar

StartChar: C
Encoding: 67 67 30
Width: 686
GlyphClass: 2
Flags: W
AnchorPoint: "Anchor-6" 380 730 basechar 0
AnchorPoint: "Anchor-4" 380 0 basechar 0
LayerCount: 2
Fore
SplineSet
213 36 m 128,-1,1
 132 82 132 82 88.5 166.5 c 128,-1,2
 45 251 45 251 45 365 c 256,3,4
 45 479 45 479 89 563.5 c 128,-1,5
 133 648 133 648 213.5 694 c 128,-1,6
 294 740 294 740 403 740 c 0,7,8
 534 740 534 740 632 675 c 1,9,-1
 610 634 l 1,10,11
 518 694 518 694 405 694 c 0,12,13
 311 694 311 694 241 653.5 c 128,-1,14
 171 613 171 613 133 539 c 128,-1,15
 95 465 95 465 95 365 c 256,16,17
 95 265 95 265 133 191 c 128,-1,18
 171 117 171 117 241 76.5 c 128,-1,19
 311 36 311 36 405 36 c 0,20,21
 518 36 518 36 610 96 c 1,22,-1
 632 55 l 1,23,24
 534 -10 534 -10 403 -10 c 0,25,0
 294 -10 294 -10 213 36 c 128,-1,1
EndSplineSet
EndChar

StartChar: Ccedilla
Encoding: 199 199 33
Width: 686
GlyphClass: 2
Flags: W
AnchorPoint: "Anchor-6" 380 730 basechar 0
AnchorPoint: "Anchor-4" 380 0 basechar 0
LayerCount: 2
Fore
SplineSet
632 55 m 1,0,1
 542 -4 542 -4 427 -9 c 1,2,3
 502 -67 502 -67 502 -128 c 0,4,5
 502 -167 502 -167 469.5 -193.5 c 128,-1,6
 437 -220 437 -220 363 -220 c 0,7,8
 305 -220 305 -220 257 -199 c 1,9,-1
 268 -159 l 1,10,11
 311 -178 311 -178 360 -178 c 0,12,13
 401 -178 401 -178 428 -165 c 128,-1,14
 455 -152 455 -152 455 -122 c 0,15,16
 455 -94 455 -94 429.5 -65 c 128,-1,17
 404 -36 404 -36 357 -8 c 1,18,19
 261 1 261 1 190.5 49.5 c 128,-1,20
 120 98 120 98 82.5 178.5 c 128,-1,21
 45 259 45 259 45 365 c 0,22,23
 45 479 45 479 89 563.5 c 128,-1,24
 133 648 133 648 213.5 694 c 128,-1,25
 294 740 294 740 403 740 c 0,26,27
 534 740 534 740 632 675 c 1,28,-1
 610 634 l 1,29,30
 518 694 518 694 405 694 c 0,31,32
 311 694 311 694 241 653.5 c 128,-1,33
 171 613 171 613 133 539 c 128,-1,34
 95 465 95 465 95 365 c 256,35,36
 95 265 95 265 133 191 c 128,-1,37
 171 117 171 117 241 76.5 c 128,-1,38
 311 36 311 36 405 36 c 0,39,40
 518 36 518 36 610 96 c 1,41,-1
 632 55 l 1,0,1
EndSplineSet
EndChar

StartChar: D
Encoding: 68 68 36
Width: 676
GlyphClass: 2
Flags: W
AnchorPoint: "Anchor-6" 338 730 basechar 0
AnchorPoint: "Anchor-4" 338 0 basechar 0
LayerCount: 2
Fore
SplineSet
262 730 m 2,0,1
 446 730 446 730 539 638 c 128,-1,2
 632 546 632 546 632 365 c 256,3,4
 632 184 632 184 539 92 c 128,-1,5
 446 0 446 0 262 0 c 2,6,-1
 90 0 l 1,7,-1
 90 730 l 1,8,-1
 262 730 l 2,0,1
502.5 125 m 128,-1,10
 581 204 581 204 581 365 c 256,11,12
 581 526 581 526 502.5 605 c 128,-1,13
 424 684 424 684 264 684 c 2,14,-1
 140 684 l 1,15,-1
 140 46 l 1,16,-1
 264 46 l 2,17,9
 424 46 424 46 502.5 125 c 128,-1,10
EndSplineSet
EndChar

StartChar: Eth
Encoding: 208 208 38
Width: 725
GlyphClass: 2
Flags: W
AnchorPoint: "Anchor-6" 387 730 basechar 0
AnchorPoint: "Anchor-4" 387 0 basechar 0
LayerCount: 2
Fore
SplineSet
587 638 m 128,-1,1
 680 546 680 546 680 365 c 256,2,3
 680 184 680 184 587 92 c 128,-1,4
 494 0 494 0 310 0 c 2,5,-1
 139 0 l 1,6,-1
 139 343 l 1,7,-1
 29 343 l 1,8,-1
 29 387 l 1,9,-1
 139 387 l 1,10,-1
 139 730 l 1,11,-1
 310 730 l 2,12,0
 494 730 494 730 587 638 c 128,-1,1
551.5 125 m 128,-1,14
 630 204 630 204 630 365 c 256,15,16
 630 526 630 526 551.5 605 c 128,-1,17
 473 684 473 684 313 684 c 2,18,-1
 188 684 l 1,19,-1
 188 387 l 1,20,-1
 442 387 l 1,21,-1
 442 343 l 1,22,-1
 188 343 l 1,23,-1
 188 46 l 1,24,-1
 313 46 l 2,25,13
 473 46 473 46 551.5 125 c 128,-1,14
EndSplineSet
EndChar

StartChar: E
Encoding: 69 69 42
Width: 590
GlyphClass: 2
Flags: W
AnchorPoint: "Anchor-6" 310 730 basechar 0
AnchorPoint: "Anchor-5" 522 0 basechar 0
AnchorPoint: "Anchor-4" 310 0 basechar 0
LayerCount: 2
Fore
SplineSet
90 730 m 1,0,-1
 522 730 l 1,1,-1
 522 684 l 1,2,-1
 140 684 l 1,3,-1
 140 410 l 1,4,-1
 502 410 l 1,5,-1
 502 365 l 1,6,-1
 140 365 l 1,7,-1
 140 46 l 1,8,-1
 522 46 l 1,9,-1
 522 0 l 1,10,-1
 90 0 l 1,11,-1
 90 730 l 1,0,-1
EndSplineSet
EndChar

StartChar: Eogonek
Encoding: 280 280 60
Width: 590
GlyphClass: 2
Flags: W
AnchorPoint: "Anchor-6" 310 730 basechar 0
AnchorPoint: "Anchor-5" 522 0 basechar 0
AnchorPoint: "Anchor-4" 310 0 basechar 0
LayerCount: 2
Fore
SplineSet
609 -198 m 1,0,1
 561 -219 561 -219 504 -219 c 0,2,3
 430 -219 430 -219 397.5 -192.5 c 128,-1,4
 365 -166 365 -166 365 -127 c 0,5,6
 365 -94 365 -94 387 -62 c 128,-1,7
 409 -30 409 -30 451 0 c 1,8,-1
 90 0 l 1,9,-1
 90 730 l 1,10,-1
 522 730 l 1,11,-1
 522 684 l 1,12,-1
 140 684 l 1,13,-1
 140 410 l 1,14,-1
 502 410 l 1,15,-1
 502 365 l 1,16,-1
 140 365 l 1,17,-1
 140 46 l 1,18,-1
 522 46 l 1,19,-1
 522 0 l 1,20,21
 469 -29 469 -29 440.5 -60.5 c 128,-1,22
 412 -92 412 -92 412 -121 c 0,23,24
 412 -151 412 -151 439 -164 c 128,-1,25
 466 -177 466 -177 507 -177 c 0,26,27
 557 -177 557 -177 598 -158 c 1,28,-1
 609 -198 l 1,0,1
EndSplineSet
EndChar

StartChar: F
Encoding: 70 70 62
Width: 574
Flags: W
LayerCount: 2
Fore
SplineSet
90 730 m 1,0,-1
 522 730 l 1,1,-1
 522 684 l 1,2,-1
 140 684 l 1,3,-1
 140 405 l 1,4,-1
 502 405 l 1,5,-1
 502 359 l 1,6,-1
 140 359 l 1,7,-1
 140 0 l 1,8,-1
 90 0 l 1,9,-1
 90 730 l 1,0,-1
EndSplineSet
EndChar

StartChar: G
Encoding: 71 71 63
Width: 776
GlyphClass: 2
Flags: W
AnchorPoint: "Anchor-6" 408 730 basechar 0
AnchorPoint: "Anchor-4" 408 0 basechar 0
LayerCount: 2
Fore
SplineSet
700 409 m 1,0,-1
 700 45 l 1,1,2
 647 20 647 20 574.5 5 c 128,-1,3
 502 -10 502 -10 431 -10 c 0,4,5
 311 -10 311 -10 224 35 c 128,-1,6
 137 80 137 80 91 164.5 c 128,-1,7
 45 249 45 249 45 365 c 256,8,9
 45 481 45 481 91 565.5 c 128,-1,10
 137 650 137 650 224 695 c 128,-1,11
 311 740 311 740 431 740 c 0,12,13
 573 740 573 740 673 679 c 1,14,-1
 652 639 l 1,15,16
 558 694 558 694 431 694 c 0,17,18
 272 694 272 694 183.5 607.5 c 128,-1,19
 95 521 95 521 95 365 c 256,20,21
 95 209 95 209 183.5 122.5 c 128,-1,22
 272 36 272 36 431 36 c 0,23,24
 489 36 489 36 547 47 c 128,-1,25
 605 58 605 58 650 77 c 1,26,-1
 650 364 l 1,27,-1
 359 364 l 1,28,-1
 359 409 l 1,29,-1
 700 409 l 1,0,-1
EndSplineSet
EndChar

StartChar: H
Encoding: 72 72 69
Width: 705
GlyphClass: 2
Flags: W
AnchorPoint: "Anchor-6" 353 730 basechar 0
AnchorPoint: "Anchor-4" 353 0 basechar 0
LayerCount: 2
Fore
SplineSet
565 730 m 1,0,-1
 615 730 l 1,1,-1
 615 0 l 1,2,-1
 565 0 l 1,3,-1
 565 365 l 1,4,-1
 140 365 l 1,5,-1
 140 0 l 1,6,-1
 90 0 l 1,7,-1
 90 730 l 1,8,-1
 140 730 l 1,9,-1
 140 412 l 1,10,-1
 565 412 l 1,11,-1
 565 730 l 1,0,-1
EndSplineSet
EndChar

StartChar: Hbar
Encoding: 294 294 70
Width: 772
GlyphClass: 2
Flags: W
AnchorPoint: "Anchor-6" 386 730 basechar 0
AnchorPoint: "Anchor-4" 386 0 basechar 0
LayerCount: 2
Fore
SplineSet
743 618 m 1,0,-1
 743 574 l 1,1,-1
 648 574 l 1,2,-1
 648 0 l 1,3,-1
 598 0 l 1,4,-1
 598 365 l 1,5,-1
 173 365 l 1,6,-1
 173 0 l 1,7,-1
 123 0 l 1,8,-1
 123 574 l 1,9,-1
 29 574 l 1,10,-1
 29 618 l 1,11,-1
 123 618 l 1,12,-1
 123 730 l 1,13,-1
 173 730 l 1,14,-1
 173 618 l 1,15,-1
 598 618 l 1,16,-1
 598 730 l 1,17,-1
 648 730 l 1,18,-1
 648 618 l 1,19,-1
 743 618 l 1,0,-1
598 412 m 1,20,-1
 598 574 l 1,21,-1
 173 574 l 1,22,-1
 173 412 l 1,23,-1
 598 412 l 1,20,-1
EndSplineSet
EndChar

StartChar: I
Encoding: 73 73 72
Width: 250
GlyphClass: 2
Flags: W
AnchorPoint: "Anchor-6" 125 730 basechar 0
AnchorPoint: "Anchor-5" 150 0 basechar 0
AnchorPoint: "Anchor-4" 125 0 basechar 0
LayerCount: 2
Fore
SplineSet
99 730 m 1,0,-1
 150 730 l 1,1,-1
 150 0 l 1,2,-1
 99 0 l 1,3,-1
 99 730 l 1,0,-1
EndSplineSet
EndChar

StartChar: Iogonek
Encoding: 302 302 84
Width: 250
GlyphClass: 2
Flags: W
AnchorPoint: "Anchor-6" 125 730 basechar 0
AnchorPoint: "Anchor-5" 150 0 basechar 0
AnchorPoint: "Anchor-4" 125 0 basechar 0
LayerCount: 2
Fore
SplineSet
238 -198 m 1,0,1
 190 -219 190 -219 133 -219 c 0,2,3
 59 -219 59 -219 26.5 -192.5 c 128,-1,4
 -6 -166 -6 -166 -6 -127 c 0,5,6
 -6 -91 -6 -91 21 -55 c 128,-1,7
 48 -19 48 -19 99 13 c 1,8,-1
 99 730 l 1,9,-1
 150 730 l 1,10,-1
 150 0 l 1,11,-1
 151 0 l 1,12,13
 98 -29 98 -29 69.5 -60.5 c 128,-1,14
 41 -92 41 -92 41 -121 c 0,15,16
 41 -151 41 -151 68 -164 c 128,-1,17
 95 -177 95 -177 136 -177 c 0,18,19
 186 -177 186 -177 227 -158 c 1,20,-1
 238 -198 l 1,0,1
EndSplineSet
EndChar

StartChar: J
Encoding: 74 74 86
Width: 555
GlyphClass: 2
Flags: W
AnchorPoint: "Anchor-6" 278 730 basechar 0
AnchorPoint: "Anchor-4" 278 0 basechar 0
LayerCount: 2
Fore
SplineSet
110.5 5 m 128,-1,1
 55 20 55 20 12 48 c 1,2,-1
 33 90 l 1,3,4
 72 64 72 64 122 50 c 128,-1,5
 172 36 172 36 223 36 c 0,6,7
 325 36 325 36 374.5 96 c 128,-1,8
 424 156 424 156 424 280 c 2,9,-1
 424 730 l 1,10,-1
 474 730 l 1,11,-1
 474 280 l 2,12,13
 474 133 474 133 413 61.5 c 128,-1,14
 352 -10 352 -10 226 -10 c 0,15,0
 166 -10 166 -10 110.5 5 c 128,-1,1
EndSplineSet
EndChar

StartChar: K
Encoding: 75 75 88
Width: 621
GlyphClass: 2
Flags: W
AnchorPoint: "Anchor-6" 290 730 basechar 0
AnchorPoint: "Anchor-4" 290 0 basechar 0
LayerCount: 2
Fore
SplineSet
90 730 m 1,0,-1
 140 730 l 1,1,-1
 140 410 l 1,2,-1
 142 410 l 1,3,-1
 518 730 l 1,4,-1
 585 730 l 1,5,-1
 184 388 l 1,6,-1
 595 0 l 1,7,-1
 530 0 l 1,8,-1
 142 367 l 1,9,-1
 140 367 l 1,10,-1
 140 0 l 1,11,-1
 90 0 l 1,12,-1
 90 730 l 1,0,-1
EndSplineSet
EndChar

StartChar: L
Encoding: 76 76 90
Width: 584
GlyphClass: 2
Flags: W
AnchorPoint: "Anchor-7" 564 730 basechar 0
AnchorPoint: "Anchor-6" 292 730 basechar 0
AnchorPoint: "Anchor-4" 292 0 basechar 0
LayerCount: 2
Fore
SplineSet
90 730 m 1,0,-1
 141 730 l 1,1,-1
 141 46 l 1,2,-1
 540 46 l 1,3,-1
 540 0 l 1,4,-1
 90 0 l 1,5,-1
 90 730 l 1,0,-1
EndSplineSet
EndChar

StartChar: Lslash
Encoding: 321 321 97
Width: 668
GlyphClass: 2
Flags: W
AnchorPoint: "Anchor-7" 648 730 basechar 0
AnchorPoint: "Anchor-6" 377 730 basechar 0
AnchorPoint: "Anchor-4" 377 0 basechar 0
LayerCount: 2
Fore
SplineSet
225 46 m 1,0,-1
 624 46 l 1,1,-1
 624 0 l 1,2,-1
 174 0 l 1,3,-1
 174 330 l 1,4,-1
 32 267 l 1,5,-1
 15 307 l 1,6,-1
 174 377 l 1,7,-1
 174 730 l 1,8,-1
 225 730 l 1,9,-1
 225 400 l 1,10,-1
 368 463 l 1,11,-1
 385 423 l 1,12,-1
 225 352 l 1,13,-1
 225 46 l 1,0,-1
EndSplineSet
EndChar

StartChar: M
Encoding: 77 77 98
Width: 857
Flags: W
LayerCount: 2
Fore
SplineSet
90 730 m 1,0,-1
 157 730 l 1,1,-1
 427 210 l 1,2,-1
 429 210 l 1,3,-1
 700 730 l 1,4,-1
 767 730 l 1,5,-1
 767 0 l 1,6,-1
 717 0 l 1,7,-1
 717 658 l 1,8,-1
 715 658 l 1,9,-1
 454 155 l 1,10,-1
 403 155 l 1,11,-1
 142 658 l 1,12,-1
 140 658 l 1,13,-1
 140 0 l 1,14,-1
 90 0 l 1,15,-1
 90 730 l 1,0,-1
EndSplineSet
EndChar

StartChar: N
Encoding: 78 78 99
Width: 715
GlyphClass: 2
Flags: W
AnchorPoint: "Anchor-6" 358 730 basechar 0
AnchorPoint: "Anchor-4" 358 0 basechar 0
LayerCount: 2
Fore
SplineSet
90 730 m 1,0,-1
 151 730 l 1,1,-1
 573 73 l 1,2,-1
 575 73 l 1,3,-1
 575 730 l 1,4,-1
 625 730 l 1,5,-1
 625 0 l 1,6,-1
 564 0 l 1,7,-1
 142 657 l 1,8,-1
 140 657 l 1,9,-1
 140 0 l 1,10,-1
 90 0 l 1,11,-1
 90 730 l 1,0,-1
EndSplineSet
EndChar

StartChar: Eng
Encoding: 330 330 104
Width: 715
GlyphClass: 2
Flags: W
AnchorPoint: "Anchor-6" 358 730 basechar 0
AnchorPoint: "Anchor-4" 358 0 basechar 0
LayerCount: 2
Fore
SplineSet
625 730 m 1,0,-1
 625 -49 l 2,1,2
 625 -135 625 -135 588.5 -174.5 c 128,-1,3
 552 -214 552 -214 473 -214 c 0,4,5
 424 -214 424 -214 382 -199 c 1,6,-1
 392 -156 l 1,7,8
 428 -170 428 -170 466 -170 c 0,9,10
 525 -170 525 -170 550.5 -141.5 c 128,-1,11
 576 -113 576 -113 576 -49 c 2,12,-1
 576 -19 l 1,13,-1
 142 653 l 1,14,-1
 140 653 l 1,15,-1
 140 0 l 1,16,-1
 90 0 l 1,17,-1
 90 730 l 1,18,-1
 151 730 l 1,19,-1
 573 77 l 1,20,-1
 575 77 l 1,21,-1
 575 730 l 1,22,-1
 625 730 l 1,0,-1
EndSplineSet
EndChar

StartChar: O
Encoding: 79 79 107
Width: 798
GlyphClass: 2
Flags: W
AnchorPoint: "Anchor-7" 587 690 basechar 0
AnchorPoint: "Anchor-6" 399 730 basechar 0
AnchorPoint: "Anchor-5" 452 0 basechar 0
AnchorPoint: "Anchor-4" 399 0 basechar 0
LayerCount: 2
Fore
SplineSet
213 36.5 m 128,-1,1
 133 83 133 83 89 168 c 128,-1,2
 45 253 45 253 45 365 c 256,3,4
 45 477 45 477 89 562 c 128,-1,5
 133 647 133 647 213 693.5 c 128,-1,6
 293 740 293 740 399 740 c 256,7,8
 505 740 505 740 585 693.5 c 128,-1,9
 665 647 665 647 709 562 c 128,-1,10
 753 477 753 477 753 365 c 256,11,12
 753 253 753 253 709 168 c 128,-1,13
 665 83 665 83 585 36.5 c 128,-1,14
 505 -10 505 -10 399 -10 c 256,15,0
 293 -10 293 -10 213 36.5 c 128,-1,1
558.5 76.5 m 128,-1,17
 627 117 627 117 665 192 c 128,-1,18
 703 267 703 267 703 365 c 256,19,20
 703 463 703 463 665 538 c 128,-1,21
 627 613 627 613 558.5 653.5 c 128,-1,22
 490 694 490 694 399 694 c 256,23,24
 308 694 308 694 239.5 653.5 c 128,-1,25
 171 613 171 613 133 538 c 128,-1,26
 95 463 95 463 95 365 c 256,27,28
 95 267 95 267 133 192 c 128,-1,29
 171 117 171 117 239.5 76.5 c 128,-1,30
 308 36 308 36 399 36 c 256,31,16
 490 36 490 36 558.5 76.5 c 128,-1,17
EndSplineSet
Substitution2: "Single Substitution lookup 21 subtable" ordmasculine
Substitution2: "'aalt' Access All Alternates in Latin lookup 0 subtable" ordmasculine
EndChar

StartChar: Ohorn
Encoding: 416 416 123
Width: 811
GlyphClass: 2
Flags: W
AnchorPoint: "Anchor-7" 776 843 basechar 0
AnchorPoint: "Anchor-6" 399 730 basechar 0
AnchorPoint: "Anchor-5" 452 0 basechar 0
AnchorPoint: "Anchor-4" 399 0 basechar 0
LayerCount: 2
Fore
SplineSet
732 660 m 128,-1,1
 708 630 708 630 664 628 c 1,2,3
 707 579 707 579 730 512 c 128,-1,4
 753 445 753 445 753 365 c 0,5,6
 753 253 753 253 709 168 c 128,-1,7
 665 83 665 83 585 36.5 c 128,-1,8
 505 -10 505 -10 399 -10 c 256,9,10
 293 -10 293 -10 213 36.5 c 128,-1,11
 133 83 133 83 89 168 c 128,-1,12
 45 253 45 253 45 365 c 256,13,14
 45 477 45 477 89 562 c 128,-1,15
 133 647 133 647 213 693.5 c 128,-1,16
 293 740 293 740 399 740 c 0,17,18
 519 740 519 740 608 679 c 0,19,20
 623 672 623 672 644 672 c 0,21,22
 705 672 705 672 705 746 c 0,23,24
 705 768 705 768 700 796.5 c 128,-1,25
 695 825 695 825 687 843 c 1,26,-1
 738 843 l 1,27,28
 756 792 756 792 756 742 c 0,29,0
 756 690 756 690 732 660 c 128,-1,1
558.5 76.5 m 128,-1,31
 627 117 627 117 665 192 c 128,-1,32
 703 267 703 267 703 365 c 256,33,34
 703 463 703 463 665 538 c 128,-1,35
 627 613 627 613 558.5 653.5 c 128,-1,36
 490 694 490 694 399 694 c 256,37,38
 308 694 308 694 239.5 653.5 c 128,-1,39
 171 613 171 613 133 538 c 128,-1,40
 95 463 95 463 95 365 c 256,41,42
 95 267 95 267 133 192 c 128,-1,43
 171 117 171 117 239.5 76.5 c 128,-1,44
 308 36 308 36 399 36 c 256,45,30
 490 36 490 36 558.5 76.5 c 128,-1,31
EndSplineSet
EndChar

StartChar: uni01EA
Encoding: 490 490 132
Width: 798
GlyphClass: 2
Flags: W
AnchorPoint: "Anchor-7" 587 690 basechar 0
AnchorPoint: "Anchor-6" 399 730 basechar 0
AnchorPoint: "Anchor-5" 452 0 basechar 0
AnchorPoint: "Anchor-4" 399 0 basechar 0
LayerCount: 2
Fore
SplineSet
366.5 -65 m 128,-1,1
 342 -94 342 -94 342 -121 c 0,2,3
 342 -151 342 -151 369 -164 c 128,-1,4
 396 -177 396 -177 437 -177 c 0,5,6
 487 -177 487 -177 528 -158 c 1,7,-1
 539 -198 l 1,8,9
 491 -219 491 -219 434 -219 c 0,10,11
 360 -219 360 -219 327.5 -192.5 c 128,-1,12
 295 -166 295 -166 295 -127 c 0,13,14
 295 -67 295 -67 369 -9 c 1,15,16
 271 -3 271 -3 198 45.5 c 128,-1,17
 125 94 125 94 85 176.5 c 128,-1,18
 45 259 45 259 45 365 c 0,19,20
 45 477 45 477 89 562 c 128,-1,21
 133 647 133 647 213 693.5 c 128,-1,22
 293 740 293 740 399 740 c 256,23,24
 505 740 505 740 585 693.5 c 128,-1,25
 665 647 665 647 709 562 c 128,-1,26
 753 477 753 477 753 365 c 0,27,28
 753 260 753 260 714.5 179 c 128,-1,29
 676 98 676 98 604.5 49 c 128,-1,30
 533 0 533 0 437 -8 c 1,31,0
 391 -36 391 -36 366.5 -65 c 128,-1,1
133 192 m 128,-1,33
 171 117 171 117 239.5 76.5 c 128,-1,34
 308 36 308 36 399 36 c 256,35,36
 490 36 490 36 558.5 76.5 c 128,-1,37
 627 117 627 117 665 192 c 128,-1,38
 703 267 703 267 703 365 c 256,39,40
 703 463 703 463 665 538 c 128,-1,41
 627 613 627 613 558.5 653.5 c 128,-1,42
 490 694 490 694 399 694 c 256,43,44
 308 694 308 694 239.5 653.5 c 128,-1,45
 171 613 171 613 133 538 c 128,-1,46
 95 463 95 463 95 365 c 256,47,32
 95 267 95 267 133 192 c 128,-1,33
EndSplineSet
EndChar

StartChar: Oslash
Encoding: 216 216 133
Width: 798
GlyphClass: 2
Flags: W
AnchorPoint: "Anchor-7" 587 690 basechar 0
AnchorPoint: "Anchor-6" 399 730 basechar 0
AnchorPoint: "Anchor-5" 452 0 basechar 0
AnchorPoint: "Anchor-4" 399 0 basechar 0
LayerCount: 2
Fore
SplineSet
724 529.5 m 128,-1,1
 753 456 753 456 753 365 c 0,2,3
 753 253 753 253 709 168 c 128,-1,4
 665 83 665 83 585 36.5 c 128,-1,5
 505 -10 505 -10 399 -10 c 0,6,7
 279 -10 279 -10 191 51 c 1,8,-1
 136 -23 l 1,9,-1
 102 3 l 1,10,-1
 158 77 l 1,11,12
 103 127 103 127 74 200.5 c 128,-1,13
 45 274 45 274 45 365 c 0,14,15
 45 477 45 477 89 562 c 128,-1,16
 133 647 133 647 213 693.5 c 128,-1,17
 293 740 293 740 399 740 c 0,18,19
 519 740 519 740 607 679 c 1,20,-1
 662 753 l 1,21,-1
 696 727 l 1,22,-1
 640 653 l 1,23,0
 695 603 695 603 724 529.5 c 128,-1,1
119 224 m 128,-1,25
 143 161 143 161 187 117 c 1,26,-1
 578 641 l 1,27,28
 503 694 503 694 399 694 c 0,29,30
 308 694 308 694 239.5 653.5 c 128,-1,31
 171 613 171 613 133 538 c 128,-1,32
 95 463 95 463 95 365 c 0,33,24
 95 287 95 287 119 224 c 128,-1,25
558.5 76.5 m 128,-1,35
 627 117 627 117 665 192 c 128,-1,36
 703 267 703 267 703 365 c 0,37,38
 703 443 703 443 679 506 c 128,-1,39
 655 569 655 569 611 613 c 1,40,-1
 220 89 l 1,41,42
 295 36 295 36 399 36 c 0,43,34
 490 36 490 36 558.5 76.5 c 128,-1,35
EndSplineSet
EndChar

StartChar: OE
Encoding: 338 338 137
Width: 991
GlyphClass: 2
Flags: W
AnchorPoint: "Anchor-6" 710 730 basechar 0
AnchorPoint: "Anchor-5" 922 0 basechar 0
AnchorPoint: "Anchor-4" 710 0 basechar 0
LayerCount: 2
Fore
SplineSet
540 684 m 1,0,-1
 540 410 l 1,1,-1
 902 410 l 1,2,-1
 902 365 l 1,3,-1
 540 365 l 1,4,-1
 540 46 l 1,5,-1
 922 46 l 1,6,-1
 922 0 l 1,7,-1
 490 0 l 1,8,-1
 490 1 l 1,9,10
 446 -10 446 -10 399 -10 c 0,11,12
 293 -10 293 -10 213 36.5 c 128,-1,13
 133 83 133 83 89 168 c 128,-1,14
 45 253 45 253 45 365 c 256,15,16
 45 477 45 477 89 562 c 128,-1,17
 133 647 133 647 213 693.5 c 128,-1,18
 293 740 293 740 399 740 c 0,19,20
 446 740 446 740 490 729 c 1,21,-1
 490 730 l 1,22,-1
 922 730 l 1,23,-1
 922 684 l 1,24,-1
 540 684 l 1,0,-1
490 49 m 1,26,-1
 490 681 l 1,27,28
 445 694 445 694 399 694 c 0,29,30
 308 694 308 694 239.5 653.5 c 128,-1,31
 171 613 171 613 133 538 c 128,-1,32
 95 463 95 463 95 365 c 256,33,34
 95 267 95 267 133 192 c 128,-1,35
 171 117 171 117 239.5 76.5 c 128,-1,36
 308 36 308 36 399 36 c 0,37,25
 445 36 445 36 490 49 c 1,26,-1
EndSplineSet
EndChar

StartChar: P
Encoding: 80 80 138
Width: 580
Flags: W
LayerCount: 2
Fore
SplineSet
480 677.5 m 128,-1,1
 552 625 552 625 552 512 c 0,2,3
 552 400 552 400 481.5 347.5 c 128,-1,4
 411 295 411 295 260 295 c 2,5,-1
 140 295 l 1,6,-1
 140 0 l 1,7,-1
 90 0 l 1,8,-1
 90 730 l 1,9,-1
 253 730 l 2,10,0
 408 730 408 730 480 677.5 c 128,-1,1
443 381.5 m 128,-1,12
 501 422 501 422 501 512 c 0,13,14
 501 603 501 603 443 643.5 c 128,-1,15
 385 684 385 684 255 684 c 2,16,-1
 140 684 l 1,17,-1
 140 341 l 1,18,-1
 255 341 l 2,19,11
 385 341 385 341 443 381.5 c 128,-1,12
EndSplineSet
EndChar

StartChar: Thorn
Encoding: 222 222 139
Width: 580
Flags: W
LayerCount: 2
Fore
SplineSet
480 540.5 m 128,-1,1
 552 488 552 488 552 375 c 256,2,3
 552 262 552 262 481.5 209.5 c 128,-1,4
 411 157 411 157 260 157 c 2,5,-1
 140 157 l 1,6,-1
 140 0 l 1,7,-1
 90 0 l 1,8,-1
 90 730 l 1,9,-1
 140 730 l 1,10,-1
 140 593 l 1,11,-1
 253 593 l 2,12,0
 408 593 408 593 480 540.5 c 128,-1,1
443 243.5 m 128,-1,14
 501 284 501 284 501 375 c 0,15,16
 501 465 501 465 443 505.5 c 128,-1,17
 385 546 385 546 255 546 c 2,18,-1
 140 546 l 1,19,-1
 140 203 l 1,20,-1
 255 203 l 2,21,13
 385 203 385 203 443 243.5 c 128,-1,14
EndSplineSet
EndChar

StartChar: Q
Encoding: 81 81 140
Width: 808
Flags: W
LayerCount: 2
Fore
SplineSet
767 -92 m 1,1,-1
 729 -122 l 1,2,3
 677 -67 677 -67 593 -38.5 c 128,-1,4
 509 -10 509 -10 399 -10 c 0,5,6
 293 -10 293 -10 213 36.5 c 128,-1,7
 133 83 133 83 89 168 c 128,-1,8
 45 253 45 253 45 365 c 256,9,10
 45 477 45 477 89 562 c 128,-1,11
 133 647 133 647 213 693.5 c 128,-1,12
 293 740 293 740 399 740 c 256,13,14
 505 740 505 740 585 693.5 c 128,-1,15
 665 647 665 647 709 562 c 128,-1,16
 753 477 753 477 753 365 c 0,17,18
 753 237 753 237 694.5 145.5 c 128,-1,19
 636 54 636 54 534 17 c 1,20,0
 686 -11 686 -11 767 -92 c 1,1,-1
133 192 m 128,-1,22
 171 117 171 117 239.5 76.5 c 128,-1,23
 308 36 308 36 399 36 c 256,24,25
 490 36 490 36 558.5 76.5 c 128,-1,26
 627 117 627 117 665 192 c 128,-1,27
 703 267 703 267 703 365 c 256,28,29
 703 463 703 463 665 538 c 128,-1,30
 627 613 627 613 558.5 653.5 c 128,-1,31
 490 694 490 694 399 694 c 256,32,33
 308 694 308 694 239.5 653.5 c 128,-1,34
 171 613 171 613 133 538 c 128,-1,35
 95 463 95 463 95 365 c 256,36,21
 95 267 95 267 133 192 c 128,-1,22
EndSplineSet
EndChar

StartChar: R
Encoding: 82 82 141
Width: 609
GlyphClass: 2
Flags: W
AnchorPoint: "Anchor-6" 297 730 basechar 0
AnchorPoint: "Anchor-4" 297 0 basechar 0
LayerCount: 2
Fore
SplineSet
220 334 m 1,0,-1
 140 334 l 1,1,-1
 140 0 l 1,2,-1
 90 0 l 1,3,-1
 90 730 l 1,4,-1
 270 730 l 2,5,6
 417 730 417 730 484.5 683 c 128,-1,7
 552 636 552 636 552 533 c 0,8,9
 552 431 552 431 486.5 383 c 128,-1,10
 421 335 421 335 281 334 c 1,11,-1
 573 0 l 1,12,-1
 511 0 l 1,13,-1
 220 334 l 1,0,-1
140 379 m 1,14,-1
 272 379 l 2,15,16
 394 379 394 379 447.5 415 c 128,-1,17
 501 451 501 451 501 531 c 0,18,19
 501 612 501 612 447.5 648 c 128,-1,20
 394 684 394 684 272 684 c 2,21,-1
 140 684 l 1,22,-1
 140 379 l 1,14,-1
EndSplineSet
EndChar

StartChar: S
Encoding: 83 83 147
Width: 603
GlyphClass: 2
Flags: W
AnchorPoint: "Anchor-6" 299 730 basechar 0
AnchorPoint: "Anchor-4" 299 0 basechar 0
LayerCount: 2
Fore
SplineSet
169 5 m 128,-1,1
 109 20 109 20 61 49 c 1,2,-1
 81 92 l 1,3,4
 128 65 128 65 183 50.5 c 128,-1,5
 238 36 238 36 295 36 c 0,6,7
 388 36 388 36 440 75.5 c 128,-1,8
 492 115 492 115 492 188 c 0,9,10
 492 238 492 238 466 268.5 c 128,-1,11
 440 299 440 299 402 315.5 c 128,-1,12
 364 332 364 332 295 352 c 0,13,14
 219 374 219 374 171.5 396 c 128,-1,15
 124 418 124 418 93.5 456.5 c 128,-1,16
 63 495 63 495 63 555 c 0,17,18
 63 642 63 642 125.5 691 c 128,-1,19
 188 740 188 740 300 740 c 0,20,21
 360 740 360 740 423 726 c 128,-1,22
 486 712 486 712 526 690 c 1,23,-1
 506 647 l 1,24,25
 469 668 469 668 412 681 c 128,-1,26
 355 694 355 694 301 694 c 0,27,28
 212 694 212 694 163 657.5 c 128,-1,29
 114 621 114 621 113 555 c 0,30,31
 113 508 113 508 138 479.5 c 128,-1,32
 163 451 163 451 201 434.5 c 128,-1,33
 239 418 239 418 305 400 c 0,34,35
 382 377 382 377 430.5 354.5 c 128,-1,36
 479 332 479 332 510.5 291.5 c 128,-1,37
 542 251 542 251 542 188 c 0,38,39
 543 95 543 95 477.5 42.5 c 128,-1,40
 412 -10 412 -10 295 -10 c 0,41,0
 229 -10 229 -10 169 5 c 128,-1,1
EndSplineSet
EndChar

StartChar: Scedilla
Encoding: 350 350 150
Width: 603
GlyphClass: 2
Flags: W
AnchorPoint: "Anchor-6" 299 730 basechar 0
AnchorPoint: "Anchor-4" 299 0 basechar 0
LayerCount: 2
Fore
SplineSet
492 55 m 128,-1,1
 441 4 441 4 348 -7 c 1,2,3
 427 -65 427 -65 427 -128 c 0,4,5
 427 -167 427 -167 394.5 -193.5 c 128,-1,6
 362 -220 362 -220 288 -220 c 0,7,8
 230 -220 230 -220 182 -199 c 1,9,-1
 193 -159 l 1,10,11
 236 -178 236 -178 285 -178 c 0,12,13
 326 -178 326 -178 353 -165 c 128,-1,14
 380 -152 380 -152 380 -122 c 0,15,16
 380 -95 380 -95 355.5 -66 c 128,-1,17
 331 -37 331 -37 285 -10 c 1,18,19
 154 -7 154 -7 61 49 c 1,20,-1
 81 92 l 1,21,22
 128 65 128 65 183 50.5 c 128,-1,23
 238 36 238 36 295 36 c 0,24,25
 388 36 388 36 440 75.5 c 128,-1,26
 492 115 492 115 492 188 c 0,27,28
 492 238 492 238 466 268.5 c 128,-1,29
 440 299 440 299 402 315.5 c 128,-1,30
 364 332 364 332 295 352 c 0,31,32
 219 374 219 374 171.5 396 c 128,-1,33
 124 418 124 418 93.5 456.5 c 128,-1,34
 63 495 63 495 63 555 c 0,35,36
 63 642 63 642 125.5 691 c 128,-1,37
 188 740 188 740 300 740 c 0,38,39
 360 740 360 740 423 726 c 128,-1,40
 486 712 486 712 526 690 c 1,41,-1
 506 647 l 1,42,43
 469 668 469 668 412 681 c 128,-1,44
 355 694 355 694 301 694 c 0,45,46
 212 694 212 694 163 657.5 c 128,-1,47
 114 621 114 621 113 555 c 0,48,49
 113 508 113 508 138 479.5 c 128,-1,50
 163 451 163 451 201 434.5 c 128,-1,51
 239 418 239 418 305 400 c 0,52,53
 382 377 382 377 430.5 354.5 c 128,-1,54
 479 332 479 332 510.5 291.5 c 128,-1,55
 542 251 542 251 542 188 c 0,56,0
 543 106 543 106 492 55 c 128,-1,1
EndSplineSet
Substitution2: "'locl' Localized Forms in Latin lookup 4 subtable" uni0218
Substitution2: "'aalt' Access All Alternates in Latin lookup 0 subtable" uni0218
EndChar

StartChar: uni1E9E
Encoding: 7838 7838 153
Width: 655
Flags: W
LayerCount: 2
Fore
SplineSet
253 8 m 1,1,-1
 263 53 l 1,2,3
 315 36 315 36 376 36 c 0,4,5
 474 36 474 36 526 74.5 c 128,-1,6
 578 113 578 113 578 185 c 0,7,8
 578 258 578 258 524.5 296 c 128,-1,9
 471 334 471 334 368 334 c 2,10,-1
 351 334 l 1,11,-1
 351 386 l 1,12,-1
 496 568 l 1,13,14
 494 632 494 632 452.5 663 c 128,-1,15
 411 694 411 694 328 694 c 0,16,17
 230 694 230 694 185 648.5 c 128,-1,18
 140 603 140 603 140 504 c 2,19,-1
 140 0 l 1,20,-1
 90 0 l 1,21,-1
 90 504 l 2,22,23
 90 623 90 623 148.5 681.5 c 128,-1,24
 207 740 207 740 328 740 c 0,25,26
 546 740 546 740 546 554 c 1,27,-1
 404 376 l 1,28,-1
 404 374 l 1,29,30
 512 372 512 372 570 323 c 128,-1,31
 628 274 628 274 628 185 c 0,32,33
 628 91 628 91 564 40.5 c 128,-1,34
 500 -10 500 -10 381 -10 c 0,35,0
 316 -10 316 -10 253 8 c 1,1,-1
EndSplineSet
EndChar

StartChar: uni018F
Encoding: 399 399 154
Width: 754
Flags: W
LayerCount: 2
Fore
SplineSet
614 643 m 128,-1,1
 709 546 709 546 709 365 c 0,2,3
 709 248 709 248 669.5 163.5 c 128,-1,4
 630 79 630 79 554.5 34.5 c 128,-1,5
 479 -10 479 -10 375 -10 c 256,6,7
 271 -10 271 -10 196.5 34 c 128,-1,8
 122 78 122 78 82.5 162 c 128,-1,9
 43 246 43 246 43 363 c 0,10,11
 43 378 43 378 44 383 c 1,12,-1
 660 383 l 1,13,14
 658 536 658 536 577 615 c 128,-1,15
 496 694 496 694 343 694 c 0,16,17
 277 694 277 694 211.5 679 c 128,-1,18
 146 664 146 664 90 637 c 1,19,-1
 76 680 l 1,20,21
 132 708 132 708 201.5 724 c 128,-1,22
 271 740 271 740 341 740 c 0,23,0
 519 740 519 740 614 643 c 128,-1,1
580.5 114 m 128,-1,25
 654 192 654 192 660 337 c 1,26,-1
 92 337 l 1,27,28
 98 192 98 192 171.5 114 c 128,-1,29
 245 36 245 36 376 36 c 256,30,24
 507 36 507 36 580.5 114 c 128,-1,25
EndSplineSet
EndChar

StartChar: T
Encoding: 84 84 155
Width: 622
GlyphClass: 2
Flags: W
AnchorPoint: "Anchor-8" 286 0 basechar 0
AnchorPoint: "Anchor-6" 311 730 basechar 0
AnchorPoint: "Anchor-4" 311 0 basechar 0
LayerCount: 2
Fore
SplineSet
286 684 m 1,0,-1
 28 684 l 1,1,-1
 28 730 l 1,2,-1
 594 730 l 1,3,-1
 594 684 l 1,4,-1
 336 684 l 1,5,-1
 336 0 l 1,6,-1
 286 0 l 1,7,-1
 286 684 l 1,0,-1
EndSplineSet
EndChar

StartChar: Tbar
Encoding: 358 358 156
Width: 678
GlyphClass: 2
Flags: W
AnchorPoint: "Anchor-8" 314 0 basechar 0
AnchorPoint: "Anchor-6" 339 730 basechar 0
AnchorPoint: "Anchor-4" 339 0 basechar 0
LayerCount: 2
Fore
SplineSet
622 684 m 1,0,-1
 364 684 l 1,1,-1
 364 337 l 1,2,-1
 556 337 l 1,3,-1
 556 293 l 1,4,-1
 364 293 l 1,5,-1
 364 0 l 1,6,-1
 314 0 l 1,7,-1
 314 293 l 1,8,-1
 123 293 l 1,9,-1
 123 337 l 1,10,-1
 314 337 l 1,11,-1
 314 684 l 1,12,-1
 56 684 l 1,13,-1
 56 730 l 1,14,-1
 622 730 l 1,15,-1
 622 684 l 1,0,-1
EndSplineSet
EndChar

StartChar: uni0162
Encoding: 354 354 158
Width: 622
GlyphClass: 2
Flags: W
AnchorPoint: "Anchor-8" 286 0 basechar 0
AnchorPoint: "Anchor-6" 311 730 basechar 0
AnchorPoint: "Anchor-4" 311 0 basechar 0
LayerCount: 2
Fore
SplineSet
336 684 m 1,0,-1
 336 13 l 1,1,2
 387 -19 387 -19 414.5 -54.5 c 128,-1,3
 442 -90 442 -90 442 -127 c 0,4,5
 442 -166 442 -166 409.5 -192.5 c 128,-1,6
 377 -219 377 -219 303 -219 c 0,7,8
 246 -219 246 -219 198 -198 c 1,9,-1
 209 -158 l 1,10,11
 250 -177 250 -177 300 -177 c 0,12,13
 341 -177 341 -177 368 -164 c 128,-1,14
 395 -151 395 -151 395 -121 c 0,15,16
 395 -92 395 -92 366.5 -60.5 c 128,-1,17
 338 -29 338 -29 285 0 c 1,18,-1
 286 0 l 1,19,-1
 286 684 l 1,20,-1
 28 684 l 1,21,-1
 28 730 l 1,22,-1
 594 730 l 1,23,-1
 594 684 l 1,24,-1
 336 684 l 1,0,-1
EndSplineSet
Substitution2: "'locl' Localized Forms in Latin lookup 4 subtable" uni021A
Substitution2: "'aalt' Access All Alternates in Latin lookup 0 subtable" uni021A
EndChar

StartChar: U
Encoding: 85 85 160
Width: 695
GlyphClass: 2
Flags: W
AnchorPoint: "Anchor-7" 609 690 basechar 0
AnchorPoint: "Anchor-6" 347 730 basechar 0
AnchorPoint: "Anchor-5" 462 10 basechar 0
AnchorPoint: "Anchor-4" 347 0 basechar 0
LayerCount: 2
Fore
SplineSet
148.5 61 m 128,-1,1
 81 132 81 132 81 270 c 2,2,-1
 81 730 l 1,3,-1
 130 730 l 1,4,-1
 130 274 l 2,5,6
 130 153 130 153 183.5 94.5 c 128,-1,7
 237 36 237 36 347 36 c 256,8,9
 457 36 457 36 510.5 94.5 c 128,-1,10
 564 153 564 153 564 274 c 2,11,-1
 564 730 l 1,12,-1
 614 730 l 1,13,-1
 614 270 l 2,14,15
 614 132 614 132 546.5 61 c 128,-1,16
 479 -10 479 -10 347 -10 c 0,17,0
 216 -10 216 -10 148.5 61 c 128,-1,1
EndSplineSet
EndChar

StartChar: Uhorn
Encoding: 431 431 169
Width: 755
GlyphClass: 2
Flags: W
AnchorPoint: "Anchor-7" 798 843 basechar 0
AnchorPoint: "Anchor-6" 347 730 basechar 0
AnchorPoint: "Anchor-5" 462 10 basechar 0
AnchorPoint: "Anchor-4" 347 0 basechar 0
LayerCount: 2
Fore
SplineSet
778 742 m 0,1,2
 778 688 778 688 752 658 c 128,-1,3
 726 628 726 628 679 628 c 0,4,5
 648 628 648 628 614 641 c 1,6,-1
 614 270 l 2,7,8
 614 132 614 132 546.5 61 c 128,-1,9
 479 -10 479 -10 347 -10 c 0,10,11
 216 -10 216 -10 148.5 61 c 128,-1,12
 81 132 81 132 81 270 c 2,13,-1
 81 730 l 1,14,-1
 130 730 l 1,15,-1
 130 274 l 2,16,17
 130 153 130 153 183.5 94.5 c 128,-1,18
 237 36 237 36 347 36 c 256,19,20
 457 36 457 36 510.5 94.5 c 128,-1,21
 564 153 564 153 564 274 c 2,22,-1
 564 730 l 1,23,-1
 614 730 l 1,24,-1
 614 687 l 1,25,26
 637 672 637 672 666 672 c 0,27,28
 727 672 727 672 727 746 c 0,29,30
 727 768 727 768 722 796.5 c 128,-1,31
 717 825 717 825 709 843 c 1,32,-1
 760 843 l 1,33,0
 778 792 778 792 778 742 c 0,1,2
EndSplineSet
EndChar

StartChar: Uogonek
Encoding: 370 370 178
Width: 695
GlyphClass: 2
Flags: W
AnchorPoint: "Anchor-7" 609 690 basechar 0
AnchorPoint: "Anchor-6" 347 730 basechar 0
AnchorPoint: "Anchor-5" 462 10 basechar 0
AnchorPoint: "Anchor-4" 347 0 basechar 0
LayerCount: 2
Fore
SplineSet
377.5 -53.5 m 128,-1,1
 352 -83 352 -83 352 -111 c 0,2,3
 352 -141 352 -141 379 -154 c 128,-1,4
 406 -167 406 -167 447 -167 c 0,5,6
 497 -167 497 -167 538 -148 c 1,7,-1
 549 -188 l 1,8,9
 501 -209 501 -209 444 -209 c 0,10,11
 370 -209 370 -209 337.5 -182.5 c 128,-1,12
 305 -156 305 -156 305 -117 c 0,13,14
 305 -62 305 -62 366 -10 c 1,15,-1
 347 -10 l 2,16,17
 216 -10 216 -10 148.5 61 c 128,-1,18
 81 132 81 132 81 270 c 2,19,-1
 81 730 l 1,20,-1
 130 730 l 1,21,-1
 130 274 l 2,22,23
 130 153 130 153 183.5 94.5 c 128,-1,24
 237 36 237 36 347 36 c 256,25,26
 457 36 457 36 510.5 94.5 c 128,-1,27
 564 153 564 153 564 274 c 2,28,-1
 564 730 l 1,29,-1
 614 730 l 1,30,-1
 614 270 l 2,31,32
 614 163 614 163 573 96 c 128,-1,33
 532 29 532 29 452 4 c 1,34,0
 403 -24 403 -24 377.5 -53.5 c 128,-1,1
EndSplineSet
EndChar

StartChar: V
Encoding: 86 86 181
Width: 657
Flags: W
LayerCount: 2
Fore
SplineSet
17 730 m 1,0,-1
 71 730 l 1,1,-1
 327 50 l 1,2,-1
 329 50 l 1,3,-1
 585 730 l 1,4,-1
 640 730 l 1,5,-1
 362 0 l 1,6,-1
 294 0 l 1,7,-1
 17 730 l 1,0,-1
EndSplineSet
EndChar

StartChar: W
Encoding: 87 87 182
Width: 904
GlyphClass: 2
Flags: W
AnchorPoint: "Anchor-6" 452 730 basechar 0
AnchorPoint: "Anchor-4" 452 0 basechar 0
LayerCount: 2
Fore
SplineSet
453 679 m 1,0,-1
 451 679 l 1,1,-1
 279 0 l 1,2,-1
 213 0 l 1,3,-1
 29 730 l 1,4,-1
 80 730 l 1,5,-1
 245 51 l 1,6,-1
 247 51 l 1,7,-1
 419 730 l 1,8,-1
 487 730 l 1,9,-1
 658 51 l 1,10,-1
 660 51 l 1,11,-1
 825 730 l 1,12,-1
 875 730 l 1,13,-1
 691 0 l 1,14,-1
 625 0 l 1,15,-1
 453 679 l 1,0,-1
EndSplineSet
EndChar

StartChar: X
Encoding: 88 88 187
Width: 688
Flags: W
LayerCount: 2
Fore
SplineSet
309 368 m 1,0,-1
 62 730 l 1,1,-1
 120 730 l 1,2,-1
 343 402 l 1,3,-1
 345 402 l 1,4,-1
 568 730 l 1,5,-1
 626 730 l 1,6,-1
 379 368 l 1,7,-1
 631 0 l 1,8,-1
 573 0 l 1,9,-1
 345 336 l 1,10,-1
 343 336 l 1,11,-1
 115 0 l 1,12,-1
 57 0 l 1,13,-1
 309 368 l 1,0,-1
EndSplineSet
EndChar

StartChar: Y
Encoding: 89 89 188
Width: 633
GlyphClass: 2
Flags: W
AnchorPoint: "Anchor-6" 316 730 basechar 0
AnchorPoint: "Anchor-4" 316 0 basechar 0
LayerCount: 2
Fore
SplineSet
291 309 m 1,0,-1
 10 730 l 1,1,-1
 67 730 l 1,2,-1
 315 357 l 1,3,-1
 317 357 l 1,4,-1
 565 730 l 1,5,-1
 623 730 l 1,6,-1
 342 309 l 1,7,-1
 342 0 l 1,8,-1
 291 0 l 1,9,-1
 291 309 l 1,0,-1
EndSplineSet
EndChar

StartChar: Z
Encoding: 90 90 197
Width: 634
GlyphClass: 2
Flags: W
AnchorPoint: "Anchor-6" 317 730 basechar 0
AnchorPoint: "Anchor-4" 317 0 basechar 0
LayerCount: 2
Fore
SplineSet
72 46 m 1,0,-1
 500 682 l 1,1,-1
 500 684 l 1,2,-1
 72 684 l 1,3,-1
 72 730 l 1,4,-1
 562 730 l 1,5,-1
 562 684 l 1,6,-1
 134 48 l 1,7,-1
 134 46 l 1,8,-1
 562 46 l 1,9,-1
 562 0 l 1,10,-1
 72 0 l 1,11,-1
 72 46 l 1,0,-1
EndSplineSet
EndChar

StartChar: a
Encoding: 97 97 201
Width: 523
GlyphClass: 2
Flags: W
AnchorPoint: "Anchor-6" 262 520 basechar 0
AnchorPoint: "Anchor-5" 450 0 basechar 0
AnchorPoint: "Anchor-4" 262 0 basechar 0
LayerCount: 2
Fore
SplineSet
407 484 m 128,-1,1
 450 438 450 438 450 328 c 2,2,-1
 450 0 l 1,3,-1
 402 0 l 1,4,-1
 402 85 l 1,5,-1
 400 85 l 1,6,7
 373 42 373 42 319 16 c 128,-1,8
 265 -10 265 -10 203 -10 c 0,9,10
 125 -10 125 -10 78.5 31.5 c 128,-1,11
 32 73 32 73 32 142 c 0,12,13
 32 232 32 232 113.5 280.5 c 128,-1,14
 195 329 195 329 345 329 c 2,15,-1
 401 329 l 1,16,-1
 401 330 l 2,17,18
 401 389 401 389 387.5 423 c 128,-1,19
 374 457 374 457 343.5 472 c 128,-1,20
 313 487 313 487 260 487 c 0,21,22
 157 487 157 487 67 441 c 1,23,-1
 52 480 l 1,24,25
 147 530 147 530 262 530 c 0,26,0
 364 530 364 530 407 484 c 128,-1,1
307.5 55.5 m 128,-1,28
 351 79 351 79 376 119 c 128,-1,29
 401 159 401 159 401 208 c 2,30,-1
 401 288 l 1,31,-1
 345 288 l 2,32,33
 218 288 218 288 149.5 251 c 128,-1,34
 81 214 81 214 81 145 c 0,35,36
 81 94 81 94 117 63 c 128,-1,37
 153 32 153 32 212 32 c 0,38,27
 264 32 264 32 307.5 55.5 c 128,-1,28
EndSplineSet
Substitution2: "Single Substitution lookup 21 subtable" ordfeminine
Substitution2: "'aalt' Access All Alternates in Latin lookup 0 subtable" ordfeminine
EndChar

StartChar: uni1EB3
Encoding: 7859 7859 207
Width: 523
GlyphClass: 2
Flags: W
AnchorPoint: "Anchor-6" 265 885 basechar 0
AnchorPoint: "Anchor-5" 450 0 basechar 0
AnchorPoint: "Anchor-4" 262 0 basechar 0
LayerCount: 2
Fore
SplineSet
340.5 652.5 m 128,-1,1
 372 675 372 675 382 715 c 1,2,-1
 332 715 l 1,3,4
 338 730 338 730 343 754 c 128,-1,5
 348 778 348 778 348 795 c 0,6,7
 348 823 348 823 329 833 c 128,-1,8
 310 843 310 843 256 843 c 0,9,10
 199 843 199 843 136 827 c 1,11,-1
 129 868 l 1,12,13
 199 885 199 885 265 885 c 0,14,15
 341 885 341 885 370.5 868.5 c 128,-1,16
 400 852 400 852 400 809 c 0,17,18
 400 791 400 791 396 767.5 c 128,-1,19
 392 744 392 744 386 724 c 1,20,-1
 436 724 l 1,21,22
 428 663 428 663 380 625.5 c 128,-1,23
 332 588 332 588 262 588 c 256,24,25
 192 588 192 588 144 625.5 c 128,-1,26
 96 663 96 663 88 724 c 1,27,-1
 140 724 l 1,28,29
 148 680 148 680 180.5 655 c 128,-1,30
 213 630 213 630 262 630 c 0,31,0
 309 630 309 630 340.5 652.5 c 128,-1,1
407 484 m 128,-1,33
 450 438 450 438 450 328 c 2,34,-1
 450 0 l 1,35,-1
 402 0 l 1,36,-1
 402 85 l 1,37,-1
 400 85 l 1,38,39
 373 42 373 42 319 16 c 128,-1,40
 265 -10 265 -10 203 -10 c 0,41,42
 125 -10 125 -10 78.5 31.5 c 128,-1,43
 32 73 32 73 32 142 c 0,44,45
 32 232 32 232 113.5 280.5 c 128,-1,46
 195 329 195 329 345 329 c 2,47,-1
 401 329 l 1,48,-1
 401 330 l 2,49,50
 401 389 401 389 387.5 423 c 128,-1,51
 374 457 374 457 343.5 472 c 128,-1,52
 313 487 313 487 260 487 c 0,53,54
 157 487 157 487 67 441 c 1,55,-1
 52 480 l 1,56,57
 147 530 147 530 262 530 c 0,58,32
 364 530 364 530 407 484 c 128,-1,33
307.5 55.5 m 128,-1,60
 351 79 351 79 376 119 c 128,-1,61
 401 159 401 159 401 208 c 2,62,-1
 401 288 l 1,63,-1
 345 288 l 2,64,65
 218 288 218 288 149.5 251 c 128,-1,66
 81 214 81 214 81 145 c 0,67,68
 81 94 81 94 117 63 c 128,-1,69
 153 32 153 32 212 32 c 0,70,59
 264 32 264 32 307.5 55.5 c 128,-1,60
EndSplineSet
EndChar

StartChar: aogonek
Encoding: 261 261 222
Width: 523
GlyphClass: 2
Flags: W
AnchorPoint: "Anchor-6" 262 520 basechar 0
AnchorPoint: "Anchor-5" 450 0 basechar 0
AnchorPoint: "Anchor-4" 262 0 basechar 0
LayerCount: 2
Fore
SplineSet
537 -198 m 1,0,1
 489 -219 489 -219 432 -219 c 0,2,3
 358 -219 358 -219 325.5 -192.5 c 128,-1,4
 293 -166 293 -166 293 -127 c 0,5,6
 293 -90 293 -90 321.5 -53.5 c 128,-1,7
 350 -17 350 -17 402 15 c 1,8,-1
 402 85 l 1,9,-1
 400 85 l 1,10,11
 373 42 373 42 319 16 c 128,-1,12
 265 -10 265 -10 203 -10 c 0,13,14
 125 -10 125 -10 78.5 31.5 c 128,-1,15
 32 73 32 73 32 142 c 0,16,17
 32 232 32 232 113.5 280.5 c 128,-1,18
 195 329 195 329 345 329 c 2,19,-1
 401 329 l 1,20,-1
 401 330 l 2,21,22
 401 389 401 389 387.5 423 c 128,-1,23
 374 457 374 457 343.5 472 c 128,-1,24
 313 487 313 487 260 487 c 0,25,26
 157 487 157 487 67 441 c 1,27,-1
 52 480 l 1,28,29
 147 530 147 530 262 530 c 0,30,31
 364 530 364 530 407 484 c 128,-1,32
 450 438 450 438 450 328 c 2,33,-1
 450 0 l 1,34,35
 397 -29 397 -29 368.5 -60.5 c 128,-1,36
 340 -92 340 -92 340 -121 c 0,37,38
 340 -151 340 -151 367 -164 c 128,-1,39
 394 -177 394 -177 435 -177 c 0,40,41
 485 -177 485 -177 526 -158 c 1,42,-1
 537 -198 l 1,0,1
307.5 55.5 m 128,-1,44
 351 79 351 79 376 119 c 128,-1,45
 401 159 401 159 401 208 c 2,46,-1
 401 288 l 1,47,-1
 345 288 l 2,48,49
 218 288 218 288 149.5 251 c 128,-1,50
 81 214 81 214 81 145 c 0,51,52
 81 94 81 94 117 63 c 128,-1,53
 153 32 153 32 212 32 c 0,54,43
 264 32 264 32 307.5 55.5 c 128,-1,44
EndSplineSet
EndChar

StartChar: aring
Encoding: 229 229 223
Width: 523
GlyphClass: 2
Flags: W
AnchorPoint: "Anchor-6" 262 717 basechar 0
AnchorPoint: "Anchor-5" 450 0 basechar 0
AnchorPoint: "Anchor-4" 262 0 basechar 0
LayerCount: 2
Fore
SplineSet
415.5 473 m 128,-1,1
 450 426 450 426 450 328 c 2,2,-1
 450 0 l 1,3,-1
 402 0 l 1,4,-1
 402 85 l 1,5,-1
 400 85 l 1,6,7
 373 42 373 42 319 16 c 128,-1,8
 265 -10 265 -10 203 -10 c 0,9,10
 125 -10 125 -10 78.5 31.5 c 128,-1,11
 32 73 32 73 32 142 c 0,12,13
 32 232 32 232 113.5 280.5 c 128,-1,14
 195 329 195 329 345 329 c 2,15,-1
 401 329 l 1,16,-1
 401 330 l 2,17,18
 401 389 401 389 387.5 423 c 128,-1,19
 374 457 374 457 343.5 472 c 128,-1,20
 313 487 313 487 260 487 c 0,21,22
 157 487 157 487 67 441 c 1,23,-1
 52 480 l 1,24,25
 130 520 130 520 221 528 c 1,26,27
 181 541 181 541 155 576 c 128,-1,28
 129 611 129 611 129 655 c 0,29,30
 129 691 129 691 147 721.5 c 128,-1,31
 165 752 165 752 195.5 770 c 128,-1,32
 226 788 226 788 262 788 c 0,33,34
 299 788 299 788 329.5 770 c 128,-1,35
 360 752 360 752 378 721.5 c 128,-1,36
 396 691 396 691 396 655 c 0,37,38
 396 611 396 611 370 576 c 128,-1,39
 344 541 344 541 303 528 c 1,40,0
 381 520 381 520 415.5 473 c 128,-1,1
196.5 589 m 128,-1,42
 224 562 224 562 262 562 c 0,43,44
 301 562 301 562 328.5 589 c 128,-1,45
 356 616 356 616 356 655 c 256,46,47
 356 694 356 694 328.5 721 c 128,-1,48
 301 748 301 748 262 748 c 0,49,50
 224 748 224 748 196.5 721 c 128,-1,51
 169 694 169 694 169 655 c 256,52,41
 169 616 169 616 196.5 589 c 128,-1,42
307.5 55.5 m 128,-1,54
 351 79 351 79 376 119 c 128,-1,55
 401 159 401 159 401 208 c 2,56,-1
 401 288 l 1,57,-1
 345 288 l 2,58,59
 218 288 218 288 149.5 251 c 128,-1,60
 81 214 81 214 81 145 c 0,61,62
 81 94 81 94 117 63 c 128,-1,63
 153 32 153 32 212 32 c 0,64,53
 264 32 264 32 307.5 55.5 c 128,-1,54
EndSplineSet
EndChar

StartChar: aringacute
Encoding: 507 507 224
Width: 523
GlyphClass: 2
Flags: W
AnchorPoint: "Anchor-6" 262 717 basechar 0
AnchorPoint: "Anchor-5" 450 0 basechar 0
AnchorPoint: "Anchor-4" 262 0 basechar 0
LayerCount: 2
Fore
SplineSet
415.5 473 m 128,-1,1
 450 426 450 426 450 328 c 2,2,-1
 450 0 l 1,3,-1
 402 0 l 1,4,-1
 402 85 l 1,5,-1
 400 85 l 1,6,7
 373 42 373 42 319 16 c 128,-1,8
 265 -10 265 -10 203 -10 c 0,9,10
 125 -10 125 -10 78.5 31.5 c 128,-1,11
 32 73 32 73 32 142 c 0,12,13
 32 232 32 232 113.5 280.5 c 128,-1,14
 195 329 195 329 345 329 c 2,15,-1
 401 329 l 1,16,-1
 401 330 l 2,17,18
 401 389 401 389 387.5 423 c 128,-1,19
 374 457 374 457 343.5 472 c 128,-1,20
 313 487 313 487 260 487 c 0,21,22
 157 487 157 487 67 441 c 1,23,-1
 52 480 l 1,24,25
 130 520 130 520 221 528 c 1,26,27
 181 541 181 541 155 576 c 128,-1,28
 129 611 129 611 129 655 c 0,29,30
 129 687 129 687 143.5 715 c 128,-1,31
 158 743 158 743 183 762 c 1,32,-1
 293 967 l 1,33,-1
 354 967 l 1,34,-1
 250 787 l 1,35,36
 254 788 254 788 262 788 c 0,37,38
 299 788 299 788 329.5 770 c 128,-1,39
 360 752 360 752 378 721.5 c 128,-1,40
 396 691 396 691 396 655 c 0,41,42
 396 611 396 611 370 576 c 128,-1,43
 344 541 344 541 303 528 c 1,44,0
 381 520 381 520 415.5 473 c 128,-1,1
196.5 589 m 128,-1,46
 224 562 224 562 262 562 c 0,47,48
 301 562 301 562 328.5 589 c 128,-1,49
 356 616 356 616 356 655 c 256,50,51
 356 694 356 694 328.5 721 c 128,-1,52
 301 748 301 748 262 748 c 0,53,54
 224 748 224 748 196.5 721 c 128,-1,55
 169 694 169 694 169 655 c 256,56,45
 169 616 169 616 196.5 589 c 128,-1,46
307.5 55.5 m 128,-1,58
 351 79 351 79 376 119 c 128,-1,59
 401 159 401 159 401 208 c 2,60,-1
 401 288 l 1,61,-1
 345 288 l 2,62,63
 218 288 218 288 149.5 251 c 128,-1,64
 81 214 81 214 81 145 c 0,65,66
 81 94 81 94 117 63 c 128,-1,67
 153 32 153 32 212 32 c 0,68,57
 264 32 264 32 307.5 55.5 c 128,-1,58
EndSplineSet
EndChar

StartChar: ae
Encoding: 230 230 226
Width: 894
GlyphClass: 2
Flags: W
AnchorPoint: "Anchor-6" 448 520 basechar 0
AnchorPoint: "Anchor-4" 448 0 basechar 0
LayerCount: 2
Fore
SplineSet
855 244 m 1,0,-1
 449 244 l 1,1,2
 451 141 451 141 503 87 c 128,-1,3
 555 33 555 33 650 33 c 0,4,5
 693 33 693 33 737 43.5 c 128,-1,6
 781 54 781 54 816 73 c 1,7,-1
 831 35 l 1,8,9
 792 13 792 13 744.5 1.5 c 128,-1,10
 697 -10 697 -10 648 -10 c 0,11,12
 567 -10 567 -10 511.5 22.5 c 128,-1,13
 456 55 456 55 428 118 c 1,14,15
 400 58 400 58 343.5 24 c 128,-1,16
 287 -10 287 -10 211 -10 c 0,17,18
 129 -10 129 -10 80.5 31 c 128,-1,19
 32 72 32 72 32 142 c 0,20,21
 32 232 32 232 113.5 280.5 c 128,-1,22
 195 329 195 329 345 329 c 2,23,-1
 401 329 l 1,24,-1
 401 330 l 2,25,26
 401 389 401 389 387.5 423 c 128,-1,27
 374 457 374 457 343.5 472 c 128,-1,28
 313 487 313 487 260 487 c 0,29,30
 159 487 159 487 67 441 c 1,31,-1
 52 480 l 1,32,33
 149 530 149 530 262 530 c 0,34,35
 337 530 337 530 379 505.5 c 128,-1,36
 421 481 421 481 437 426 c 1,37,38
 466 477 466 477 515 503.5 c 128,-1,39
 564 530 564 530 630 530 c 0,40,41
 738 530 738 530 797 460 c 128,-1,42
 856 390 856 390 856 260 c 1,43,-1
 855 244 l 1,0,-1
500 436.5 m 128,-1,45
 454 385 454 385 449 285 c 1,46,-1
 809 285 l 1,47,48
 805 385 805 385 759 436.5 c 128,-1,49
 713 488 713 488 630 488 c 0,50,44
 546 488 546 488 500 436.5 c 128,-1,45
401 288 m 1,51,-1
 345 288 l 2,52,53
 218 288 218 288 149.5 251 c 128,-1,54
 81 214 81 214 81 145 c 0,55,56
 81 94 81 94 117 63 c 128,-1,57
 153 32 153 32 212 32 c 0,58,59
 264 32 264 32 307.5 55.5 c 128,-1,60
 351 79 351 79 376 119 c 128,-1,61
 401 159 401 159 401 208 c 2,62,-1
 401 288 l 1,51,-1
EndSplineSet
EndChar

StartChar: b
Encoding: 98 98 228
Width: 567
Flags: W
LayerCount: 2
Fore
SplineSet
467 458.5 m 128,-1,1
 522 387 522 387 522 260 c 256,2,3
 522 133 522 133 467 61.5 c 128,-1,4
 412 -10 412 -10 314 -10 c 0,5,6
 254 -10 254 -10 205 16.5 c 128,-1,7
 156 43 156 43 130 89 c 1,8,-1
 128 89 l 1,9,-1
 128 0 l 1,10,-1
 81 0 l 1,11,-1
 81 750 l 1,12,-1
 130 750 l 1,13,-1
 130 431 l 1,14,-1
 132 431 l 1,15,16
 157 477 157 477 205.5 503.5 c 128,-1,17
 254 530 254 530 314 530 c 0,18,0
 412 530 412 530 467 458.5 c 128,-1,1
427.5 93.5 m 128,-1,20
 472 154 472 154 472 260 c 256,21,22
 472 366 472 366 427.5 426.5 c 128,-1,23
 383 487 383 487 304 487 c 0,24,25
 253 487 253 487 213.5 461.5 c 128,-1,26
 174 436 174 436 152 390 c 128,-1,27
 130 344 130 344 130 284 c 2,28,-1
 130 236 l 2,29,30
 130 176 130 176 152 130 c 128,-1,31
 174 84 174 84 213.5 58.5 c 128,-1,32
 253 33 253 33 304 33 c 0,33,19
 383 33 383 33 427.5 93.5 c 128,-1,20
EndSplineSet
EndChar

StartChar: c
Encoding: 99 99 229
Width: 517
GlyphClass: 2
Flags: W
AnchorPoint: "Anchor-6" 270 520 basechar 0
AnchorPoint: "Anchor-4" 270 0 basechar 0
LayerCount: 2
Fore
SplineSet
109.5 62 m 128,-1,1
 41 134 41 134 41 260 c 256,2,3
 41 386 41 386 109.5 458 c 128,-1,4
 178 530 178 530 298 530 c 0,5,6
 377 530 377 530 446 494 c 1,7,-1
 429 455 l 1,8,9
 366 487 366 487 299 487 c 0,10,11
 201 487 201 487 145.5 427 c 128,-1,12
 90 367 90 367 90 260 c 256,13,14
 90 153 90 153 145.5 93 c 128,-1,15
 201 33 201 33 299 33 c 0,16,17
 366 33 366 33 429 65 c 1,18,-1
 446 26 l 1,19,20
 377 -10 377 -10 298 -10 c 0,21,0
 178 -10 178 -10 109.5 62 c 128,-1,1
EndSplineSet
EndChar

StartChar: ccedilla
Encoding: 231 231 232
Width: 517
GlyphClass: 2
Flags: W
AnchorPoint: "Anchor-6" 270 520 basechar 0
AnchorPoint: "Anchor-4" 270 0 basechar 0
LayerCount: 2
Fore
SplineSet
446 26 m 1,0,1
 388 -4 388 -4 323 -9 c 1,2,3
 399 -68 399 -68 399 -128 c 0,4,5
 399 -167 399 -167 366.5 -193.5 c 128,-1,6
 334 -220 334 -220 260 -220 c 0,7,8
 202 -220 202 -220 154 -199 c 1,9,-1
 165 -159 l 1,10,11
 208 -178 208 -178 257 -178 c 0,12,13
 298 -178 298 -178 324.5 -165 c 128,-1,14
 351 -152 351 -152 351 -122 c 0,15,16
 351 -94 351 -94 325.5 -64.5 c 128,-1,17
 300 -35 300 -35 253 -7 c 1,18,19
 153 7 153 7 97 77 c 128,-1,20
 41 147 41 147 41 260 c 0,21,22
 41 386 41 386 109.5 458 c 128,-1,23
 178 530 178 530 298 530 c 0,24,25
 377 530 377 530 446 494 c 1,26,-1
 429 455 l 1,27,28
 366 487 366 487 299 487 c 0,29,30
 201 487 201 487 145.5 427 c 128,-1,31
 90 367 90 367 90 260 c 256,32,33
 90 153 90 153 145.5 93 c 128,-1,34
 201 33 201 33 299 33 c 0,35,36
 366 33 366 33 429 65 c 1,37,-1
 446 26 l 1,0,1
EndSplineSet
EndChar

StartChar: d
Encoding: 100 100 235
Width: 567
Flags: W
LayerCount: 2
Fore
SplineSet
486 750 m 1,0,-1
 486 0 l 1,1,-1
 439 0 l 1,2,-1
 439 89 l 1,3,-1
 437 89 l 1,4,5
 411 43 411 43 362 16.5 c 128,-1,6
 313 -10 313 -10 253 -10 c 0,7,8
 155 -10 155 -10 100 61.5 c 128,-1,9
 45 133 45 133 45 260 c 256,10,11
 45 387 45 387 100 458.5 c 128,-1,12
 155 530 155 530 253 530 c 0,13,14
 313 530 313 530 361.5 503.5 c 128,-1,15
 410 477 410 477 435 431 c 1,16,-1
 437 431 l 1,17,-1
 437 750 l 1,18,-1
 486 750 l 1,0,-1
353.5 58.5 m 128,-1,20
 393 84 393 84 415 130 c 128,-1,21
 437 176 437 176 437 236 c 2,22,-1
 437 284 l 2,23,24
 437 344 437 344 415 390 c 128,-1,25
 393 436 393 436 353.5 461.5 c 128,-1,26
 314 487 314 487 263 487 c 0,27,28
 184 487 184 487 139.5 426.5 c 128,-1,29
 95 366 95 366 95 260 c 256,30,31
 95 154 95 154 139.5 93.5 c 128,-1,32
 184 33 184 33 263 33 c 0,33,19
 314 33 314 33 353.5 58.5 c 128,-1,20
EndSplineSet
EndChar

StartChar: eth
Encoding: 240 240 236
Width: 572
Flags: W
LayerCount: 2
Fore
SplineSet
388 622 m 1,0,1
 450 541 450 541 487 440.5 c 128,-1,2
 524 340 524 340 524 244 c 0,3,4
 524 125 524 125 460 57.5 c 128,-1,5
 396 -10 396 -10 282 -10 c 0,6,7
 170 -10 170 -10 105.5 56 c 128,-1,8
 41 122 41 122 41 238 c 0,9,10
 41 350 41 350 104 415 c 128,-1,11
 167 480 167 480 277 480 c 0,12,13
 382 480 382 480 443 422 c 1,14,-1
 445 423 l 1,15,16
 410 522 410 522 344 605 c 1,17,-1
 108 511 l 1,18,-1
 91 551 l 1,19,-1
 314 640 l 1,20,21
 275 682 275 682 231.5 710.5 c 128,-1,22
 188 739 188 739 145 749 c 1,23,-1
 160 790 l 1,24,25
 213 777 213 777 264 742.5 c 128,-1,26
 315 708 315 708 359 658 c 1,27,-1
 531 726 l 1,28,-1
 548 686 l 1,29,-1
 388 622 l 1,0,1
424 87.5 m 128,-1,31
 475 142 475 142 475 238 c 0,32,33
 475 332 475 332 424.5 384.5 c 128,-1,34
 374 437 374 437 282 437 c 0,35,36
 191 437 191 437 140.5 385 c 128,-1,37
 90 333 90 333 90 238 c 0,38,39
 90 142 90 142 141 87.5 c 128,-1,40
 192 33 192 33 282 33 c 0,41,30
 373 33 373 33 424 87.5 c 128,-1,31
EndSplineSet
EndChar

StartChar: dcroat
Encoding: 273 273 238
Width: 632
Flags: W
LayerCount: 2
Fore
SplineSet
602 603 m 1,0,-1
 486 603 l 1,1,-1
 486 0 l 1,2,-1
 439 0 l 1,3,-1
 439 89 l 1,4,-1
 437 89 l 1,5,6
 411 43 411 43 362 16.5 c 128,-1,7
 313 -10 313 -10 253 -10 c 0,8,9
 155 -10 155 -10 100 61.5 c 128,-1,10
 45 133 45 133 45 260 c 256,11,12
 45 387 45 387 100 458.5 c 128,-1,13
 155 530 155 530 253 530 c 0,14,15
 313 530 313 530 361.5 503.5 c 128,-1,16
 410 477 410 477 435 431 c 1,17,-1
 437 431 l 1,18,-1
 437 603 l 1,19,-1
 182 603 l 1,20,-1
 182 647 l 1,21,-1
 437 647 l 1,22,-1
 437 750 l 1,23,-1
 486 750 l 1,24,-1
 486 647 l 1,25,-1
 602 647 l 1,26,-1
 602 603 l 1,0,-1
353.5 58.5 m 128,-1,28
 393 84 393 84 415 130 c 128,-1,29
 437 176 437 176 437 236 c 2,30,-1
 437 284 l 2,31,32
 437 344 437 344 415 390 c 128,-1,33
 393 436 393 436 353.5 461.5 c 128,-1,34
 314 487 314 487 263 487 c 0,35,36
 184 487 184 487 139.5 426.5 c 128,-1,37
 95 366 95 366 95 260 c 256,38,39
 95 154 95 154 139.5 93.5 c 128,-1,40
 184 33 184 33 263 33 c 0,41,27
 314 33 314 33 353.5 58.5 c 128,-1,28
EndSplineSet
EndChar

StartChar: e
Encoding: 101 101 240
Width: 535
GlyphClass: 2
Flags: W
AnchorPoint: "Anchor-6" 270 520 basechar 0
AnchorPoint: "Anchor-5" 473 33 basechar 0
AnchorPoint: "Anchor-4" 270 0 basechar 0
LayerCount: 2
Fore
SplineSet
495 244 m 1,1,-1
 89 244 l 1,2,3
 91 141 91 141 144.5 87 c 128,-1,4
 198 33 198 33 298 33 c 0,5,6
 383 33 383 33 458 68 c 1,7,-1
 472 28 l 1,8,9
 433 10 433 10 387 0 c 128,-1,10
 341 -10 341 -10 296 -10 c 0,11,12
 173 -10 173 -10 107 60 c 128,-1,13
 41 130 41 130 41 260 c 0,14,15
 41 389 41 389 101 459.5 c 128,-1,16
 161 530 161 530 270 530 c 256,17,18
 379 530 379 530 437.5 460 c 128,-1,19
 496 390 496 390 496 260 c 0,20,0
 496 248 496 248 495 244 c 1,1,-1
140 436.5 m 128,-1,22
 94 385 94 385 89 285 c 1,23,-1
 449 285 l 1,24,25
 445 385 445 385 399 436.5 c 128,-1,26
 353 488 353 488 270 488 c 0,27,21
 186 488 186 488 140 436.5 c 128,-1,22
EndSplineSet
EndChar

StartChar: eogonek
Encoding: 281 281 258
Width: 535
GlyphClass: 2
Flags: W
AnchorPoint: "Anchor-6" 270 520 basechar 0
AnchorPoint: "Anchor-5" 473 33 basechar 0
AnchorPoint: "Anchor-4" 270 0 basechar 0
LayerCount: 2
Fore
SplineSet
560 -165 m 1,0,1
 512 -186 512 -186 455 -186 c 0,2,3
 381 -186 381 -186 348.5 -159.5 c 128,-1,4
 316 -133 316 -133 316 -94 c 0,5,6
 316 -49 316 -49 357 -6 c 1,7,8
 317 -10 317 -10 296 -10 c 0,9,10
 173 -10 173 -10 107 60 c 128,-1,11
 41 130 41 130 41 260 c 0,12,13
 41 389 41 389 101 459.5 c 128,-1,14
 161 530 161 530 270 530 c 256,15,16
 379 530 379 530 437.5 460 c 128,-1,17
 496 390 496 390 496 260 c 0,18,19
 496 248 496 248 495 244 c 1,20,-1
 89 244 l 1,21,22
 91 141 91 141 144.5 87 c 128,-1,23
 198 33 198 33 298 33 c 0,24,25
 383 33 383 33 458 68 c 1,26,-1
 470 34 l 1,27,-1
 473 33 l 1,28,-1
 471 32 l 1,29,-1
 472 28 l 1,30,-1
 447 17 l 1,31,32
 406 -8 406 -8 384.5 -35 c 128,-1,33
 363 -62 363 -62 363 -88 c 0,34,35
 363 -118 363 -118 390 -131 c 128,-1,36
 417 -144 417 -144 458 -144 c 0,37,38
 508 -144 508 -144 549 -125 c 1,39,-1
 560 -165 l 1,0,1
140 436.5 m 128,-1,41
 94 385 94 385 89 285 c 1,42,-1
 449 285 l 1,43,44
 445 385 445 385 399 436.5 c 128,-1,45
 353 488 353 488 270 488 c 0,46,40
 186 488 186 488 140 436.5 c 128,-1,41
EndSplineSet
EndChar

StartChar: uni0259
Encoding: 601 601 260
Width: 535
GlyphClass: 2
Flags: W
AnchorPoint: "Anchor-6" 265 520 basechar 0
AnchorPoint: "Anchor-5" 62 487 basechar 0
AnchorPoint: "Anchor-4" 265 0 basechar 0
LayerCount: 2
Fore
SplineSet
428 460 m 128,-1,1
 494 390 494 390 494 260 c 0,2,3
 494 131 494 131 434 60.5 c 128,-1,4
 374 -10 374 -10 265 -10 c 256,5,6
 156 -10 156 -10 97.5 60 c 128,-1,7
 39 130 39 130 39 260 c 0,8,9
 39 272 39 272 40 276 c 1,10,-1
 446 276 l 1,11,12
 444 379 444 379 390.5 433 c 128,-1,13
 337 487 337 487 237 487 c 0,14,15
 152 487 152 487 77 452 c 1,16,-1
 63 492 l 1,17,18
 102 510 102 510 148 520 c 128,-1,19
 194 530 194 530 239 530 c 0,20,0
 362 530 362 530 428 460 c 128,-1,1
395 83.5 m 128,-1,22
 441 135 441 135 446 235 c 1,23,-1
 86 235 l 1,24,25
 90 135 90 135 136 83.5 c 128,-1,26
 182 32 182 32 265 32 c 0,27,21
 349 32 349 32 395 83.5 c 128,-1,22
EndSplineSet
EndChar

StartChar: f
Encoding: 102 102 261
Width: 426
Flags: W
LayerCount: 2
Fore
SplineSet
25 477 m 1,0,-1
 25 520 l 1,1,-1
 174 520 l 1,2,-1
 174 598 l 2,3,4
 174 681 174 681 208.5 720.5 c 128,-1,5
 243 760 243 760 315 760 c 0,6,7
 356 760 356 760 401 745 c 1,8,-1
 391 703 l 1,9,10
 357 717 357 717 320 717 c 0,11,12
 268 717 268 717 245.5 689.5 c 128,-1,13
 223 662 223 662 223 598 c 2,14,-1
 223 520 l 1,15,-1
 398 520 l 1,16,-1
 398 477 l 1,17,-1
 223 477 l 1,18,-1
 223 0 l 1,19,-1
 174 0 l 1,20,-1
 174 477 l 1,21,-1
 25 477 l 1,0,-1
EndSplineSet
EndChar

StartChar: g
Encoding: 103 103 262
Width: 566
GlyphClass: 2
Flags: W
AnchorPoint: "Anchor-6" 278 520 basechar 0
AnchorPoint: "Anchor-4" 278 -140 basechar 0
LayerCount: 2
Fore
SplineSet
485 520 m 1,0,-1
 485 35 l 2,1,2
 485 -99 485 -99 425.5 -164.5 c 128,-1,3
 366 -230 366 -230 245 -230 c 0,4,5
 146 -230 146 -230 59 -188 c 1,6,-1
 73 -149 l 1,7,8
 152 -187 152 -187 240 -187 c 0,9,10
 341 -187 341 -187 388.5 -133.5 c 128,-1,11
 436 -80 436 -80 436 35 c 2,12,-1
 436 89 l 1,13,-1
 434 89 l 1,14,15
 410 43 410 43 361 16.5 c 128,-1,16
 312 -10 312 -10 252 -10 c 0,17,18
 154 -10 154 -10 99.5 61.5 c 128,-1,19
 45 133 45 133 45 260 c 256,20,21
 45 387 45 387 99.5 458.5 c 128,-1,22
 154 530 154 530 252 530 c 0,23,24
 312 530 312 530 361 503.5 c 128,-1,25
 410 477 410 477 436 431 c 1,26,-1
 438 431 l 1,27,-1
 438 520 l 1,28,-1
 485 520 l 1,0,-1
352.5 58.5 m 128,-1,30
 392 84 392 84 414 130 c 128,-1,31
 436 176 436 176 436 236 c 2,32,-1
 436 284 l 2,33,34
 436 344 436 344 414 390 c 128,-1,35
 392 436 392 436 352.5 461.5 c 128,-1,36
 313 487 313 487 262 487 c 0,37,38
 183 487 183 487 138.5 426.5 c 128,-1,39
 94 366 94 366 94 260 c 256,40,41
 94 154 94 154 138.5 93.5 c 128,-1,42
 183 33 183 33 262 33 c 0,43,29
 313 33 313 33 352.5 58.5 c 128,-1,30
EndSplineSet
EndChar

StartChar: h
Encoding: 104 104 268
Width: 574
GlyphClass: 2
Flags: W
AnchorPoint: "Anchor-6" 277 750 basechar 0
AnchorPoint: "Anchor-4" 277 0 basechar 0
LayerCount: 2
Fore
SplineSet
459 476.5 m 128,-1,1
 501 423 501 423 501 320 c 2,2,-1
 501 0 l 1,3,-1
 451 0 l 1,4,-1
 451 313 l 2,5,6
 451 487 451 487 325 487 c 0,7,8
 273 487 273 487 228 459 c 128,-1,9
 183 431 183 431 156.5 384 c 128,-1,10
 130 337 130 337 130 282 c 2,11,-1
 130 0 l 1,12,-1
 81 0 l 1,13,-1
 81 750 l 1,14,-1
 130 750 l 1,15,-1
 130 421 l 1,16,-1
 132 421 l 1,17,18
 160 470 160 470 216 500 c 128,-1,19
 272 530 272 530 335 530 c 0,20,0
 417 530 417 530 459 476.5 c 128,-1,1
EndSplineSet
EndChar

StartChar: hbar
Encoding: 295 295 269
Width: 639
GlyphClass: 2
Flags: W
AnchorPoint: "Anchor-6" 342 750 basechar 0
AnchorPoint: "Anchor-4" 342 0 basechar 0
LayerCount: 2
Fore
SplineSet
524 476.5 m 128,-1,1
 566 423 566 423 566 320 c 2,2,-1
 566 0 l 1,3,-1
 516 0 l 1,4,-1
 516 313 l 2,5,6
 516 487 516 487 390 487 c 0,7,8
 338 487 338 487 293 459 c 128,-1,9
 248 431 248 431 221.5 384 c 128,-1,10
 195 337 195 337 195 282 c 2,11,-1
 195 0 l 1,12,-1
 146 0 l 1,13,-1
 146 603 l 1,14,-1
 29 603 l 1,15,-1
 29 647 l 1,16,-1
 146 647 l 1,17,-1
 146 750 l 1,18,-1
 195 750 l 1,19,-1
 195 647 l 1,20,-1
 449 647 l 1,21,-1
 449 603 l 1,22,-1
 195 603 l 1,23,-1
 195 421 l 1,24,-1
 197 421 l 1,25,26
 225 470 225 470 281 500 c 128,-1,27
 337 530 337 530 400 530 c 0,28,0
 482 530 482 530 524 476.5 c 128,-1,1
EndSplineSet
EndChar

StartChar: i
Encoding: 105 105 271
Width: 255
GlyphClass: 2
Flags: W
AnchorPoint: "Anchor-6" 127 520 basechar 0
AnchorPoint: "Anchor-5" 152 0 basechar 0
AnchorPoint: "Anchor-4" 127 0 basechar 0
LayerCount: 2
Fore
SplineSet
89 733 m 1,0,-1
 166 733 l 1,1,-1
 166 657 l 1,2,-1
 89 657 l 1,3,-1
 89 733 l 1,0,-1
102 520 m 1,4,-1
 152 520 l 1,5,-1
 152 0 l 1,6,-1
 102 0 l 1,7,-1
 102 520 l 1,4,-1
EndSplineSet
Substitution2: "Single Substitution lookup 19 subtable" dotlessi
Substitution2: "'locl' Localized Forms in Latin lookup 3 subtable" i.loclTRK
Substitution2: "'aalt' Access All Alternates in Latin lookup 0 subtable" i.loclTRK
EndChar

StartChar: dotlessi
Encoding: 305 305 272
Width: 228
GlyphClass: 2
Flags: W
AnchorPoint: "Anchor-6" 114 520 basechar 0
AnchorPoint: "Anchor-5" 139 0 basechar 0
AnchorPoint: "Anchor-4" 114 0 basechar 0
LayerCount: 2
Fore
SplineSet
89 520 m 1,0,-1
 139 520 l 1,1,-1
 139 0 l 1,2,-1
 89 0 l 1,3,-1
 89 520 l 1,0,-1
EndSplineSet
EndChar

StartChar: iogonek
Encoding: 303 303 284
Width: 228
GlyphClass: 2
Flags: W
AnchorPoint: "Anchor-6" 114 706 basechar 0
AnchorPoint: "Anchor-5" 139 0 basechar 0
AnchorPoint: "Anchor-4" 114 0 basechar 0
LayerCount: 2
Fore
SplineSet
155 706 m 1,0,-1
 155 624 l 1,1,-1
 73 624 l 1,2,-1
 73 706 l 1,3,-1
 155 706 l 1,0,-1
226 -198 m 1,4,5
 178 -219 178 -219 121 -219 c 0,6,7
 47 -219 47 -219 14.5 -192.5 c 128,-1,8
 -18 -166 -18 -166 -18 -127 c 0,9,10
 -18 -90 -18 -90 9.5 -54 c 128,-1,11
 37 -18 37 -18 89 14 c 1,12,-1
 89 520 l 1,13,-1
 139 520 l 1,14,-1
 139 0 l 1,15,16
 86 -29 86 -29 57.5 -60.5 c 128,-1,17
 29 -92 29 -92 29 -121 c 0,18,19
 29 -151 29 -151 56 -164 c 128,-1,20
 83 -177 83 -177 124 -177 c 0,21,22
 174 -177 174 -177 215 -158 c 1,23,-1
 226 -198 l 1,4,5
EndSplineSet
EndChar

StartChar: j
Encoding: 106 106 286
Width: 307
GlyphClass: 2
Flags: W
AnchorPoint: "Anchor-6" 147 520 basechar 0
AnchorPoint: "Anchor-4" 147 -140 basechar 0
LayerCount: 2
Fore
SplineSet
142 733 m 1,0,-1
 218 733 l 1,1,-1
 218 657 l 1,2,-1
 142 657 l 1,3,-1
 142 733 l 1,0,-1
72.5 -171.5 m 128,-1,5
 119 -156 119 -156 137 -115.5 c 128,-1,6
 155 -75 155 -75 155 7 c 2,7,-1
 155 520 l 1,8,-1
 205 520 l 1,9,-1
 205 7 l 2,10,11
 205 -89 205 -89 181 -139 c 128,-1,12
 157 -189 157 -189 99.5 -209.5 c 128,-1,13
 42 -230 42 -230 -68 -230 c 1,14,-1
 -69 -187 l 1,15,4
 26 -187 26 -187 72.5 -171.5 c 128,-1,5
EndSplineSet
Substitution2: "Single Substitution lookup 19 subtable" uni0237
EndChar

StartChar: uni0237
Encoding: 567 567 287
Width: 294
GlyphClass: 2
Flags: W
AnchorPoint: "Anchor-6" 147 520 basechar 0
AnchorPoint: "Anchor-4" 147 -140 basechar 0
LayerCount: 2
Fore
SplineSet
72.5 -171.5 m 128,-1,1
 119 -156 119 -156 137 -115.5 c 128,-1,2
 155 -75 155 -75 155 7 c 2,3,-1
 155 520 l 1,4,-1
 205 520 l 1,5,-1
 205 7 l 2,6,7
 205 -89 205 -89 181 -139 c 128,-1,8
 157 -189 157 -189 99.5 -209.5 c 128,-1,9
 42 -230 42 -230 -68 -230 c 1,10,-1
 -69 -187 l 1,11,0
 26 -187 26 -187 72.5 -171.5 c 128,-1,1
EndSplineSet
EndChar

StartChar: k
Encoding: 107 107 289
Width: 536
GlyphClass: 2
Flags: W
AnchorPoint: "Anchor-6" 233 750 basechar 0
AnchorPoint: "Anchor-4" 233 0 basechar 0
LayerCount: 2
Fore
SplineSet
81 750 m 1,0,-1
 130 750 l 1,1,-1
 130 286 l 1,2,-1
 132 286 l 1,3,-1
 417 520 l 1,4,-1
 485 520 l 1,5,-1
 177 270 l 1,6,-1
 499 0 l 1,7,-1
 431 0 l 1,8,-1
 132 253 l 1,9,-1
 130 253 l 1,10,-1
 130 0 l 1,11,-1
 81 0 l 1,12,-1
 81 750 l 1,0,-1
EndSplineSet
EndChar

StartChar: kgreenlandic
Encoding: 312 312 291
Width: 536
GlyphClass: 2
Flags: W
AnchorPoint: "Anchor-6" 233 520 basechar 0
AnchorPoint: "Anchor-4" 233 0 basechar 0
LayerCount: 2
Fore
SplineSet
81 520 m 1,0,-1
 130 520 l 1,1,-1
 130 286 l 1,2,-1
 132 286 l 1,3,-1
 417 520 l 1,4,-1
 485 520 l 1,5,-1
 177 270 l 1,6,-1
 499 0 l 1,7,-1
 431 0 l 1,8,-1
 132 253 l 1,9,-1
 130 253 l 1,10,-1
 130 0 l 1,11,-1
 81 0 l 1,12,-1
 81 520 l 1,0,-1
EndSplineSet
EndChar

StartChar: l
Encoding: 108 108 292
Width: 370
GlyphClass: 2
Flags: W
LayerCount: 2
Fore
SplineSet
89 750 m 1,0,-1
 137 750 l 1,1,-1
 137 153 l 2,2,3
 137 78 137 78 158 54 c 0,4,5
 180.5 30 180.5 30 239 30 c 0,6,7
 286 30 286 30 324 45 c 1,8,-1
 334 7 l 1,9,10
 285 -10 285 -10 234 -10 c 0,11,12
 153 -10 153 -10 121 24 c 0,13,14
 89 61 89 61 89 147 c 2,15,-1
 89 750 l 1,0,-1
EndSplineSet
EndChar

StartChar: lacute
Encoding: 314 314 293
Width: 370
GlyphClass: 2
Flags: W
LayerCount: 2
Fore
SplineSet
89 750 m 1,0,-1
 137 750 l 1,1,-1
 137 153 l 2,2,3
 137 78 137 78 158 54 c 0,4,5
 180.5 30 180.5 30 239 30 c 0,6,7
 286 30 286 30 324 45 c 1,8,-1
 334 7 l 1,9,10
 285 -10 285 -10 234 -10 c 0,11,12
 153 -10 153 -10 121 24 c 0,13,14
 89 61 89 61 89 147 c 2,15,-1
 89 750 l 1,0,-1
84 790 m 1,16,-1
 32 790 l 1,17,-1
 145 1000 l 1,18,-1
 206 1000 l 1,19,-1
 84 790 l 1,16,-1
EndSplineSet
EndChar

StartChar: uni013C
Encoding: 316 316 295
Width: 370
GlyphClass: 2
Flags: W
LayerCount: 2
Fore
SplineSet
89 750 m 1,0,-1
 137 750 l 1,1,-1
 137 153 l 2,2,3
 137 78 137 78 158 54 c 0,4,5
 180.5 30 180.5 30 239 30 c 0,6,7
 286 30 286 30 324 45 c 1,8,-1
 334 7 l 1,9,10
 285 -10 285 -10 234 -10 c 0,11,12
 153 -10 153 -10 121 24 c 0,13,14
 89 61 89 61 89 147 c 2,15,-1
 89 750 l 1,0,-1
128 -250 m 1,16,-1
 76 -250 l 1,17,-1
 189 -40 l 1,18,-1
 250 -40 l 1,19,-1
 128 -250 l 1,16,-1
EndSplineSet
EndChar

StartChar: lslash
Encoding: 322 322 298
Width: 400
GlyphClass: 2
Flags: W
LayerCount: 2
Fore
SplineSet
385 423 m 1,0,-1
 32 267 l 1,1,-1
 15 307 l 1,2,-1
 368 463 l 1,3,-1
 385 423 l 1,0,-1
175 750 m 1,4,-1
 223 750 l 1,5,-1
 223 153 l 2,6,7
 223 78 223 78 244 54 c 0,8,9
 266.5 30 266.5 30 325 30 c 0,10,11
 372 30 372 30 410 45 c 1,12,-1
 420 7 l 1,13,14
 371 -10 371 -10 320 -10 c 0,15,16
 239 -10 239 -10 207 24 c 0,17,18
 175 61 175 61 175 147 c 2,19,-1
 175 750 l 1,4,-1
EndSplineSet
EndChar

StartChar: m
Encoding: 109 109 299
Width: 798
Flags: W
LayerCount: 2
Fore
SplineSet
725 320 m 2,1,-1
 725 0 l 1,2,-1
 677 0 l 1,3,-1
 677 313 l 2,4,5
 677 399 677 399 652 443 c 128,-1,6
 627 487 627 487 577 487 c 0,7,8
 538 487 538 487 503.5 461.5 c 128,-1,9
 469 436 469 436 448 393.5 c 128,-1,10
 427 351 427 351 427 302 c 2,11,-1
 427 0 l 1,12,-1
 379 0 l 1,13,-1
 379 313 l 2,14,15
 379 399 379 399 354 443 c 128,-1,16
 329 487 329 487 279 487 c 0,17,18
 238 487 238 487 203.5 459 c 128,-1,19
 169 431 169 431 149 383 c 128,-1,20
 129 335 129 335 129 278 c 2,21,-1
 129 0 l 1,22,-1
 81 0 l 1,23,-1
 81 520 l 1,24,-1
 127 520 l 1,25,-1
 128 431 l 1,26,-1
 130 431 l 1,27,28
 155 477 155 477 197.5 503.5 c 128,-1,29
 240 530 240 530 290 530 c 0,30,31
 384 530 384 530 414 431 c 1,32,-1
 415 431 l 1,33,34
 442 475 442 475 489.5 502.5 c 128,-1,35
 537 530 537 530 589 530 c 0,36,0
 725 530 725 530 725 320 c 2,1,-1
EndSplineSet
EndChar

StartChar: n
Encoding: 110 110 300
Width: 574
GlyphClass: 2
Flags: W
AnchorPoint: "Anchor-6" 287 520 basechar 0
AnchorPoint: "Anchor-4" 287 0 basechar 0
LayerCount: 2
Fore
SplineSet
458.5 477 m 128,-1,1
 501 424 501 424 501 320 c 2,2,-1
 501 0 l 1,3,-1
 451 0 l 1,4,-1
 451 313 l 2,5,6
 451 487 451 487 323 487 c 0,7,8
 271 487 271 487 226.5 459 c 128,-1,9
 182 431 182 431 156 384 c 128,-1,10
 130 337 130 337 130 282 c 2,11,-1
 130 0 l 1,12,-1
 81 0 l 1,13,-1
 81 520 l 1,14,-1
 128 520 l 1,15,-1
 128 421 l 1,16,-1
 130 421 l 1,17,18
 159 471 159 471 214 500.5 c 128,-1,19
 269 530 269 530 333 530 c 0,20,0
 416 530 416 530 458.5 477 c 128,-1,1
EndSplineSet
EndChar

StartChar: eng
Encoding: 331 331 304
Width: 574
GlyphClass: 2
Flags: W
AnchorPoint: "Anchor-6" 287 520 basechar 0
AnchorPoint: "Anchor-4" 287 0 basechar 0
LayerCount: 2
Fore
SplineSet
458.5 477 m 128,-1,1
 501 424 501 424 501 320 c 2,2,-1
 501 -49 l 2,3,4
 501 -135 501 -135 464.5 -174.5 c 128,-1,5
 428 -214 428 -214 349 -214 c 0,6,7
 301 -214 301 -214 257 -199 c 1,8,-1
 268 -156 l 1,9,10
 302 -170 302 -170 341 -170 c 0,11,12
 400 -170 400 -170 425.5 -141.5 c 128,-1,13
 451 -113 451 -113 451 -49 c 2,14,-1
 451 313 l 2,15,16
 451 487 451 487 323 487 c 0,17,18
 271 487 271 487 226.5 459 c 128,-1,19
 182 431 182 431 156 384 c 128,-1,20
 130 337 130 337 130 282 c 2,21,-1
 130 0 l 1,22,-1
 81 0 l 1,23,-1
 81 520 l 1,24,-1
 128 520 l 1,25,-1
 128 406 l 1,26,-1
 130 406 l 1,27,28
 159 463 159 463 213 496.5 c 128,-1,29
 267 530 267 530 333 530 c 0,30,0
 416 530 416 530 458.5 477 c 128,-1,1
EndSplineSet
EndChar

StartChar: o
Encoding: 111 111 307
Width: 557
GlyphClass: 2
Flags: W
AnchorPoint: "Anchor-7" 429 480 basechar 0
AnchorPoint: "Anchor-6" 278 520 basechar 0
AnchorPoint: "Anchor-5" 332 0 basechar 0
AnchorPoint: "Anchor-4" 278 0 basechar 0
LayerCount: 2
Fore
SplineSet
104 61.5 m 128,-1,1
 41 133 41 133 41 260 c 256,2,3
 41 387 41 387 104 458.5 c 128,-1,4
 167 530 167 530 278 530 c 0,5,6
 390 530 390 530 453 458.5 c 128,-1,7
 516 387 516 387 516 260 c 256,8,9
 516 133 516 133 453 61.5 c 128,-1,10
 390 -10 390 -10 278 -10 c 0,11,0
 167 -10 167 -10 104 61.5 c 128,-1,1
417.5 92.5 m 128,-1,13
 467 152 467 152 467 260 c 256,14,15
 467 368 467 368 417.5 427.5 c 128,-1,16
 368 487 368 487 278 487 c 0,17,18
 189 487 189 487 139.5 428 c 128,-1,19
 90 369 90 369 90 260 c 256,20,21
 90 151 90 151 139.5 92 c 128,-1,22
 189 33 189 33 278 33 c 0,23,12
 368 33 368 33 417.5 92.5 c 128,-1,13
EndSplineSet
Substitution2: "Single Substitution lookup 21 subtable" ordmasculine
Substitution2: "'aalt' Access All Alternates in Latin lookup 0 subtable" ordmasculine
EndChar

StartChar: ohorn
Encoding: 417 417 323
Width: 584
GlyphClass: 2
Flags: W
AnchorPoint: "Anchor-7" 618 633 basechar 0
AnchorPoint: "Anchor-6" 278 520 basechar 0
AnchorPoint: "Anchor-5" 332 0 basechar 0
AnchorPoint: "Anchor-4" 278 0 basechar 0
LayerCount: 2
Fore
SplineSet
572 448 m 128,-1,1
 546 418 546 418 499 418 c 0,2,3
 487 418 487 418 480 419 c 1,4,5
 516 356 516 356 516 260 c 0,6,7
 516 133 516 133 453 61.5 c 128,-1,8
 390 -10 390 -10 278 -10 c 0,9,10
 167 -10 167 -10 104 61.5 c 128,-1,11
 41 133 41 133 41 260 c 256,12,13
 41 387 41 387 104 458.5 c 128,-1,14
 167 530 167 530 278 530 c 0,15,16
 375 530 375 530 436 475 c 1,17,18
 459 462 459 462 486 462 c 0,19,20
 547 462 547 462 547 536 c 0,21,22
 547 558 547 558 542 586.5 c 128,-1,23
 537 615 537 615 529 633 c 1,24,-1
 580 633 l 1,25,26
 598 582 598 582 598 532 c 0,27,0
 598 478 598 478 572 448 c 128,-1,1
417.5 92.5 m 128,-1,29
 467 152 467 152 467 260 c 256,30,31
 467 368 467 368 417.5 427.5 c 128,-1,32
 368 487 368 487 278 487 c 0,33,34
 189 487 189 487 139.5 428 c 128,-1,35
 90 369 90 369 90 260 c 256,36,37
 90 151 90 151 139.5 92 c 128,-1,38
 189 33 189 33 278 33 c 0,39,28
 368 33 368 33 417.5 92.5 c 128,-1,29
EndSplineSet
EndChar

StartChar: uni01EB
Encoding: 491 491 332
Width: 557
GlyphClass: 2
Flags: W
AnchorPoint: "Anchor-7" 429 480 basechar 0
AnchorPoint: "Anchor-6" 278 520 basechar 0
AnchorPoint: "Anchor-5" 332 0 basechar 0
AnchorPoint: "Anchor-4" 278 0 basechar 0
LayerCount: 2
Fore
SplineSet
247 -64 m 128,-1,1
 222 -93 222 -93 222 -121 c 0,2,3
 222 -151 222 -151 249 -164 c 128,-1,4
 276 -177 276 -177 317 -177 c 0,5,6
 367 -177 367 -177 408 -158 c 1,7,-1
 419 -198 l 1,8,9
 371 -219 371 -219 314 -219 c 0,10,11
 240 -219 240 -219 207.5 -192.5 c 128,-1,12
 175 -166 175 -166 175 -127 c 0,13,14
 175 -66 175 -66 249 -9 c 1,15,16
 151 1 151 1 96 71.5 c 128,-1,17
 41 142 41 142 41 260 c 0,18,19
 41 387 41 387 104 458.5 c 128,-1,20
 167 530 167 530 278 530 c 0,21,22
 390 530 390 530 453 458.5 c 128,-1,23
 516 387 516 387 516 260 c 0,24,25
 516 146 516 146 464 76 c 128,-1,26
 412 6 412 6 319 -7 c 1,27,0
 272 -35 272 -35 247 -64 c 128,-1,1
139.5 92 m 128,-1,29
 189 33 189 33 278 33 c 0,30,31
 368 33 368 33 417.5 92.5 c 128,-1,32
 467 152 467 152 467 260 c 256,33,34
 467 368 467 368 417.5 427.5 c 128,-1,35
 368 487 368 487 278 487 c 0,36,37
 189 487 189 487 139.5 428 c 128,-1,38
 90 369 90 369 90 260 c 256,39,28
 90 151 90 151 139.5 92 c 128,-1,29
EndSplineSet
EndChar

StartChar: oslash
Encoding: 248 248 333
Width: 557
GlyphClass: 2
Flags: W
AnchorPoint: "Anchor-7" 429 480 basechar 0
AnchorPoint: "Anchor-6" 278 520 basechar 0
AnchorPoint: "Anchor-5" 332 0 basechar 0
AnchorPoint: "Anchor-4" 278 0 basechar 0
LayerCount: 2
Fore
SplineSet
516 260 m 0,1,2
 516 133 516 133 453 61.5 c 128,-1,3
 390 -10 390 -10 278 -10 c 0,4,5
 193 -10 193 -10 135 33 c 1,6,-1
 94 -22 l 1,7,-1
 62 2 l 1,8,-1
 105 60 l 1,9,10
 41 133 41 133 41 260 c 256,11,12
 41 387 41 387 104 458.5 c 128,-1,13
 167 530 167 530 278 530 c 0,14,15
 364 530 364 530 421 487 c 1,16,-1
 462 542 l 1,17,-1
 494 518 l 1,18,-1
 451 460 l 1,19,0
 516 389 516 389 516 260 c 0,1,2
134 99 m 1,21,-1
 394 450 l 1,22,23
 348 487 348 487 278 487 c 0,24,25
 189 487 189 487 139.5 428 c 128,-1,26
 90 369 90 369 90 260 c 0,27,20
 90 157 90 157 134 99 c 1,21,-1
417.5 92.5 m 128,-1,29
 467 152 467 152 467 260 c 0,30,31
 467 362 467 362 422 421 c 1,32,-1
 162 70 l 1,33,34
 208 33 208 33 278 33 c 0,35,28
 368 33 368 33 417.5 92.5 c 128,-1,29
EndSplineSet
EndChar

StartChar: oe
Encoding: 339 339 337
Width: 961
Flags: W
LayerCount: 2
Fore
SplineSet
921 244 m 1,1,-1
 515 244 l 1,2,3
 517 141 517 141 569 87 c 128,-1,4
 621 33 621 33 717 33 c 0,5,6
 760 33 760 33 803.5 43.5 c 128,-1,7
 847 54 847 54 882 73 c 1,8,-1
 897 35 l 1,9,10
 858 13 858 13 811 1.5 c 128,-1,11
 764 -10 764 -10 715 -10 c 0,12,13
 632 -10 632 -10 575 24.5 c 128,-1,14
 518 59 518 59 491 124 c 1,15,16
 464 59 464 59 409.5 24.5 c 128,-1,17
 355 -10 355 -10 278 -10 c 0,18,19
 167 -10 167 -10 104 61.5 c 128,-1,20
 41 133 41 133 41 260 c 256,21,22
 41 387 41 387 104 458.5 c 128,-1,23
 167 530 167 530 278 530 c 0,24,25
 355 530 355 530 409 495.5 c 128,-1,26
 463 461 463 461 490 397 c 1,27,28
 516 462 516 462 568.5 496 c 128,-1,29
 621 530 621 530 696 530 c 0,30,31
 805 530 805 530 863.5 460 c 128,-1,32
 922 390 922 390 922 260 c 0,33,0
 922 248 922 248 921 244 c 1,1,-1
566 436.5 m 128,-1,35
 520 385 520 385 515 285 c 1,36,-1
 875 285 l 1,37,38
 871 385 871 385 825 436.5 c 128,-1,39
 779 488 779 488 696 488 c 0,40,34
 612 488 612 488 566 436.5 c 128,-1,35
417.5 92.5 m 128,-1,42
 467 152 467 152 467 260 c 256,43,44
 467 368 467 368 417.5 427.5 c 128,-1,45
 368 487 368 487 278 487 c 0,46,47
 189 487 189 487 139.5 428 c 128,-1,48
 90 369 90 369 90 260 c 256,49,50
 90 151 90 151 139.5 92 c 128,-1,51
 189 33 189 33 278 33 c 0,52,41
 368 33 368 33 417.5 92.5 c 128,-1,42
EndSplineSet
EndChar

StartChar: p
Encoding: 112 112 338
Width: 563
Flags: W
LayerCount: 2
Fore
SplineSet
467 458.5 m 128,-1,1
 522 387 522 387 522 260 c 256,2,3
 522 133 522 133 467 61.5 c 128,-1,4
 412 -10 412 -10 314 -10 c 0,5,6
 254 -10 254 -10 205.5 16.5 c 128,-1,7
 157 43 157 43 132 89 c 1,8,-1
 130 89 l 1,9,-1
 130 -220 l 1,10,-1
 81 -220 l 1,11,-1
 81 520 l 1,12,-1
 128 520 l 1,13,-1
 128 431 l 1,14,-1
 130 431 l 1,15,16
 156 477 156 477 205 503.5 c 128,-1,17
 254 530 254 530 314 530 c 0,18,0
 412 530 412 530 467 458.5 c 128,-1,1
427.5 93.5 m 128,-1,20
 472 154 472 154 472 260 c 256,21,22
 472 366 472 366 427.5 426.5 c 128,-1,23
 383 487 383 487 304 487 c 0,24,25
 253 487 253 487 213.5 461.5 c 128,-1,26
 174 436 174 436 152 390 c 128,-1,27
 130 344 130 344 130 284 c 2,28,-1
 130 236 l 2,29,30
 130 176 130 176 152 130 c 128,-1,31
 174 84 174 84 213.5 58.5 c 128,-1,32
 253 33 253 33 304 33 c 0,33,19
 383 33 383 33 427.5 93.5 c 128,-1,20
EndSplineSet
EndChar

StartChar: thorn
Encoding: 254 254 339
Width: 567
Flags: W
LayerCount: 2
Fore
SplineSet
467 458.5 m 128,-1,1
 522 387 522 387 522 260 c 256,2,3
 522 133 522 133 467 61.5 c 128,-1,4
 412 -10 412 -10 314 -10 c 0,5,6
 254 -10 254 -10 205.5 16.5 c 128,-1,7
 157 43 157 43 132 89 c 1,8,-1
 130 89 l 1,9,-1
 130 -220 l 1,10,-1
 81 -220 l 1,11,-1
 81 750 l 1,12,-1
 130 750 l 1,13,-1
 130 431 l 1,14,-1
 132 431 l 1,15,16
 157 477 157 477 205.5 503.5 c 128,-1,17
 254 530 254 530 314 530 c 0,18,0
 412 530 412 530 467 458.5 c 128,-1,1
427.5 93.5 m 128,-1,20
 472 154 472 154 472 260 c 256,21,22
 472 366 472 366 427.5 426.5 c 128,-1,23
 383 487 383 487 304 487 c 0,24,25
 253 487 253 487 213.5 461.5 c 128,-1,26
 174 436 174 436 152 390 c 128,-1,27
 130 344 130 344 130 284 c 2,28,-1
 130 236 l 2,29,30
 130 176 130 176 152 130 c 128,-1,31
 174 84 174 84 213.5 58.5 c 128,-1,32
 253 33 253 33 304 33 c 0,33,19
 383 33 383 33 427.5 93.5 c 128,-1,20
EndSplineSet
EndChar

StartChar: q
Encoding: 113 113 340
Width: 563
Flags: W
LayerCount: 2
Fore
SplineSet
482 520 m 1,0,-1
 482 -220 l 1,1,-1
 433 -220 l 1,2,-1
 433 89 l 1,3,-1
 431 89 l 1,4,5
 406 43 406 43 357.5 16.5 c 128,-1,6
 309 -10 309 -10 249 -10 c 0,7,8
 151 -10 151 -10 96 61.5 c 128,-1,9
 41 133 41 133 41 260 c 256,10,11
 41 387 41 387 96 458.5 c 128,-1,12
 151 530 151 530 249 530 c 0,13,14
 309 530 309 530 358 503.5 c 128,-1,15
 407 477 407 477 433 431 c 1,16,-1
 435 431 l 1,17,-1
 435 520 l 1,18,-1
 482 520 l 1,0,-1
349.5 58.5 m 128,-1,20
 389 84 389 84 411 130 c 128,-1,21
 433 176 433 176 433 236 c 2,22,-1
 433 284 l 2,23,24
 433 344 433 344 411 390 c 128,-1,25
 389 436 389 436 349.5 461.5 c 128,-1,26
 310 487 310 487 259 487 c 0,27,28
 180 487 180 487 135.5 426.5 c 128,-1,29
 91 366 91 366 91 260 c 256,30,31
 91 154 91 154 135.5 93.5 c 128,-1,32
 180 33 180 33 259 33 c 0,33,19
 310 33 310 33 349.5 58.5 c 128,-1,20
EndSplineSet
EndChar

StartChar: r
Encoding: 114 114 341
Width: 391
GlyphClass: 2
Flags: W
AnchorPoint: "Anchor-6" 210 520 basechar 0
AnchorPoint: "Anchor-4" 210 0 basechar 0
LayerCount: 2
Fore
SplineSet
229.5 496.5 m 128,-1,1
 295 530 295 530 375 530 c 1,2,-1
 375 485 l 1,3,4
 306 485 306 485 250.5 459 c 128,-1,5
 195 433 195 433 162.5 384.5 c 128,-1,6
 130 336 130 336 130 270 c 2,7,-1
 130 0 l 1,8,-1
 81 0 l 1,9,-1
 81 520 l 1,10,-1
 128 520 l 1,11,-1
 129 405 l 1,12,-1
 131 405 l 1,13,0
 164 463 164 463 229.5 496.5 c 128,-1,1
EndSplineSet
EndChar

StartChar: s
Encoding: 115 115 347
Width: 468
GlyphClass: 2
Flags: W
AnchorPoint: "Anchor-6" 234 520 basechar 0
AnchorPoint: "Anchor-4" 234 0 basechar 0
LayerCount: 2
Fore
SplineSet
130 0.5 m 128,-1,1
 81 11 81 11 41 31 c 1,2,-1
 57 71 l 1,3,4
 136 33 136 33 226 33 c 0,5,6
 299 33 299 33 338.5 59.5 c 128,-1,7
 378 86 378 86 378 134 c 0,8,9
 378 167 378 167 359.5 188 c 128,-1,10
 341 209 341 209 310.5 221 c 128,-1,11
 280 233 280 233 226 247 c 0,12,13
 134 270 134 270 87.5 301.5 c 128,-1,14
 41 333 41 333 41 395 c 0,15,16
 41 459 41 459 90.5 494.5 c 128,-1,17
 140 530 140 530 230 530 c 0,18,19
 278 530 278 530 328.5 520 c 128,-1,20
 379 510 379 510 414 494 c 1,21,-1
 397 454 l 1,22,23
 366 469 366 469 321.5 478 c 128,-1,24
 277 487 277 487 234 487 c 0,25,26
 165 487 165 487 127.5 463 c 128,-1,27
 90 439 90 439 90 395 c 0,28,29
 90 364 90 364 108 344.5 c 128,-1,30
 126 325 126 325 156 314 c 128,-1,31
 186 303 186 303 237 290 c 0,32,33
 330 267 330 267 379 233.5 c 128,-1,34
 428 200 428 200 428 134 c 0,35,36
 428 66 428 66 376.5 28 c 128,-1,37
 325 -10 325 -10 231 -10 c 0,38,0
 179 -10 179 -10 130 0.5 c 128,-1,1
EndSplineSet
EndChar

StartChar: scedilla
Encoding: 351 351 350
Width: 468
GlyphClass: 2
Flags: W
AnchorPoint: "Anchor-6" 234 520 basechar 0
AnchorPoint: "Anchor-4" 234 0 basechar 0
LayerCount: 2
Fore
SplineSet
389 38.5 m 128,-1,1
 350 2 350 2 278 -7 c 1,2,3
 356 -65 356 -65 356 -128 c 0,4,5
 356 -167 356 -167 323.5 -193.5 c 128,-1,6
 291 -220 291 -220 217 -220 c 0,7,8
 160 -220 160 -220 112 -199 c 1,9,-1
 123 -159 l 1,10,11
 164 -178 164 -178 214 -178 c 0,12,13
 255 -178 255 -178 282 -165 c 128,-1,14
 309 -152 309 -152 309 -122 c 0,15,16
 309 -95 309 -95 284.5 -66 c 128,-1,17
 260 -37 260 -37 214 -10 c 1,18,19
 117 -7 117 -7 41 31 c 1,20,-1
 57 71 l 1,21,22
 136 33 136 33 226 33 c 0,23,24
 299 33 299 33 338.5 59.5 c 128,-1,25
 378 86 378 86 378 134 c 0,26,27
 378 167 378 167 359.5 188 c 128,-1,28
 341 209 341 209 310.5 221 c 128,-1,29
 280 233 280 233 226 247 c 0,30,31
 134 270 134 270 87.5 301.5 c 128,-1,32
 41 333 41 333 41 395 c 0,33,34
 41 459 41 459 90.5 494.5 c 128,-1,35
 140 530 140 530 230 530 c 0,36,37
 278 530 278 530 328.5 520 c 128,-1,38
 379 510 379 510 414 494 c 1,39,-1
 397 454 l 1,40,41
 366 469 366 469 321.5 478 c 128,-1,42
 277 487 277 487 234 487 c 0,43,44
 165 487 165 487 127.5 463 c 128,-1,45
 90 439 90 439 90 395 c 0,46,47
 90 364 90 364 108 344.5 c 128,-1,48
 126 325 126 325 156 314 c 128,-1,49
 186 303 186 303 237 290 c 0,50,51
 330 267 330 267 379 233.5 c 128,-1,52
 428 200 428 200 428 134 c 0,53,0
 428 75 428 75 389 38.5 c 128,-1,1
EndSplineSet
Substitution2: "'locl' Localized Forms in Latin lookup 4 subtable" uni0219
Substitution2: "'aalt' Access All Alternates in Latin lookup 0 subtable" uni0219
EndChar

StartChar: germandbls
Encoding: 223 223 353
Width: 581
Flags: W
LayerCount: 2
Fore
SplineSet
277.5 -4 m 128,-1,1
 236 2 236 2 196 13 c 1,2,-1
 205 57 l 1,3,4
 240 47 240 47 278 41 c 128,-1,5
 316 35 316 35 344 35 c 0,6,7
 410 35 410 35 449.5 69.5 c 128,-1,8
 489 104 489 104 489 161 c 0,9,10
 489 186 489 186 480 207 c 128,-1,11
 471 228 471 228 447.5 255 c 128,-1,12
 424 282 424 282 376 330 c 0,13,14
 344 362 344 362 331 379.5 c 128,-1,15
 318 397 318 397 318 413 c 0,16,17
 318 426 318 426 328 441.5 c 128,-1,18
 338 457 338 457 364 487 c 0,19,20
 411 540 411 540 427.5 570 c 128,-1,21
 444 600 444 600 444 630 c 0,22,23
 444 715 444 715 293 715 c 0,24,25
 230 715 230 715 195 700 c 128,-1,26
 160 685 160 685 145 649.5 c 128,-1,27
 130 614 130 614 130 549 c 2,28,-1
 130 0 l 1,29,-1
 81 0 l 1,30,-1
 81 549 l 2,31,32
 81 626 81 626 102 672 c 128,-1,33
 123 718 123 718 168.5 739 c 128,-1,34
 214 760 214 760 291 760 c 0,35,36
 389 760 389 760 441 727 c 128,-1,37
 493 694 493 694 493 632 c 0,38,39
 493 595 493 595 475 561.5 c 128,-1,40
 457 528 457 528 408 472 c 0,41,42
 384 443 384 443 376 431 c 128,-1,43
 368 419 368 419 368 413 c 0,44,45
 368 406 368 406 378.5 393 c 128,-1,46
 389 380 389 380 421 348 c 0,47,48
 490 281 490 281 514 242 c 128,-1,49
 538 203 538 203 538 158 c 0,50,51
 538 81 538 81 487 35.5 c 128,-1,52
 436 -10 436 -10 350 -10 c 0,53,0
 319 -10 319 -10 277.5 -4 c 128,-1,1
EndSplineSet
EndChar

StartChar: t
Encoding: 116 116 354
Width: 454
GlyphClass: 2
Flags: W
AnchorPoint: "Anchor-8" 244 0 basechar 0
AnchorPoint: "Anchor-7" 432 520 basechar 0
AnchorPoint: "Anchor-6" 234 520 basechar 0
AnchorPoint: "Anchor-4" 234 0 basechar 0
LayerCount: 2
Fore
SplineSet
192.5 25.5 m 128,-1,1
 161 61 161 61 161 147 c 2,2,-1
 161 477 l 1,3,-1
 30 477 l 1,4,-1
 30 520 l 1,5,-1
 161 520 l 1,6,-1
 161 710 l 1,7,-1
 211 710 l 1,8,-1
 211 520 l 1,9,-1
 403 520 l 1,10,-1
 403 477 l 1,11,-1
 211 477 l 1,12,-1
 211 153 l 2,13,14
 211 106 211 106 220 80.5 c 128,-1,15
 229 55 229 55 250 44 c 128,-1,16
 271 33 271 33 310 33 c 0,17,18
 350 33 350 33 397 47 c 1,19,-1
 406 6 l 1,20,21
 354 -10 354 -10 301 -10 c 0,22,0
 224 -10 224 -10 192.5 25.5 c 128,-1,1
EndSplineSet
EndChar

StartChar: tbar
Encoding: 359 359 355
Width: 438
GlyphClass: 2
Flags: W
AnchorPoint: "Anchor-8" 244 0 basechar 0
AnchorPoint: "Anchor-7" 432 520 basechar 0
AnchorPoint: "Anchor-6" 234 520 basechar 0
AnchorPoint: "Anchor-4" 234 0 basechar 0
LayerCount: 2
Fore
SplineSet
406 6 m 1,0,1
 354 -10 354 -10 301 -10 c 0,2,3
 224 -10 224 -10 192.5 25.5 c 128,-1,4
 161 61 161 61 161 147 c 2,5,-1
 161 228 l 1,6,-1
 29 228 l 1,7,-1
 29 272 l 1,8,-1
 161 272 l 1,9,-1
 161 477 l 1,10,-1
 30 477 l 1,11,-1
 30 520 l 1,12,-1
 161 520 l 1,13,-1
 161 710 l 1,14,-1
 211 710 l 1,15,-1
 211 520 l 1,16,-1
 403 520 l 1,17,-1
 403 477 l 1,18,-1
 211 477 l 1,19,-1
 211 272 l 1,20,-1
 389 272 l 1,21,-1
 389 228 l 1,22,-1
 211 228 l 1,23,-1
 211 153 l 2,24,25
 211 106 211 106 220 80.5 c 128,-1,26
 229 55 229 55 250 44 c 128,-1,27
 271 33 271 33 310 33 c 0,28,29
 350 33 350 33 397 47 c 1,30,-1
 406 6 l 1,0,1
EndSplineSet
EndChar

StartChar: uni0163
Encoding: 355 355 357
Width: 454
GlyphClass: 2
Flags: W
AnchorPoint: "Anchor-8" 244 0 basechar 0
AnchorPoint: "Anchor-7" 432 520 basechar 0
AnchorPoint: "Anchor-6" 234 520 basechar 0
AnchorPoint: "Anchor-4" 234 0 basechar 0
LayerCount: 2
Fore
SplineSet
401 -127 m 0,1,2
 401 -166 401 -166 368.5 -192.5 c 128,-1,3
 336 -219 336 -219 262 -219 c 0,4,5
 205 -219 205 -219 157 -198 c 1,6,-1
 168 -158 l 1,7,8
 209 -177 209 -177 259 -177 c 0,9,10
 300 -177 300 -177 327 -164 c 128,-1,11
 354 -151 354 -151 354 -121 c 0,12,13
 354 -93 354 -93 328.5 -64 c 128,-1,14
 303 -35 303 -35 255 -6 c 1,15,16
 204 3 204 3 182.5 38.5 c 128,-1,17
 161 74 161 74 161 147 c 2,18,-1
 161 477 l 1,19,-1
 30 477 l 1,20,-1
 30 520 l 1,21,-1
 161 520 l 1,22,-1
 161 710 l 1,23,-1
 211 710 l 1,24,-1
 211 520 l 1,25,-1
 403 520 l 1,26,-1
 403 477 l 1,27,-1
 211 477 l 1,28,-1
 211 153 l 2,29,30
 211 106 211 106 220 80.5 c 128,-1,31
 229 55 229 55 250 44 c 128,-1,32
 271 33 271 33 310 33 c 0,33,34
 350 33 350 33 397 47 c 1,35,-1
 406 6 l 1,36,37
 365 -6 365 -6 327 -9 c 1,38,0
 401 -66 401 -66 401 -127 c 0,1,2
EndSplineSet
Substitution2: "'locl' Localized Forms in Latin lookup 4 subtable" uni021B
Substitution2: "'aalt' Access All Alternates in Latin lookup 0 subtable" uni021B
EndChar

StartChar: u
Encoding: 117 117 359
Width: 564
GlyphClass: 2
Flags: W
AnchorPoint: "Anchor-7" 478 480 basechar 0
AnchorPoint: "Anchor-6" 282 520 basechar 0
AnchorPoint: "Anchor-5" 483 0 basechar 0
AnchorPoint: "Anchor-4" 282 0 basechar 0
LayerCount: 2
Fore
SplineSet
483 520 m 1,0,-1
 483 0 l 1,1,-1
 435 0 l 1,2,-1
 435 96 l 1,3,-1
 433 96 l 1,4,5
 404 47 404 47 352 18.5 c 128,-1,6
 300 -10 300 -10 240 -10 c 0,7,8
 159 -10 159 -10 116 44.5 c 128,-1,9
 73 99 73 99 73 200 c 2,10,-1
 73 520 l 1,11,-1
 122 520 l 1,12,-1
 122 207 l 2,13,14
 122 123 122 123 155 78 c 128,-1,15
 188 33 188 33 250 33 c 0,16,17
 300 33 300 33 342 61 c 128,-1,18
 384 89 384 89 409 136 c 128,-1,19
 434 183 434 183 434 238 c 2,20,-1
 434 520 l 1,21,-1
 483 520 l 1,0,-1
EndSplineSet
EndChar

StartChar: uhorn
Encoding: 432 432 368
Width: 605
GlyphClass: 2
Flags: W
AnchorPoint: "Anchor-7" 667 633 basechar 0
AnchorPoint: "Anchor-6" 282 520 basechar 0
AnchorPoint: "Anchor-5" 483 0 basechar 0
AnchorPoint: "Anchor-4" 282 0 basechar 0
LayerCount: 2
Fore
SplineSet
647 532 m 0,1,2
 647 478 647 478 621 448 c 128,-1,3
 595 418 595 418 548 418 c 0,4,5
 517 418 517 418 483 431 c 1,6,-1
 483 0 l 1,7,-1
 435 0 l 1,8,-1
 435 96 l 1,9,-1
 433 96 l 1,10,11
 404 47 404 47 352 18.5 c 128,-1,12
 300 -10 300 -10 240 -10 c 0,13,14
 159 -10 159 -10 116 44.5 c 128,-1,15
 73 99 73 99 73 200 c 2,16,-1
 73 520 l 1,17,-1
 122 520 l 1,18,-1
 122 207 l 2,19,20
 122 123 122 123 155 78 c 128,-1,21
 188 33 188 33 250 33 c 0,22,23
 300 33 300 33 342 61 c 128,-1,24
 384 89 384 89 409 136 c 128,-1,25
 434 183 434 183 434 238 c 2,26,-1
 434 520 l 1,27,-1
 483 520 l 1,28,-1
 483 477 l 1,29,30
 506 462 506 462 535 462 c 0,31,32
 596 462 596 462 596 536 c 0,33,34
 596 558 596 558 591 586.5 c 128,-1,35
 586 615 586 615 578 633 c 1,36,-1
 629 633 l 1,37,0
 647 582 647 582 647 532 c 0,1,2
EndSplineSet
EndChar

StartChar: uogonek
Encoding: 371 371 377
Width: 564
GlyphClass: 2
Flags: W
AnchorPoint: "Anchor-7" 478 480 basechar 0
AnchorPoint: "Anchor-6" 282 520 basechar 0
AnchorPoint: "Anchor-5" 483 0 basechar 0
AnchorPoint: "Anchor-4" 282 0 basechar 0
LayerCount: 2
Fore
SplineSet
570 -198 m 1,0,1
 522 -219 522 -219 465 -219 c 0,2,3
 391 -219 391 -219 358.5 -192.5 c 128,-1,4
 326 -166 326 -166 326 -127 c 0,5,6
 326 -90 326 -90 354.5 -53.5 c 128,-1,7
 383 -17 383 -17 435 15 c 1,8,-1
 435 96 l 1,9,-1
 433 96 l 1,10,11
 404 47 404 47 352 18.5 c 128,-1,12
 300 -10 300 -10 240 -10 c 0,13,14
 159 -10 159 -10 116 44.5 c 128,-1,15
 73 99 73 99 73 200 c 2,16,-1
 73 520 l 1,17,-1
 122 520 l 1,18,-1
 122 207 l 2,19,20
 122 123 122 123 155 78 c 128,-1,21
 188 33 188 33 250 33 c 0,22,23
 300 33 300 33 342 61 c 128,-1,24
 384 89 384 89 409 136 c 128,-1,25
 434 183 434 183 434 238 c 2,26,-1
 434 520 l 1,27,-1
 483 520 l 1,28,-1
 483 0 l 1,29,30
 430 -29 430 -29 401.5 -60.5 c 128,-1,31
 373 -92 373 -92 373 -121 c 0,32,33
 373 -151 373 -151 400 -164 c 128,-1,34
 427 -177 427 -177 468 -177 c 0,35,36
 518 -177 518 -177 559 -158 c 1,37,-1
 570 -198 l 1,0,1
EndSplineSet
EndChar

StartChar: v
Encoding: 118 118 380
Width: 501
Flags: W
LayerCount: 2
Fore
SplineSet
15 520 m 1,0,-1
 68 520 l 1,1,-1
 249 37 l 1,2,-1
 251 37 l 1,3,-1
 432 520 l 1,4,-1
 486 520 l 1,5,-1
 285 0 l 1,6,-1
 215 0 l 1,7,-1
 15 520 l 1,0,-1
EndSplineSet
EndChar

StartChar: w
Encoding: 119 119 381
Width: 762
GlyphClass: 2
Flags: W
AnchorPoint: "Anchor-6" 381 520 basechar 0
AnchorPoint: "Anchor-4" 381 0 basechar 0
LayerCount: 2
Fore
SplineSet
31 520 m 1,0,-1
 84 520 l 1,1,-1
 216 49 l 1,2,-1
 218 49 l 1,3,-1
 347 520 l 1,4,-1
 415 520 l 1,5,-1
 544 49 l 1,6,-1
 546 49 l 1,7,-1
 678 520 l 1,8,-1
 731 520 l 1,9,-1
 577 0 l 1,10,-1
 511 0 l 1,11,-1
 382 468 l 1,12,-1
 380 468 l 1,13,-1
 251 0 l 1,14,-1
 184 0 l 1,15,-1
 31 520 l 1,0,-1
EndSplineSet
EndChar

StartChar: x
Encoding: 120 120 386
Width: 522
Flags: W
LayerCount: 2
Fore
SplineSet
226 263 m 1,0,-1
 45 520 l 1,1,-1
 103 520 l 1,2,-1
 260 293 l 1,3,-1
 262 293 l 1,4,-1
 419 520 l 1,5,-1
 477 520 l 1,6,-1
 295 263 l 1,7,-1
 481 0 l 1,8,-1
 424 0 l 1,9,-1
 262 233 l 1,10,-1
 260 233 l 1,11,-1
 98 0 l 1,12,-1
 40 0 l 1,13,-1
 226 263 l 1,0,-1
EndSplineSet
EndChar

StartChar: y
Encoding: 121 121 387
Width: 508
GlyphClass: 2
Flags: W
AnchorPoint: "Anchor-0" 252 -230 basechar 0
AnchorPoint: "Anchor-3" 252 590 basechar 0
AnchorPoint: "Anchor-6" 254 520 basechar 0
AnchorPoint: "Anchor-4" 254 0 basechar 0
LayerCount: 2
Fore
SplineSet
443 520 m 1,0,-1
 493 520 l 1,1,-1
 286 1 l 2,2,3
 234 -131 234 -131 174.5 -180.5 c 128,-1,4
 115 -230 115 -230 18 -230 c 1,5,-1
 17 -189 l 1,6,7
 97 -189 97 -189 145.5 -149 c 128,-1,8
 194 -109 194 -109 238 0 c 1,9,-1
 20 520 l 1,10,-1
 72 520 l 1,11,-1
 261 57 l 1,12,-1
 263 57 l 1,13,-1
 443 520 l 1,0,-1
EndSplineSet
EndChar

StartChar: z
Encoding: 122 122 396
Width: 490
GlyphClass: 2
Flags: W
AnchorPoint: "Anchor-6" 245 520 basechar 0
AnchorPoint: "Anchor-4" 245 0 basechar 0
LayerCount: 2
Fore
SplineSet
52 43 m 1,0,-1
 376 475 l 1,1,-1
 376 477 l 1,2,-1
 52 477 l 1,3,-1
 52 520 l 1,4,-1
 438 520 l 1,5,-1
 438 477 l 1,6,-1
 114 45 l 1,7,-1
 114 43 l 1,8,-1
 438 43 l 1,9,-1
 438 0 l 1,10,-1
 52 0 l 1,11,-1
 52 43 l 1,0,-1
EndSplineSet
EndChar

StartChar: f_f
Encoding: 1114114 -1 400
Width: 762
GlyphClass: 3
Flags: W
LayerCount: 2
Fore
SplineSet
559 520 m 1,0,-1
 733 520 l 1,1,-1
 733 477 l 1,2,-1
 559 477 l 1,3,-1
 559 0 l 1,4,-1
 510 0 l 1,5,-1
 510 477 l 1,6,-1
 223 477 l 1,7,-1
 223 0 l 1,8,-1
 174 0 l 1,9,-1
 174 477 l 1,10,-1
 25 477 l 1,11,-1
 25 520 l 1,12,-1
 174 520 l 1,13,-1
 174 598 l 2,14,15
 174 681 174 681 208.5 720.5 c 128,-1,16
 243 760 243 760 315 760 c 0,17,18
 356 760 356 760 401 745 c 1,19,-1
 391 703 l 1,20,21
 357 717 357 717 320 717 c 0,22,23
 268 717 268 717 245.5 689.5 c 128,-1,24
 223 662 223 662 223 598 c 2,25,-1
 223 520 l 1,26,-1
 510 520 l 1,27,-1
 510 598 l 2,28,29
 510 680 510 680 544.5 720 c 128,-1,30
 579 760 579 760 650 760 c 0,31,32
 692 760 692 760 737 745 c 1,33,-1
 726 703 l 1,34,35
 692 717 692 717 656 717 c 0,36,37
 604 717 604 717 581.5 689.5 c 128,-1,38
 559 662 559 662 559 598 c 2,39,-1
 559 520 l 1,0,-1
EndSplineSet
Ligature2: "'liga' Standard Ligatures in Latin lookup 14 subtable" f f
EndChar

StartChar: f_f_l
Encoding: 1114116 -1 402
Width: 1133
GlyphClass: 3
Flags: W
LayerCount: 2
Fore
SplineSet
559 520 m 1,0,-1
 733 520 l 1,1,-1
 733 477 l 1,2,-1
 559 477 l 1,3,-1
 559 0 l 1,4,-1
 510 0 l 1,5,-1
 510 477 l 1,6,-1
 223 477 l 1,7,-1
 223 0 l 1,8,-1
 174 0 l 1,9,-1
 174 477 l 1,10,-1
 25 477 l 1,11,-1
 25 520 l 1,12,-1
 174 520 l 1,13,-1
 174 598 l 2,14,15
 174 680 174 680 208 720 c 0,16,17
 244 760 244 760 315 760 c 0,18,19
 356 760 356 760 401 745 c 1,20,-1
 391 703 l 1,21,22
 355 717 355 717 320 717 c 0,23,24
 267 717 267 717 246 690 c 0,25,26
 223 663 223 663 223 598 c 2,27,-1
 223 520 l 1,28,-1
 510 520 l 1,29,-1
 510 598 l 2,30,31
 510 678 510 678 544 720 c 0,32,33
 580 760 580 760 650 760 c 0,34,35
 692 760 692 760 737 745 c 1,36,-1
 726 703 l 1,37,38
 690 717 690 717 656 717 c 0,39,40
 603 717 603 717 582 690 c 0,41,42
 559 663 559 663 559 598 c 2,43,-1
 559 520 l 1,0,-1
851 750 m 1,44,-1
 899 750 l 1,45,-1
 899 153 l 2,46,47
 899 78 899 78 920 54 c 0,48,49
 942.5 30 942.5 30 1001 30 c 0,50,51
 1048 30 1048 30 1086 45 c 1,52,-1
 1096 7 l 1,53,54
 1047 -10 1047 -10 996 -10 c 0,55,56
 915 -10 915 -10 883 24 c 0,57,58
 851 61 851 61 851 147 c 2,59,-1
 851 750 l 1,44,-1
EndSplineSet
Ligature2: "'liga' Standard Ligatures in Latin lookup 14 subtable" f f l
EndChar

StartChar: fl
Encoding: 64258 64258 404
Width: 782
GlyphClass: 3
Flags: W
LayerCount: 2
Fore
SplineSet
25 477 m 1,0,-1
 25 520 l 1,1,-1
 174 520 l 1,2,-1
 174 598 l 2,3,4
 174 680 174 680 208 720 c 0,5,6
 244 760 244 760 315 760 c 0,7,8
 356 760 356 760 401 745 c 1,9,-1
 391 703 l 1,10,11
 355 717 355 717 320 717 c 0,12,13
 267 717 267 717 246 690 c 0,14,15
 223 663 223 663 223 598 c 2,16,-1
 223 520 l 1,17,-1
 398 520 l 1,18,-1
 398 477 l 1,19,-1
 223 477 l 1,20,-1
 223 0 l 1,21,-1
 174 0 l 1,22,-1
 174 477 l 1,23,-1
 25 477 l 1,0,-1
515 750 m 1,24,-1
 563 750 l 1,25,-1
 563 153 l 2,26,27
 563 78 563 78 584 54 c 0,28,29
 606.5 30 606.5 30 665 30 c 0,30,31
 712 30 712 30 750 45 c 1,32,-1
 760 7 l 1,33,34
 711 -10 711 -10 660 -10 c 0,35,36
 579 -10 579 -10 547 24 c 0,37,38
 515 61 515 61 515 147 c 2,39,-1
 515 750 l 1,24,-1
EndSplineSet
Ligature2: "'liga' Standard Ligatures in Latin lookup 14 subtable" f l
EndChar

StartChar: ordfeminine
Encoding: 170 170 405
Width: 429
Flags: W
LayerCount: 2
Fore
SplineSet
328 700.5 m 128,-1,1
 363 663 363 663 363 577 c 2,2,-1
 363 314 l 1,3,-1
 316 314 l 1,4,-1
 316 375 l 1,5,-1
 314 375 l 1,6,7
 293 344 293 344 252.5 325 c 128,-1,8
 212 306 212 306 166 306 c 0,9,10
 105 306 105 306 67 339.5 c 128,-1,11
 29 373 29 373 29 428 c 0,12,13
 29 500 29 500 93.5 538.5 c 128,-1,14
 158 577 158 577 276 577 c 2,15,-1
 315 577 l 1,16,17
 315 645 315 645 290.5 672.5 c 128,-1,18
 266 700 266 700 207 700 c 0,19,20
 130 700 130 700 56 662 c 1,21,-1
 45 699 l 1,22,23
 128 738 128 738 212 738 c 0,24,0
 293 738 293 738 328 700.5 c 128,-1,1
275.5 383 m 128,-1,26
 315 421 315 421 315 478 c 2,27,-1
 315 540 l 1,28,-1
 273 540 l 2,29,30
 175 540 175 540 123.5 512 c 128,-1,31
 72 484 72 484 72 431 c 0,32,33
 72 392 72 392 100 368.5 c 128,-1,34
 128 345 128 345 175 345 c 0,35,25
 236 345 236 345 275.5 383 c 128,-1,26
EndSplineSet
EndChar

StartChar: ordmasculine
Encoding: 186 186 406
Width: 453
Flags: W
LayerCount: 2
Fore
SplineSet
87.5 363.5 m 128,-1,1
 37 421 37 421 37 522 c 256,2,3
 37 623 37 623 87.5 680.5 c 128,-1,4
 138 738 138 738 227 738 c 256,5,6
 316 738 316 738 366.5 680.5 c 128,-1,7
 417 623 417 623 417 522 c 256,8,9
 417 421 417 421 366.5 363.5 c 128,-1,10
 316 306 316 306 227 306 c 256,11,0
 138 306 138 306 87.5 363.5 c 128,-1,1
332 392 m 128,-1,13
 369 438 369 438 369 522 c 256,14,15
 369 606 369 606 332 652 c 128,-1,16
 295 698 295 698 227 698 c 256,17,18
 159 698 159 698 121.5 652 c 128,-1,19
 84 606 84 606 84 522 c 256,20,21
 84 438 84 438 121.5 392 c 128,-1,22
 159 346 159 346 227 346 c 256,23,12
 295 346 295 346 332 392 c 128,-1,13
EndSplineSet
EndChar

StartChar: zero.lf
Encoding: 1114117 -1 417
Width: 610
Flags: W
LayerCount: 2
Fore
SplineSet
112 84.5 m 128,-1,1
 47 179 47 179 47 365 c 256,2,3
 47 551 47 551 112 645.5 c 128,-1,4
 177 740 177 740 305 740 c 256,5,6
 433 740 433 740 498 645.5 c 128,-1,7
 563 551 563 551 563 365 c 256,8,9
 563 179 563 179 498 84.5 c 128,-1,10
 433 -10 433 -10 305 -10 c 256,11,0
 177 -10 177 -10 112 84.5 c 128,-1,1
513 365 m 256,13,14
 513 694 513 694 305 694 c 256,15,16
 97 694 97 694 97 365 c 256,17,18
 97 36 97 36 305 36 c 256,19,12
 513 36 513 36 513 365 c 256,13,14
EndSplineSet
Substitution2: "'tnum' Tabular Numbers in Latin lookup 11 subtable" zero
AlternateSubs2: "'aalt' Access All Alternates in Latin lookup 1 subtable" zero
EndChar

StartChar: one.lf
Encoding: 1114118 -1 418
Width: 610
Flags: W
LayerCount: 2
Fore
SplineSet
328 664 m 1,0,-1
 326 664 l 1,1,-1
 85 439 l 1,2,-1
 59 481 l 1,3,-1
 328 730 l 1,4,-1
 379 730 l 1,5,-1
 379 0 l 1,6,-1
 328 0 l 1,7,-1
 328 664 l 1,0,-1
EndSplineSet
Substitution2: "'tnum' Tabular Numbers in Latin lookup 11 subtable" one
AlternateSubs2: "'aalt' Access All Alternates in Latin lookup 1 subtable" one
EndChar

StartChar: two.lf
Encoding: 1114119 -1 419
Width: 610
Flags: W
LayerCount: 2
Fore
SplineSet
304 259 m 128,-1,1
 387 345 387 345 423.5 409.5 c 128,-1,2
 460 474 460 474 460 533 c 0,3,4
 460 607 460 607 414 650.5 c 128,-1,5
 368 694 368 694 291 694 c 0,6,7
 240 694 240 694 185 674 c 128,-1,8
 130 654 130 654 83 618 c 1,9,-1
 62 660 l 1,10,11
 109 696 109 696 172.5 718 c 128,-1,12
 236 740 236 740 296 740 c 0,13,14
 360 740 360 740 409 714.5 c 128,-1,15
 458 689 458 689 484.5 643 c 128,-1,16
 511 597 511 597 511 537 c 0,17,18
 511 472 511 472 476 404 c 128,-1,19
 441 336 441 336 363 251.5 c 128,-1,20
 285 167 285 167 149 48 c 1,21,-1
 149 46 l 1,22,-1
 519 46 l 1,23,-1
 519 0 l 1,24,-1
 74 0 l 1,25,-1
 74 46 l 1,26,0
 221 173 221 173 304 259 c 128,-1,1
EndSplineSet
Substitution2: "'tnum' Tabular Numbers in Latin lookup 11 subtable" two
AlternateSubs2: "'aalt' Access All Alternates in Latin lookup 1 subtable" two
EndChar

StartChar: three.lf
Encoding: 1114120 -1 420
Width: 610
Flags: W
LayerCount: 2
Fore
SplineSet
74 46 m 1,1,-1
 94 86 l 1,2,3
 174 36 174 36 271 36 c 0,4,5
 369 36 369 36 420.5 82.5 c 128,-1,6
 472 129 472 129 472 218 c 0,7,8
 472 302 472 302 420 341 c 128,-1,9
 368 380 368 380 254 380 c 2,10,-1
 181 380 l 1,11,-1
 181 425 l 1,12,-1
 444 682 l 1,13,-1
 444 684 l 1,14,-1
 83 684 l 1,15,-1
 83 730 l 1,16,-1
 513 730 l 1,17,-1
 513 684 l 1,18,-1
 249 427 l 1,19,-1
 249 425 l 1,20,-1
 286 425 l 2,21,22
 523 425 523 425 523 218 c 0,23,24
 523 108 523 108 458.5 49 c 128,-1,25
 394 -10 394 -10 274 -10 c 0,26,0
 164 -10 164 -10 74 46 c 1,1,-1
EndSplineSet
Substitution2: "'tnum' Tabular Numbers in Latin lookup 11 subtable" three
AlternateSubs2: "'aalt' Access All Alternates in Latin lookup 1 subtable" three
EndChar

StartChar: four.lf
Encoding: 1114121 -1 421
Width: 610
Flags: W
LayerCount: 2
Fore
SplineSet
385 178 m 1,0,-1
 15 178 l 1,1,-1
 15 224 l 1,2,-1
 385 730 l 1,3,-1
 435 730 l 1,4,-1
 435 224 l 1,5,-1
 567 224 l 1,6,-1
 567 178 l 1,7,-1
 435 178 l 1,8,-1
 435 0 l 1,9,-1
 385 0 l 1,10,-1
 385 178 l 1,0,-1
385 224 m 1,11,-1
 385 649 l 1,12,-1
 383 649 l 1,13,-1
 75 226 l 1,14,-1
 75 224 l 1,15,-1
 385 224 l 1,11,-1
EndSplineSet
Substitution2: "'tnum' Tabular Numbers in Latin lookup 11 subtable" four
AlternateSubs2: "'aalt' Access All Alternates in Latin lookup 1 subtable" four
EndChar

StartChar: five.lf
Encoding: 1114122 -1 422
Width: 610
Flags: W
LayerCount: 2
Fore
SplineSet
171.5 3.5 m 128,-1,1
 122 17 122 17 81 43 c 1,2,-1
 99 84 l 1,3,4
 176 36 176 36 271 36 c 0,5,6
 368 36 368 36 423.5 88.5 c 128,-1,7
 479 141 479 141 479 233 c 0,8,9
 479 318 479 318 430 363 c 128,-1,10
 381 408 381 408 289 408 c 0,11,12
 246 408 246 408 213 397 c 128,-1,13
 180 386 180 386 147 360 c 1,14,-1
 101 360 l 1,15,-1
 126 730 l 1,16,-1
 499 730 l 1,17,-1
 499 684 l 1,18,-1
 172 684 l 1,19,-1
 152 413 l 1,20,-1
 154 413 l 1,21,22
 187 434 187 434 219.5 443.5 c 128,-1,23
 252 453 252 453 294 453 c 0,24,25
 407 453 407 453 468.5 396 c 128,-1,26
 530 339 530 339 530 233 c 0,27,28
 530 121 530 121 460.5 55.5 c 128,-1,29
 391 -10 391 -10 272 -10 c 0,30,0
 221 -10 221 -10 171.5 3.5 c 128,-1,1
EndSplineSet
Substitution2: "'tnum' Tabular Numbers in Latin lookup 11 subtable" five
AlternateSubs2: "'aalt' Access All Alternates in Latin lookup 1 subtable" five
EndChar

StartChar: six.lf
Encoding: 1114123 -1 423
Width: 612
Flags: W
LayerCount: 2
Fore
SplineSet
171.5 21 m 128,-1,1
 114 52 114 52 83 109.5 c 128,-1,2
 52 167 52 167 52 245 c 0,3,4
 52 384 52 384 95.5 491 c 128,-1,5
 139 598 139 598 220.5 662 c 128,-1,6
 302 726 302 726 413 739 c 1,7,-1
 423 690 l 1,8,9
 305 673 305 673 228.5 600 c 128,-1,10
 152 527 152 527 123 405 c 1,11,-1
 125 404 l 1,12,13
 194 484 194 484 316 484 c 0,14,15
 429 484 429 484 495 418 c 128,-1,16
 561 352 561 352 561 239 c 0,17,18
 561 124 561 124 492.5 57 c 128,-1,19
 424 -10 424 -10 306 -10 c 0,20,0
 229 -10 229 -10 171.5 21 c 128,-1,1
451.5 94 m 128,-1,22
 504 146 504 146 504 238 c 256,23,24
 504 330 504 330 451.5 381.5 c 128,-1,25
 399 433 399 433 306 433 c 256,26,27
 213 433 213 433 161 381.5 c 128,-1,28
 109 330 109 330 109 238 c 0,29,30
 109 148 109 148 162 95 c 128,-1,31
 215 42 215 42 306 42 c 0,32,21
 399 42 399 42 451.5 94 c 128,-1,22
EndSplineSet
Substitution2: "'tnum' Tabular Numbers in Latin lookup 11 subtable" six
AlternateSubs2: "'aalt' Access All Alternates in Latin lookup 1 subtable" six
EndChar

StartChar: seven.lf
Encoding: 1114124 -1 424
Width: 610
Flags: W
LayerCount: 2
Fore
SplineSet
482 682 m 1,1,-1
 482 684 l 1,2,-1
 74 684 l 1,3,-1
 74 730 l 1,4,-1
 538 730 l 1,5,-1
 538 687 l 1,6,7
 368 403 368 403 239 0 c 1,8,-1
 183 0 l 1,9,0
 310 388 310 388 482 682 c 1,1,-1
EndSplineSet
Substitution2: "'tnum' Tabular Numbers in Latin lookup 11 subtable" seven
AlternateSubs2: "'aalt' Access All Alternates in Latin lookup 1 subtable" seven
EndChar

StartChar: eight.lf
Encoding: 1114125 -1 425
Width: 610
Flags: W
LayerCount: 2
Fore
SplineSet
168.5 14.5 m 128,-1,1
 110 39 110 39 78.5 85 c 128,-1,2
 47 131 47 131 47 192 c 0,3,4
 47 337 47 337 233 386 c 1,5,-1
 233 388 l 1,6,7
 159 412 159 412 116.5 460.5 c 128,-1,8
 74 509 74 509 74 571 c 0,9,10
 74 648 74 648 137 694 c 128,-1,11
 200 740 200 740 305 740 c 256,12,13
 410 740 410 740 473 694 c 128,-1,14
 536 648 536 648 536 571 c 0,15,16
 536 509 536 509 494 462.5 c 128,-1,17
 452 416 452 416 377 392 c 1,18,-1
 377 390 l 1,19,20
 563 340 563 340 563 192 c 0,21,22
 563 99 563 99 493.5 44.5 c 128,-1,23
 424 -10 424 -10 305 -10 c 0,24,0
 227 -10 227 -10 168.5 14.5 c 128,-1,1
437 468 m 128,-1,26
 486 510 486 510 486 568 c 256,27,28
 486 626 486 626 437 660.5 c 128,-1,29
 388 695 388 695 305 695 c 0,30,31
 221 695 221 695 172.5 661 c 128,-1,32
 124 627 124 627 124 568 c 0,33,34
 124 510 124 510 172.5 468 c 128,-1,35
 221 426 221 426 305 412 c 1,36,25
 388 426 388 426 437 468 c 128,-1,26
457 77.5 m 128,-1,38
 513 120 513 120 513 193 c 0,39,40
 513 330 513 330 303 364 c 1,41,42
 97 328 97 328 97 193 c 0,43,44
 97 120 97 120 152.5 77.5 c 128,-1,45
 208 35 208 35 305 35 c 0,46,37
 401 35 401 35 457 77.5 c 128,-1,38
EndSplineSet
Substitution2: "'tnum' Tabular Numbers in Latin lookup 11 subtable" eight
AlternateSubs2: "'aalt' Access All Alternates in Latin lookup 1 subtable" eight
EndChar

StartChar: nine.lf
Encoding: 1114126 -1 426
Width: 603
Flags: W
LayerCount: 2
Fore
SplineSet
431.5 709 m 128,-1,1
 489 678 489 678 520 620.5 c 128,-1,2
 551 563 551 563 551 485 c 0,3,4
 551 346 551 346 507.5 239 c 128,-1,5
 464 132 464 132 383 68 c 128,-1,6
 302 4 302 4 191 -9 c 1,7,-1
 180 40 l 1,8,9
 298 57 298 57 374.5 130 c 128,-1,10
 451 203 451 203 481 325 c 1,11,-1
 479 326 l 1,12,13
 410 246 410 246 287 246 c 0,14,15
 174 246 174 246 108.5 312 c 128,-1,16
 43 378 43 378 43 491 c 0,17,18
 43 606 43 606 111 673 c 128,-1,19
 179 740 179 740 297 740 c 0,20,0
 374 740 374 740 431.5 709 c 128,-1,1
151.5 636 m 128,-1,22
 99 584 99 584 99 492 c 256,23,24
 99 400 99 400 151.5 348.5 c 128,-1,25
 204 297 204 297 297 297 c 256,26,27
 390 297 390 297 442 348.5 c 128,-1,28
 494 400 494 400 494 492 c 0,29,30
 494 582 494 582 441 635 c 128,-1,31
 388 688 388 688 297 688 c 0,32,21
 204 688 204 688 151.5 636 c 128,-1,22
EndSplineSet
Substitution2: "'tnum' Tabular Numbers in Latin lookup 11 subtable" nine
AlternateSubs2: "'aalt' Access All Alternates in Latin lookup 1 subtable" nine
EndChar

StartChar: uni2070
Encoding: 8304 8304 427
Width: 367
Flags: W
LayerCount: 2
Fore
SplineSet
67 342.5 m 128,-1,1
 28 399 28 399 28 511 c 256,2,3
 28 623 28 623 67 679.5 c 128,-1,4
 106 736 106 736 183 736 c 0,5,6
 338 736 338 736 338 511 c 256,7,8
 338 286 338 286 183 286 c 0,9,0
 106 286 106 286 67 342.5 c 128,-1,1
292 511 m 256,11,12
 292 693 292 693 183 693 c 0,13,14
 75 693 75 693 75 511 c 256,15,16
 75 329 75 329 183 329 c 0,17,10
 292 329 292 329 292 511 c 256,11,12
EndSplineSet
EndChar

StartChar: uni00B9
Encoding: 185 185 428
Width: 360
Flags: W
LayerCount: 2
Fore
SplineSet
180 669 m 1,0,-1
 178 669 l 1,1,-1
 45 543 l 1,2,-1
 19 580 l 1,3,-1
 180 730 l 1,4,-1
 227 730 l 1,5,-1
 227 292 l 1,6,-1
 180 292 l 1,7,-1
 180 669 l 1,0,-1
EndSplineSet
EndChar

StartChar: uni00B2
Encoding: 178 178 429
Width: 367
Flags: W
LayerCount: 2
Fore
SplineSet
177.5 458 m 128,-1,1
 223 504 223 504 241.5 536.5 c 128,-1,2
 260 569 260 569 260 601 c 0,3,4
 260 643 260 643 234 668 c 128,-1,5
 208 693 208 693 164 693 c 0,6,7
 135 693 135 693 104.5 681.5 c 128,-1,8
 74 670 74 670 48 648 c 1,9,-1
 32 688 l 1,10,11
 60 710 60 710 98 723 c 128,-1,12
 136 736 136 736 174 736 c 0,13,14
 235 736 235 736 270.5 702 c 128,-1,15
 306 668 306 668 306 609 c 0,16,17
 306 571 306 571 288.5 534 c 128,-1,18
 271 497 271 497 229.5 450.5 c 128,-1,19
 188 404 188 404 113 337 c 1,20,-1
 113 335 l 1,21,-1
 311 335 l 1,22,-1
 311 292 l 1,23,-1
 44 292 l 1,24,-1
 44 335 l 1,25,0
 132 412 132 412 177.5 458 c 128,-1,1
EndSplineSet
EndChar

StartChar: uni00B3
Encoding: 179 179 430
Width: 367
Flags: W
LayerCount: 2
Fore
SplineSet
40 317 m 1,1,-1
 53 356 l 1,2,3
 100 329 100 329 153 329 c 256,4,5
 206 329 206 329 234 353.5 c 128,-1,6
 262 378 262 378 262 424 c 0,7,8
 262 468 262 468 234 488 c 128,-1,9
 206 508 206 508 145 508 c 2,10,-1
 104 508 l 1,11,-1
 104 553 l 1,12,-1
 240 685 l 1,13,-1
 240 687 l 1,14,-1
 44 687 l 1,15,-1
 44 730 l 1,16,-1
 302 730 l 1,17,-1
 302 687 l 1,18,-1
 158 547 l 1,19,-1
 158 545 l 1,20,-1
 173 545 l 2,21,22
 308 544 308 544 308 423 c 0,23,24
 308 358 308 358 269.5 322 c 128,-1,25
 231 286 231 286 160 286 c 0,26,0
 95 286 95 286 40 317 c 1,1,-1
EndSplineSet
EndChar

StartChar: uni2074
Encoding: 8308 8308 431
Width: 367
Flags: W
LayerCount: 2
Fore
SplineSet
216 391 m 1,0,-1
 3 391 l 1,1,-1
 3 434 l 1,2,-1
 218 730 l 1,3,-1
 263 730 l 1,4,-1
 263 434 l 1,5,-1
 334 434 l 1,6,-1
 334 391 l 1,7,-1
 263 391 l 1,8,-1
 263 292 l 1,9,-1
 216 292 l 1,10,-1
 216 391 l 1,0,-1
218 432 m 1,11,-1
 218 661 l 1,12,-1
 216 661 l 1,13,-1
 52 434 l 1,14,-1
 52 432 l 1,15,-1
 218 432 l 1,11,-1
EndSplineSet
EndChar

StartChar: fraction
Encoding: 8260 8260 432
Width: 498
Flags: W
LayerCount: 2
Fore
SplineSet
431 730 m 1,0,-1
 481 730 l 1,1,-1
 67 0 l 1,2,-1
 17 0 l 1,3,-1
 431 730 l 1,0,-1
EndSplineSet
EndChar

StartChar: onehalf
Encoding: 189 189 433
Width: 835
Flags: W
LayerCount: 2
Fore
SplineSet
192 669 m 1,0,-1
 59 543 l 1,1,-1
 33 580 l 1,2,-1
 194 730 l 1,3,-1
 242 730 l 1,4,-1
 242 292 l 1,5,-1
 194 292 l 1,6,-1
 194 669 l 1,7,-1
 192 669 l 1,0,-1
595 730 m 1,8,-1
 645 730 l 1,9,-1
 231 0 l 1,10,-1
 181 0 l 1,11,-1
 595 730 l 1,8,-1
638 165.5 m 128,-1,13
 683 212 683 212 701.5 244.5 c 128,-1,14
 720 277 720 277 720 309 c 0,15,16
 720 351 720 351 694.5 376 c 128,-1,17
 669 401 669 401 625 401 c 0,18,19
 595 401 595 401 564.5 389.5 c 128,-1,20
 534 378 534 378 509 356 c 1,21,-1
 493 396 l 1,22,23
 520 418 520 418 558.5 431 c 128,-1,24
 597 444 597 444 634 444 c 0,25,26
 696 444 696 444 731.5 410 c 128,-1,27
 767 376 767 376 767 317 c 0,28,29
 767 279 767 279 749.5 242 c 128,-1,30
 732 205 732 205 690.5 158.5 c 128,-1,31
 649 112 649 112 574 45 c 1,32,-1
 574 43 l 1,33,-1
 772 43 l 1,34,-1
 772 0 l 1,35,-1
 505 0 l 1,36,-1
 505 43 l 1,37,12
 593 119 593 119 638 165.5 c 128,-1,13
EndSplineSet
Ligature2: "'frac' Diagonal Fractions in Latin lookup 7 subtable" one slash two
EndChar

StartChar: onequarter
Encoding: 188 188 434
Width: 797
Flags: W
LayerCount: 2
Fore
SplineSet
192 669 m 1,0,-1
 59 543 l 1,1,-1
 33 580 l 1,2,-1
 194 730 l 1,3,-1
 242 730 l 1,4,-1
 242 292 l 1,5,-1
 194 292 l 1,6,-1
 194 669 l 1,7,-1
 192 669 l 1,0,-1
595 730 m 1,8,-1
 645 730 l 1,9,-1
 231 0 l 1,10,-1
 181 0 l 1,11,-1
 595 730 l 1,8,-1
421 99 m 1,12,-1
 421 142 l 1,13,-1
 636 438 l 1,14,-1
 681 438 l 1,15,-1
 681 142 l 1,16,-1
 752 142 l 1,17,-1
 752 99 l 1,18,-1
 681 99 l 1,19,-1
 681 0 l 1,20,-1
 635 0 l 1,21,-1
 635 99 l 1,22,-1
 421 99 l 1,12,-1
636 369 m 1,23,-1
 634 369 l 1,24,-1
 470 142 l 1,25,-1
 470 140 l 1,26,-1
 636 140 l 1,27,-1
 636 369 l 1,23,-1
EndSplineSet
Ligature2: "'frac' Diagonal Fractions in Latin lookup 7 subtable" one slash four
EndChar

StartChar: threequarters
Encoding: 190 190 435
Width: 780
Flags: W
LayerCount: 2
Fore
SplineSet
45 317 m 1,1,-1
 58 356 l 1,2,3
 105 329 105 329 158 329 c 256,4,5
 211 329 211 329 239 353.5 c 128,-1,6
 267 378 267 378 267 424 c 0,7,8
 267 468 267 468 239.5 488 c 128,-1,9
 212 508 212 508 151 508 c 2,10,-1
 109 508 l 1,11,-1
 109 553 l 1,12,-1
 245 685 l 1,13,-1
 245 687 l 1,14,-1
 50 687 l 1,15,-1
 50 730 l 1,16,-1
 308 730 l 1,17,-1
 308 687 l 1,18,-1
 164 547 l 1,19,-1
 164 545 l 1,20,-1
 178 545 l 2,21,22
 314 544 314 544 314 423 c 0,23,24
 314 358 314 358 275 322 c 128,-1,25
 236 286 236 286 166 286 c 0,26,0
 101 286 101 286 45 317 c 1,1,-1
577 730 m 1,27,-1
 627 730 l 1,28,-1
 213 0 l 1,29,-1
 163 0 l 1,30,-1
 577 730 l 1,27,-1
404 99 m 1,31,-1
 404 142 l 1,32,-1
 619 438 l 1,33,-1
 664 438 l 1,34,-1
 664 142 l 1,35,-1
 734 142 l 1,36,-1
 734 99 l 1,37,-1
 664 99 l 1,38,-1
 664 0 l 1,39,-1
 617 0 l 1,40,-1
 617 99 l 1,41,-1
 404 99 l 1,31,-1
619 369 m 1,42,-1
 617 369 l 1,43,-1
 453 142 l 1,44,-1
 453 140 l 1,45,-1
 619 140 l 1,46,-1
 619 369 l 1,42,-1
EndSplineSet
Ligature2: "'frac' Diagonal Fractions in Latin lookup 7 subtable" three slash four
EndChar

StartChar: period
Encoding: 46 46 436
Width: 317
Flags: W
LayerCount: 2
Fore
SplineSet
99 83 m 1,0,-1
 182 83 l 1,1,-1
 182 0 l 1,2,-1
 99 0 l 1,3,-1
 99 83 l 1,0,-1
EndSplineSet
EndChar

StartChar: comma
Encoding: 44 44 437
Width: 317
Flags: W
LayerCount: 2
Fore
SplineSet
126 130 m 1,0,-1
 184 130 l 1,1,-1
 78 -170 l 1,2,-1
 30 -170 l 1,3,-1
 126 130 l 1,0,-1
EndSplineSet
EndChar

StartChar: colon
Encoding: 58 58 438
Width: 317
Flags: W
LayerCount: 2
Fore
SplineSet
99 520 m 1,0,-1
 182 520 l 1,1,-1
 182 437 l 1,2,-1
 99 437 l 1,3,-1
 99 520 l 1,0,-1
99 83 m 1,4,-1
 182 83 l 1,5,-1
 182 0 l 1,6,-1
 99 0 l 1,7,-1
 99 83 l 1,4,-1
EndSplineSet
Substitution2: "'aalt' Access All Alternates in Latin lookup 0 subtable" uniFF1A
EndChar

StartChar: semicolon
Encoding: 59 59 439
Width: 317
Flags: W
LayerCount: 2
Fore
SplineSet
114 520 m 1,0,-1
 197 520 l 1,1,-1
 197 437 l 1,2,-1
 114 437 l 1,3,-1
 114 520 l 1,0,-1
134 130 m 1,4,-1
 191 130 l 1,5,-1
 80 -170 l 1,6,-1
 33 -170 l 1,7,-1
 134 130 l 1,4,-1
EndSplineSet
EndChar

StartChar: exclam
Encoding: 33 33 441
Width: 282
Flags: W
LayerCount: 2
Fore
SplineSet
113 730 m 1,0,-1
 169 730 l 1,1,-1
 164 198 l 1,2,-1
 118 198 l 1,3,-1
 113 730 l 1,0,-1
99 83 m 1,4,-1
 182 83 l 1,5,-1
 182 0 l 1,6,-1
 99 0 l 1,7,-1
 99 83 l 1,4,-1
EndSplineSet
Substitution2: "'aalt' Access All Alternates in Latin lookup 0 subtable" uniFF01
EndChar

StartChar: exclamdown
Encoding: 161 161 442
Width: 282
Flags: W
LayerCount: 2
Fore
SplineSet
99 520 m 1,0,-1
 182 520 l 1,1,-1
 182 437 l 1,2,-1
 99 437 l 1,3,-1
 99 520 l 1,0,-1
118 322 m 1,4,-1
 164 322 l 1,5,-1
 169 -210 l 1,6,-1
 113 -210 l 1,7,-1
 118 322 l 1,4,-1
EndSplineSet
EndChar

StartChar: question
Encoding: 63 63 443
Width: 544
Flags: W
LayerCount: 2
Fore
SplineSet
222.5 317.5 m 128,-1,1
 255 367 255 367 339 422 c 0,2,3
 404 466 404 466 431.5 501.5 c 128,-1,4
 459 537 459 537 459 580 c 0,5,6
 459 638 459 638 410.5 666 c 128,-1,7
 362 694 362 694 260 694 c 0,8,9
 152 694 152 694 44 659 c 1,10,-1
 32 703 l 1,11,12
 141 740 141 740 265 740 c 0,13,14
 510 740 510 740 510 585 c 0,15,16
 510 530 510 530 479 486.5 c 128,-1,17
 448 443 448 443 374 395 c 0,18,19
 298 345 298 345 269 302 c 128,-1,20
 240 259 240 259 240 198 c 1,21,-1
 190 198 l 1,22,0
 190 268 190 268 222.5 317.5 c 128,-1,1
173 83 m 1,23,-1
 256 83 l 1,24,-1
 256 0 l 1,25,-1
 173 0 l 1,26,-1
 173 83 l 1,23,-1
EndSplineSet
Substitution2: "'aalt' Access All Alternates in Latin lookup 0 subtable" uniFF1F
EndChar

StartChar: questiondown
Encoding: 191 191 444
Width: 544
Flags: W
LayerCount: 2
Fore
SplineSet
287 437 m 1,0,-1
 287 520 l 1,1,-1
 370 520 l 1,2,-1
 370 437 l 1,3,-1
 287 437 l 1,0,-1
320.5 202.5 m 128,-1,5
 288 153 288 153 205 98 c 0,6,7
 140 54 140 54 112.5 18.5 c 128,-1,8
 85 -17 85 -17 85 -60 c 0,9,10
 85 -118 85 -118 133.5 -146 c 128,-1,11
 182 -174 182 -174 284 -174 c 0,12,13
 392 -174 392 -174 500 -139 c 1,14,-1
 512 -183 l 1,15,16
 403 -220 403 -220 279 -220 c 256,17,18
 155 -220 155 -220 94.5 -181.5 c 128,-1,19
 34 -143 34 -143 34 -65 c 0,20,21
 34 -10 34 -10 65 33.5 c 128,-1,22
 96 77 96 77 169 125 c 0,23,24
 245 175 245 175 274 218 c 128,-1,25
 303 261 303 261 304 322 c 1,26,-1
 353 322 l 1,27,4
 353 252 353 252 320.5 202.5 c 128,-1,5
EndSplineSet
EndChar

StartChar: bullet
Encoding: 8226 8226 446
Width: 270
Flags: W
LayerCount: 2
Fore
SplineSet
95.5 250.5 m 128,-1,1
 79 267 79 267 79 290 c 256,2,3
 79 313 79 313 95.5 329.5 c 128,-1,4
 112 346 112 346 135 346 c 256,5,6
 158 346 158 346 174.5 329.5 c 128,-1,7
 191 313 191 313 191 290 c 256,8,9
 191 267 191 267 174.5 250.5 c 128,-1,10
 158 234 158 234 135 234 c 256,11,0
 112 234 112 234 95.5 250.5 c 128,-1,1
EndSplineSet
EndChar

StartChar: asterisk
Encoding: 42 42 447
Width: 494
Flags: W
LayerCount: 2
Fore
SplineSet
102 378 m 1,0,-1
 212 527 l 1,1,-1
 36 583 l 1,2,-1
 49 626 l 1,3,-1
 226 568 l 1,4,-1
 225 753 l 1,5,-1
 269 753 l 1,6,-1
 268 568 l 1,7,-1
 445 626 l 1,8,-1
 458 583 l 1,9,-1
 281 527 l 1,10,-1
 391 378 l 1,11,-1
 355 351 l 1,12,-1
 247 502 l 1,13,-1
 139 351 l 1,14,-1
 102 378 l 1,0,-1
EndSplineSet
EndChar

StartChar: numbersign
Encoding: 35 35 448
Width: 657
Flags: W
LayerCount: 2
Fore
SplineSet
612 502 m 1,0,-1
 487 502 l 1,1,-1
 442 248 l 1,2,-1
 559 248 l 1,3,-1
 559 203 l 1,4,-1
 434 203 l 1,5,-1
 398 0 l 1,6,-1
 350 0 l 1,7,-1
 386 203 l 1,8,-1
 210 203 l 1,9,-1
 175 0 l 1,10,-1
 127 0 l 1,11,-1
 163 203 l 1,12,-1
 45 203 l 1,13,-1
 45 248 l 1,14,-1
 171 248 l 1,15,-1
 216 502 l 1,16,-1
 98 502 l 1,17,-1
 98 547 l 1,18,-1
 224 547 l 1,19,-1
 256 730 l 1,20,-1
 304 730 l 1,21,-1
 271 547 l 1,22,-1
 447 547 l 1,23,-1
 479 730 l 1,24,-1
 527 730 l 1,25,-1
 495 547 l 1,26,-1
 612 547 l 1,27,-1
 612 502 l 1,0,-1
394 248 m 1,28,-1
 439 502 l 1,29,-1
 264 502 l 1,30,-1
 219 248 l 1,31,-1
 394 248 l 1,28,-1
EndSplineSet
EndChar

StartChar: slash
Encoding: 47 47 449
Width: 428
Flags: W
LayerCount: 2
Fore
SplineSet
360 750 m 1,0,-1
 411 750 l 1,1,-1
 68 -40 l 1,2,-1
 17 -40 l 1,3,-1
 360 750 l 1,0,-1
EndSplineSet
EndChar

StartChar: backslash
Encoding: 92 92 450
Width: 428
Flags: W
LayerCount: 2
Fore
SplineSet
411 -40 m 1,0,-1
 360 -40 l 1,1,-1
 17 750 l 1,2,-1
 68 750 l 1,3,-1
 411 -40 l 1,0,-1
EndSplineSet
EndChar

StartChar: parenleft
Encoding: 40 40 451
Width: 338
Flags: W
LayerCount: 2
Fore
SplineSet
90 330 m 0,1,2
 90 579 90 579 227 770 c 1,3,-1
 279 770 l 1,4,5
 208 671 208 671 174.5 563.5 c 128,-1,6
 141 456 141 456 141 330 c 256,7,8
 141 204 141 204 174.5 96.5 c 128,-1,9
 208 -11 208 -11 279 -110 c 1,10,-1
 227 -110 l 1,11,0
 90 82 90 82 90 330 c 0,1,2
EndSplineSet
Substitution2: "'aalt' Access All Alternates in Latin lookup 0 subtable" uniFF08
EndChar

StartChar: parenright
Encoding: 41 41 452
Width: 338
Flags: W
LayerCount: 2
Fore
SplineSet
59 -110 m 1,0,1
 130 -11 130 -11 163.5 96.5 c 128,-1,2
 197 204 197 204 197 330 c 256,3,4
 197 456 197 456 163.5 563.5 c 128,-1,5
 130 671 130 671 59 770 c 1,6,-1
 111 770 l 1,7,8
 248 579 248 579 248 330 c 0,9,10
 248 82 248 82 111 -110 c 1,11,-1
 59 -110 l 1,0,1
EndSplineSet
Substitution2: "'aalt' Access All Alternates in Latin lookup 0 subtable" uniFF09
EndChar

StartChar: braceleft
Encoding: 123 123 453
Width: 464
Flags: W
LayerCount: 2
Fore
SplineSet
217.5 -75.5 m 128,-1,1
 187 -41 187 -41 187 35 c 2,2,-1
 187 180 l 2,3,4
 187 239 187 239 165 273 c 128,-1,5
 143 307 143 307 105 307 c 2,6,-1
 57 307 l 1,7,-1
 57 353 l 1,8,-1
 105 353 l 2,9,10
 143 353 143 353 165 387 c 128,-1,11
 187 421 187 421 187 480 c 2,12,-1
 187 625 l 2,13,14
 187 701 187 701 217.5 735.5 c 128,-1,15
 248 770 248 770 315 770 c 2,16,-1
 403 770 l 1,17,-1
 403 725 l 1,18,-1
 333 725 l 2,19,20
 277 725 277 725 256 700 c 128,-1,21
 235 675 235 675 235 610 c 2,22,-1
 235 476 l 2,23,24
 235 421 235 421 217 384.5 c 128,-1,25
 199 348 199 348 164 331 c 1,26,-1
 164 329 l 1,27,28
 199 312 199 312 217 275.5 c 128,-1,29
 235 239 235 239 235 184 c 2,30,-1
 235 50 l 2,31,32
 235 -15 235 -15 256 -40 c 128,-1,33
 277 -65 277 -65 333 -65 c 2,34,-1
 403 -65 l 1,35,-1
 403 -110 l 1,36,-1
 315 -110 l 2,37,0
 248 -110 248 -110 217.5 -75.5 c 128,-1,1
EndSplineSet
EndChar

StartChar: braceright
Encoding: 125 125 454
Width: 464
Flags: W
LayerCount: 2
Fore
SplineSet
60 -110 m 1,0,-1
 60 -65 l 1,1,-1
 130 -65 l 2,2,3
 186 -65 186 -65 207.5 -40 c 128,-1,4
 229 -15 229 -15 229 50 c 2,5,-1
 229 184 l 2,6,7
 229 296 229 296 300 329 c 1,8,-1
 300 331 l 1,9,10
 229 364 229 364 229 476 c 2,11,-1
 229 610 l 2,12,13
 229 675 229 675 207.5 700 c 128,-1,14
 186 725 186 725 130 725 c 2,15,-1
 60 725 l 1,16,-1
 60 770 l 1,17,-1
 149 770 l 2,18,19
 216 770 216 770 246.5 735.5 c 128,-1,20
 277 701 277 701 277 625 c 2,21,-1
 277 480 l 2,22,23
 277 421 277 421 299 387 c 128,-1,24
 321 353 321 353 359 353 c 2,25,-1
 407 353 l 1,26,-1
 407 307 l 1,27,-1
 359 307 l 2,28,29
 321 307 321 307 299 273 c 128,-1,30
 277 239 277 239 277 180 c 2,31,-1
 277 35 l 2,32,33
 277 -41 277 -41 246.5 -75.5 c 128,-1,34
 216 -110 216 -110 149 -110 c 2,35,-1
 60 -110 l 1,0,-1
EndSplineSet
EndChar

StartChar: bracketleft
Encoding: 91 91 455
Width: 401
Flags: W
LayerCount: 2
Fore
SplineSet
99 770 m 1,0,-1
 351 770 l 1,1,-1
 351 725 l 1,2,-1
 147 725 l 1,3,-1
 147 -65 l 1,4,-1
 351 -65 l 1,5,-1
 351 -110 l 1,6,-1
 99 -110 l 1,7,-1
 99 770 l 1,0,-1
EndSplineSet
EndChar

StartChar: bracketright
Encoding: 93 93 456
Width: 401
Flags: W
LayerCount: 2
Fore
SplineSet
301 -110 m 1,0,-1
 50 -110 l 1,1,-1
 50 -65 l 1,2,-1
 253 -65 l 1,3,-1
 253 725 l 1,4,-1
 50 725 l 1,5,-1
 50 770 l 1,6,-1
 301 770 l 1,7,-1
 301 -110 l 1,0,-1
EndSplineSet
EndChar

StartChar: hyphen
Encoding: 45 45 457
Width: 397
Flags: W
LayerCount: 2
Fore
SplineSet
57 313 m 1,0,-1
 340 313 l 1,1,-1
 340 267 l 1,2,-1
 57 267 l 1,3,-1
 57 313 l 1,0,-1
EndSplineSet
EndChar

StartChar: endash
Encoding: 8211 8211 459
Width: 500
Flags: W
LayerCount: 2
Fore
SplineSet
0 313 m 1,0,-1
 500 313 l 1,1,-1
 500 267 l 1,2,-1
 0 267 l 1,3,-1
 0 313 l 1,0,-1
EndSplineSet
EndChar

StartChar: emdash
Encoding: 8212 8212 460
Width: 1000
Flags: W
LayerCount: 2
Fore
SplineSet
0 313 m 1,0,-1
 1000 313 l 1,1,-1
 1000 267 l 1,2,-1
 0 267 l 1,3,-1
 0 313 l 1,0,-1
EndSplineSet
EndChar

StartChar: uni2015
Encoding: 8213 8213 461
Width: 1000
Flags: W
LayerCount: 2
Fore
SplineSet
50 383 m 1,0,-1
 950 383 l 1,1,-1
 950 337 l 1,2,-1
 50 337 l 1,3,-1
 50 383 l 1,0,-1
EndSplineSet
EndChar

StartChar: underscore
Encoding: 95 95 462
Width: 573
Flags: W
LayerCount: 2
Fore
SplineSet
0 -87 m 1,0,-1
 573 -87 l 1,1,-1
 573 -128 l 1,2,-1
 0 -128 l 1,3,-1
 0 -87 l 1,0,-1
EndSplineSet
EndChar

StartChar: quoteleft
Encoding: 8216 8216 467
Width: 231
Flags: W
LayerCount: 2
Fore
SplineSet
98 470 m 1,0,-1
 40 470 l 1,1,-1
 151 770 l 1,2,-1
 199 770 l 1,3,-1
 98 470 l 1,0,-1
EndSplineSet
EndChar

StartChar: quoteright
Encoding: 8217 8217 468
Width: 231
Flags: W
LayerCount: 2
Fore
SplineSet
146 770 m 1,0,-1
 204 770 l 1,1,-1
 93 470 l 1,2,-1
 45 470 l 1,3,-1
 146 770 l 1,0,-1
EndSplineSet
EndChar

StartChar: guillemotleft
Encoding: 171 171 469
Width: 426
Flags: W
LayerCount: 2
Fore
SplineSet
15 290 m 1,0,-1
 170 520 l 1,1,-1
 219 520 l 1,2,-1
 63 290 l 1,3,-1
 219 60 l 1,4,-1
 170 60 l 1,5,-1
 15 290 l 1,0,-1
181 290 m 1,6,-1
 336 520 l 1,7,-1
 386 520 l 1,8,-1
 230 290 l 1,9,-1
 386 60 l 1,10,-1
 336 60 l 1,11,-1
 181 290 l 1,6,-1
EndSplineSet
EndChar

StartChar: guillemotright
Encoding: 187 187 470
Width: 426
Flags: W
LayerCount: 2
Fore
SplineSet
90 60 m 1,0,-1
 40 60 l 1,1,-1
 196 290 l 1,2,-1
 40 520 l 1,3,-1
 90 520 l 1,4,-1
 245 290 l 1,5,-1
 90 60 l 1,0,-1
256 60 m 1,6,-1
 207 60 l 1,7,-1
 363 290 l 1,8,-1
 207 520 l 1,9,-1
 256 520 l 1,10,-1
 411 290 l 1,11,-1
 256 60 l 1,6,-1
EndSplineSet
EndChar

StartChar: guilsinglleft
Encoding: 8249 8249 471
Width: 261
Flags: W
LayerCount: 2
Fore
SplineSet
15 290 m 1,0,-1
 171 520 l 1,1,-1
 221 520 l 1,2,-1
 64 290 l 1,3,-1
 221 60 l 1,4,-1
 171 60 l 1,5,-1
 15 290 l 1,0,-1
EndSplineSet
EndChar

StartChar: guilsinglright
Encoding: 8250 8250 472
Width: 261
Flags: W
LayerCount: 2
Fore
SplineSet
90 60 m 1,0,-1
 40 60 l 1,1,-1
 197 290 l 1,2,-1
 40 520 l 1,3,-1
 90 520 l 1,4,-1
 246 290 l 1,5,-1
 90 60 l 1,0,-1
EndSplineSet
EndChar

StartChar: quotedbl
Encoding: 34 34 473
Width: 425
Flags: W
LayerCount: 2
Fore
SplineSet
90 770 m 1,0,-1
 145 770 l 1,1,-1
 141 470 l 1,2,-1
 95 470 l 1,3,-1
 90 770 l 1,0,-1
280 770 m 1,4,-1
 336 770 l 1,5,-1
 331 470 l 1,6,-1
 285 470 l 1,7,-1
 280 770 l 1,4,-1
EndSplineSet
EndChar

StartChar: quotesingle
Encoding: 39 39 474
Width: 236
Flags: W
LayerCount: 2
Fore
SplineSet
90 770 m 1,0,-1
 146 770 l 1,1,-1
 141 470 l 1,2,-1
 95 470 l 1,3,-1
 90 770 l 1,0,-1
EndSplineSet
EndChar

StartChar: uni20B5
Encoding: 8373 8373 476
Width: 700
Flags: W
LayerCount: 2
Fore
SplineSet
646 55 m 1,0,1
 553 -4 553 -4 434 -9 c 1,2,-1
 434 -105 l 1,3,-1
 389 -105 l 1,4,-1
 389 -10 l 1,5,6
 284 -5 284 -5 206.5 42 c 128,-1,7
 129 89 129 89 87 172 c 128,-1,8
 45 255 45 255 45 365 c 256,9,10
 45 475 45 475 87 558 c 128,-1,11
 129 641 129 641 206.5 688 c 128,-1,12
 284 735 284 735 389 740 c 1,13,-1
 389 835 l 1,14,-1
 434 835 l 1,15,-1
 434 739 l 1,16,17
 553 734 553 734 646 675 c 1,18,-1
 623 634 l 1,19,20
 536 689 536 689 434 693 c 1,21,-1
 434 37 l 1,22,23
 536 41 536 41 623 96 c 1,24,-1
 646 55 l 1,0,1
130 196.5 m 128,-1,26
 166 124 166 124 232.5 82.5 c 128,-1,27
 299 41 299 41 389 37 c 1,28,-1
 389 693 l 1,29,30
 299 689 299 689 232.5 647.5 c 128,-1,31
 166 606 166 606 130 533.5 c 128,-1,32
 94 461 94 461 94 365 c 256,33,25
 94 269 94 269 130 196.5 c 128,-1,26
EndSplineSet
EndChar

StartChar: cent
Encoding: 162 162 477
Width: 530
Flags: W
LayerCount: 2
Fore
SplineSet
459 26 m 1,0,1
 398 -6 398 -6 329 -9 c 1,2,-1
 329 -105 l 1,3,-1
 289 -105 l 1,4,-1
 289 -10 l 1,5,6
 172 -5 172 -5 106.5 66.5 c 128,-1,7
 41 138 41 138 41 260 c 256,8,9
 41 382 41 382 106.5 453.5 c 128,-1,10
 172 525 172 525 289 530 c 1,11,-1
 289 625 l 1,12,-1
 329 625 l 1,13,-1
 329 529 l 1,14,15
 398 526 398 526 459 494 c 1,16,-1
 445 454 l 1,17,18
 385 483 385 483 329 486 c 1,19,-1
 329 34 l 1,20,21
 385 37 385 37 445 66 c 1,22,-1
 459 26 l 1,0,1
141.5 98.5 m 128,-1,24
 194 39 194 39 289 34 c 1,25,-1
 289 486 l 1,26,27
 194 481 194 481 141.5 421.5 c 128,-1,28
 89 362 89 362 89 260 c 256,29,23
 89 158 89 158 141.5 98.5 c 128,-1,24
EndSplineSet
EndChar

StartChar: colonmonetary
Encoding: 8353 8353 478
Width: 700
Flags: W
LayerCount: 2
Fore
SplineSet
646 55 m 1,0,1
 566 4 566 4 464 -7 c 1,2,-1
 456 -105 l 1,3,-1
 413 -105 l 1,4,-1
 421 -10 l 1,5,-1
 411 -10 l 2,6,7
 349 -10 349 -10 295 5 c 1,8,-1
 286 -105 l 1,9,-1
 243 -105 l 1,10,-1
 254 19 l 1,11,12
 154 59 154 59 99.5 149 c 128,-1,13
 45 239 45 239 45 365 c 0,14,15
 45 510 45 510 116.5 606 c 128,-1,16
 188 702 188 702 314 730 c 1,17,-1
 323 835 l 1,18,-1
 366 835 l 1,19,-1
 358 737 l 1,20,21
 384 740 384 740 411 740 c 0,22,23
 446 740 446 740 484 735 c 1,24,-1
 493 835 l 1,25,-1
 536 835 l 1,26,-1
 527 726 l 1,27,28
 592 709 592 709 646 675 c 1,29,-1
 623 634 l 1,30,31
 577 663 577 663 523 679 c 1,32,-1
 468 40 l 1,33,34
 549 50 549 50 623 96 c 1,35,-1
 646 55 l 1,0,1
425 36 m 1,36,-1
 481 688 l 1,37,38
 447 694 447 694 412 694 c 0,39,40
 378 694 378 694 354 690 c 1,41,-1
 299 52 l 1,42,43
 353 36 353 36 412 36 c 2,44,-1
 425 36 l 1,36,-1
136.5 182.5 m 128,-1,46
 179 106 179 106 258 68 c 1,47,-1
 310 681 l 1,48,49
 208 652 208 652 151 569.5 c 128,-1,50
 94 487 94 487 94 365 c 0,51,45
 94 259 94 259 136.5 182.5 c 128,-1,46
EndSplineSet
EndChar

StartChar: currency
Encoding: 164 164 479
Width: 684
Flags: W
LayerCount: 2
Fore
SplineSet
554.5 288.5 m 128,-1,1
 541 252 541 252 517 223 c 1,2,-1
 613 127 l 1,3,-1
 580 94 l 1,4,-1
 484 190 l 1,5,6
 455 166 455 166 418.5 153 c 128,-1,7
 382 140 382 140 343 140 c 0,8,9
 303 140 303 140 266.5 153 c 128,-1,10
 230 166 230 166 200 190 c 1,11,-1
 104 94 l 1,12,-1
 71 127 l 1,13,-1
 168 224 l 1,14,15
 118 285 118 285 118 365 c 0,16,17
 118 444 118 444 168 507 c 1,18,-1
 71 604 l 1,19,-1
 104 636 l 1,20,-1
 200 539 l 1,21,22
 262 590 262 590 343 590 c 0,23,24
 382 590 382 590 418.5 577 c 128,-1,25
 455 564 455 564 484 540 c 1,26,-1
 580 636 l 1,27,-1
 613 603 l 1,28,-1
 517 507 l 1,29,30
 541 478 541 478 554.5 441.5 c 128,-1,31
 568 405 568 405 568 365 c 256,32,0
 568 325 568 325 554.5 288.5 c 128,-1,1
432 210 m 128,-1,34
 473 234 473 234 497 275.5 c 128,-1,35
 521 317 521 317 521 365 c 256,36,37
 521 413 521 413 497 454.5 c 128,-1,38
 473 496 473 496 432 520 c 128,-1,39
 391 544 391 544 343 544 c 0,40,41
 294 544 294 544 253 520 c 128,-1,42
 212 496 212 496 188 454.5 c 128,-1,43
 164 413 164 413 164 365 c 256,44,45
 164 317 164 317 188.5 276 c 128,-1,46
 213 235 213 235 254 210.5 c 128,-1,47
 295 186 295 186 343 186 c 256,48,33
 391 186 391 186 432 210 c 128,-1,34
EndSplineSet
EndChar

StartChar: dollar
Encoding: 36 36 480
Width: 623
Flags: W
LayerCount: 2
Fore
SplineSet
501.5 47 m 128,-1,1
 442 -4 442 -4 334 -9 c 1,2,-1
 334 -105 l 1,3,-1
 289 -105 l 1,4,-1
 289 -10 l 1,5,6
 224 -7 224 -7 165 11 c 128,-1,7
 106 29 106 29 62 61 c 1,8,-1
 80 104 l 1,9,10
 123 74 123 74 176.5 56.5 c 128,-1,11
 230 39 230 39 289 36 c 1,12,-1
 289 368 l 1,13,14
 171 410 171 410 121.5 456.5 c 128,-1,15
 72 503 72 503 72 571 c 0,16,17
 72 647 72 647 128.5 690.5 c 128,-1,18
 185 734 185 734 289 739 c 1,19,-1
 289 835 l 1,20,-1
 334 835 l 1,21,-1
 334 740 l 1,22,23
 453 736 453 736 549 682 c 1,24,-1
 535 638 l 1,25,26
 439 690 439 690 334 694 c 1,27,-1
 334 404 l 1,28,29
 418 374 418 374 467.5 343 c 128,-1,30
 517 312 517 312 539 274.5 c 128,-1,31
 561 237 561 237 561 186 c 0,32,0
 561 98 561 98 501.5 47 c 128,-1,1
161.5 487.5 m 128,-1,34
 199 453 199 453 289 420 c 1,35,-1
 289 693 l 1,36,37
 208 688 208 688 166 657 c 128,-1,38
 124 626 124 626 124 571 c 0,39,33
 124 522 124 522 161.5 487.5 c 128,-1,34
465 80 m 128,-1,41
 511 118 511 118 511 185 c 0,42,43
 511 242 511 242 471.5 279.5 c 128,-1,44
 432 317 432 317 334 353 c 1,45,-1
 334 37 l 1,46,40
 419 42 419 42 465 80 c 128,-1,41
EndSplineSet
EndChar

StartChar: dong
Encoding: 8363 8363 481
Width: 686
Flags: W
LayerCount: 2
Fore
SplineSet
625 670 m 1,0,-1
 625 630 l 1,1,-1
 508 630 l 1,2,-1
 508 150 l 1,3,-1
 461 150 l 1,4,-1
 460 220 l 1,5,-1
 458 220 l 1,6,7
 433 183 433 183 384.5 162.5 c 128,-1,8
 336 142 336 142 275 142 c 0,9,10
 178 142 178 142 122.5 199.5 c 128,-1,11
 67 257 67 257 67 358 c 256,12,13
 67 459 67 459 122.5 516.5 c 128,-1,14
 178 574 178 574 275 574 c 0,15,16
 336 574 336 574 384 553.5 c 128,-1,17
 432 533 432 533 457 496 c 1,18,-1
 459 496 l 1,19,-1
 459 630 l 1,20,-1
 205 630 l 1,21,-1
 205 670 l 1,22,-1
 459 670 l 1,23,-1
 459 750 l 1,24,-1
 508 750 l 1,25,-1
 508 670 l 1,26,-1
 625 670 l 1,0,-1
410.5 225.5 m 128,-1,28
 459 269 459 269 459 339 c 2,29,-1
 459 377 l 2,30,31
 459 447 459 447 410.5 490.5 c 128,-1,32
 362 534 362 534 285 534 c 0,33,34
 206 534 206 534 161 487 c 128,-1,35
 116 440 116 440 116 358 c 256,36,37
 116 276 116 276 161 229 c 128,-1,38
 206 182 206 182 285 182 c 0,39,27
 362 182 362 182 410.5 225.5 c 128,-1,28
72 0 m 1,40,-1
 72 40 l 1,41,-1
 625 40 l 1,42,-1
 625 0 l 1,43,-1
 72 0 l 1,40,-1
EndSplineSet
EndChar

StartChar: Euro
Encoding: 8364 8364 482
Width: 777
GlyphClass: 2
Flags: W
AnchorPoint: "Anchor-1" 470 730 basechar 0
AnchorPoint: "Anchor-0" 470 0 basechar 0
LayerCount: 2
Fore
SplineSet
700 96 m 1,1,-1
 723 55 l 1,2,3
 623 -10 623 -10 493 -10 c 0,4,5
 357 -10 357 -10 265.5 61.5 c 128,-1,6
 174 133 174 133 146 258 c 1,7,-1
 36 258 l 1,8,-1
 36 302 l 1,9,-1
 139 302 l 1,10,11
 135 329 135 329 135 365 c 256,12,13
 135 401 135 401 139 428 c 1,14,-1
 36 428 l 1,15,-1
 36 472 l 1,16,-1
 146 472 l 1,17,18
 174 597 174 597 265.5 668.5 c 128,-1,19
 357 740 357 740 493 740 c 0,20,21
 623 740 623 740 723 675 c 1,22,-1
 700 634 l 1,23,24
 608 694 608 694 495 694 c 0,25,26
 381 694 381 694 303 635 c 128,-1,27
 225 576 225 576 199 472 c 1,28,-1
 636 472 l 1,29,-1
 636 428 l 1,30,-1
 190 428 l 1,31,32
 186 401 186 401 186 365 c 256,33,34
 186 329 186 329 190 302 c 1,35,-1
 636 302 l 1,36,-1
 636 258 l 1,37,-1
 199 258 l 1,38,39
 225 154 225 154 302.5 95 c 128,-1,40
 380 36 380 36 495 36 c 0,41,0
 608 36 608 36 700 96 c 1,1,-1
EndSplineSet
EndChar

StartChar: florin
Encoding: 402 402 483
Width: 454
Flags: W
LayerCount: 2
Fore
SplineSet
24 -105 m 1,1,-1
 35 -63 l 1,2,3
 69 -77 69 -77 105 -77 c 0,4,5
 157 -77 157 -77 179.5 -49.5 c 128,-1,6
 202 -22 202 -22 202 42 c 2,7,-1
 202 361 l 1,8,-1
 51 361 l 1,9,-1
 51 404 l 1,10,-1
 202 404 l 1,11,-1
 202 578 l 2,12,13
 202 661 202 661 236.5 700.5 c 128,-1,14
 271 740 271 740 343 740 c 0,15,16
 384 740 384 740 429 725 c 1,17,-1
 418 683 l 1,18,19
 386 697 386 697 348 697 c 0,20,21
 296 697 296 697 273.5 669.5 c 128,-1,22
 251 642 251 642 251 578 c 2,23,-1
 251 404 l 1,24,-1
 427 404 l 1,25,-1
 427 361 l 1,26,-1
 251 361 l 1,27,-1
 251 42 l 2,28,29
 251 -40 251 -40 216.5 -80 c 128,-1,30
 182 -120 182 -120 111 -120 c 0,31,0
 69 -120 69 -120 24 -105 c 1,1,-1
EndSplineSet
EndChar

StartChar: franc
Encoding: 8355 8355 484
Width: 622
Flags: W
LayerCount: 2
Fore
SplineSet
570 684 m 1,0,-1
 188 684 l 1,1,-1
 188 427 l 1,2,-1
 550 427 l 1,3,-1
 550 381 l 1,4,-1
 188 381 l 1,5,-1
 188 167 l 1,6,-1
 462 167 l 1,7,-1
 462 123 l 1,8,-1
 188 123 l 1,9,-1
 188 0 l 1,10,-1
 138 0 l 1,11,-1
 138 123 l 1,12,-1
 29 123 l 1,13,-1
 29 167 l 1,14,-1
 138 167 l 1,15,-1
 138 730 l 1,16,-1
 570 730 l 1,17,-1
 570 684 l 1,0,-1
EndSplineSet
EndChar

StartChar: uni20B2
Encoding: 8370 8370 485
Width: 790
Flags: W
LayerCount: 2
Fore
SplineSet
713 409 m 1,0,-1
 713 45 l 1,1,2
 659 20 659 20 585 5 c 128,-1,3
 511 -10 511 -10 439 -10 c 0,4,5
 421 -10 421 -10 412 -9 c 1,6,-1
 412 -105 l 1,7,-1
 367 -105 l 1,8,-1
 367 -6 l 1,9,10
 214 14 214 14 129.5 111 c 128,-1,11
 45 208 45 208 45 365 c 256,12,13
 45 522 45 522 129.5 619 c 128,-1,14
 214 716 214 716 367 736 c 1,15,-1
 367 835 l 1,16,-1
 412 835 l 1,17,-1
 412 739 l 1,18,19
 421 740 421 740 439 740 c 0,20,21
 583 740 583 740 686 679 c 1,22,-1
 665 639 l 1,23,24
 570 694 570 694 438 694 c 0,25,26
 421 694 421 694 412 693 c 1,27,-1
 412 409 l 1,28,-1
 713 409 l 1,0,-1
165.5 143 m 128,-1,30
 237 59 237 59 367 41 c 1,31,-1
 367 689 l 1,32,33
 237 671 237 671 165.5 587 c 128,-1,34
 94 503 94 503 94 365 c 256,35,29
 94 227 94 227 165.5 143 c 128,-1,30
557 47 m 128,-1,37
 617 58 617 58 663 77 c 1,38,-1
 663 364 l 1,39,-1
 412 364 l 1,40,-1
 412 37 l 1,41,42
 421 36 421 36 438 36 c 0,43,36
 497 36 497 36 557 47 c 128,-1,37
EndSplineSet
EndChar

StartChar: uni20AD
Encoding: 8365 8365 486
Width: 715
GlyphClass: 2
Flags: W
AnchorPoint: "Anchor-1" 338 730 basechar 0
AnchorPoint: "Anchor-0" 338 0 basechar 0
LayerCount: 2
Fore
SplineSet
643 410 m 1,0,-1
 643 367 l 1,1,-1
 254 367 l 1,2,-1
 643 0 l 1,3,-1
 578 0 l 1,4,-1
 190 367 l 1,5,-1
 188 367 l 1,6,-1
 188 0 l 1,7,-1
 138 0 l 1,8,-1
 138 367 l 1,9,-1
 29 367 l 1,10,-1
 29 410 l 1,11,-1
 138 410 l 1,12,-1
 138 730 l 1,13,-1
 188 730 l 1,14,-1
 188 410 l 1,15,-1
 190 410 l 1,16,-1
 566 730 l 1,17,-1
 633 730 l 1,18,-1
 258 410 l 1,19,-1
 643 410 l 1,0,-1
EndSplineSet
EndChar

StartChar: lira
Encoding: 8356 8356 487
Width: 658
Flags: W
LayerCount: 2
Fore
SplineSet
589 46 m 1,0,-1
 589 0 l 1,1,-1
 99 0 l 1,2,-1
 99 46 l 1,3,4
 130 48 130 48 156 69.5 c 128,-1,5
 182 91 182 91 198 129.5 c 128,-1,6
 214 168 214 168 214 219 c 2,7,-1
 214 281 l 1,8,-1
 99 281 l 1,9,-1
 99 324 l 1,10,-1
 214 324 l 1,11,-1
 214 451 l 1,12,-1
 99 451 l 1,13,-1
 99 494 l 1,14,-1
 214 494 l 1,15,-1
 214 545 l 2,16,17
 214 640 214 640 269.5 690 c 128,-1,18
 325 740 325 740 429 740 c 0,19,20
 495 740 495 740 556 714 c 1,21,-1
 543 670 l 1,22,23
 495 694 495 694 433 694 c 0,24,25
 264 694 264 694 264 539 c 2,26,-1
 264 494 l 1,27,-1
 528 494 l 1,28,-1
 528 451 l 1,29,-1
 264 451 l 1,30,-1
 264 324 l 1,31,-1
 528 324 l 1,32,-1
 528 281 l 1,33,-1
 264 281 l 1,34,-1
 264 219 l 2,35,36
 264 162 264 162 242.5 117 c 128,-1,37
 221 72 221 72 185 48 c 1,38,-1
 185 46 l 1,39,-1
 589 46 l 1,0,-1
EndSplineSet
EndChar

StartChar: uni20BA
Encoding: 8378 8378 488
Width: 668
Flags: W
LayerCount: 2
Fore
SplineSet
628 340 m 1,0,1
 628 217 628 217 581 140 c 128,-1,2
 534 63 534 63 435 26.5 c 128,-1,3
 336 -10 336 -10 178 -10 c 2,4,-1
 138 -10 l 1,5,-1
 138 378 l 1,6,-1
 29 358 l 1,7,-1
 29 401 l 1,8,-1
 138 421 l 1,9,-1
 138 548 l 1,10,-1
 29 528 l 1,11,-1
 29 571 l 1,12,-1
 138 591 l 1,13,-1
 138 730 l 1,14,-1
 188 730 l 1,15,-1
 188 601 l 1,16,-1
 458 651 l 1,17,-1
 458 608 l 1,18,-1
 188 558 l 1,19,-1
 188 431 l 1,20,-1
 458 481 l 1,21,-1
 458 438 l 1,22,-1
 188 388 l 1,23,-1
 188 38 l 1,24,-1
 205 38 l 2,25,26
 338 38 338 38 420.5 69.5 c 128,-1,27
 503 101 503 101 542 167 c 128,-1,28
 581 233 581 233 581 340 c 1,29,-1
 628 340 l 1,0,1
EndSplineSet
EndChar

StartChar: uni20BC
Encoding: 8380 8380 489
Width: 760
Flags: W
LayerCount: 2
Fore
SplineSet
611.5 669 m 128,-1,1
 679 598 679 598 679 460 c 2,2,-1
 679 0 l 1,3,-1
 629 0 l 1,4,-1
 629 456 l 2,5,6
 629 577 629 577 575.5 635.5 c 128,-1,7
 522 694 522 694 412 694 c 2,8,-1
 402 694 l 1,9,-1
 402 0 l 1,10,-1
 357 0 l 1,11,-1
 357 694 l 1,12,-1
 347 694 l 2,13,14
 237 694 237 694 183.5 635.5 c 128,-1,15
 130 577 130 577 130 456 c 2,16,-1
 130 0 l 1,17,-1
 81 0 l 1,18,-1
 81 460 l 2,19,20
 81 598 81 598 148.5 669 c 128,-1,21
 216 740 216 740 347 740 c 2,22,-1
 357 740 l 1,23,-1
 357 835 l 1,24,-1
 402 835 l 1,25,-1
 402 740 l 1,26,-1
 412 740 l 2,27,0
 544 740 544 740 611.5 669 c 128,-1,1
EndSplineSet
EndChar

StartChar: uni20A6
Encoding: 8358 8358 490
Width: 811
GlyphClass: 2
Flags: W
AnchorPoint: "Anchor-1" 406 730 basechar 0
AnchorPoint: "Anchor-0" 406 0 basechar 0
LayerCount: 2
Fore
SplineSet
782 428 m 1,0,-1
 673 428 l 1,1,-1
 673 302 l 1,2,-1
 782 302 l 1,3,-1
 782 258 l 1,4,-1
 673 258 l 1,5,-1
 673 0 l 1,6,-1
 612 0 l 1,7,-1
 446 258 l 1,8,-1
 188 258 l 1,9,-1
 188 0 l 1,10,-1
 138 0 l 1,11,-1
 138 258 l 1,12,-1
 29 258 l 1,13,-1
 29 302 l 1,14,-1
 138 302 l 1,15,-1
 138 428 l 1,16,-1
 29 428 l 1,17,-1
 29 472 l 1,18,-1
 138 472 l 1,19,-1
 138 730 l 1,20,-1
 199 730 l 1,21,-1
 365 472 l 1,22,-1
 623 472 l 1,23,-1
 623 730 l 1,24,-1
 673 730 l 1,25,-1
 673 472 l 1,26,-1
 782 472 l 1,27,-1
 782 428 l 1,0,-1
188 657 m 1,28,-1
 188 472 l 1,29,-1
 309 472 l 1,30,-1
 190 657 l 1,31,-1
 188 657 l 1,28,-1
418 302 m 1,32,-1
 337 428 l 1,33,-1
 188 428 l 1,34,-1
 188 302 l 1,35,-1
 418 302 l 1,32,-1
623 302 m 1,36,-1
 623 428 l 1,37,-1
 393 428 l 1,38,-1
 474 302 l 1,39,-1
 623 302 l 1,36,-1
623 73 m 1,40,-1
 623 258 l 1,41,-1
 502 258 l 1,42,-1
 621 73 l 1,43,-1
 623 73 l 1,40,-1
EndSplineSet
EndChar

StartChar: peseta
Encoding: 8359 8359 491
Width: 700
Flags: W
LayerCount: 2
Fore
SplineSet
689 484 m 1,0,-1
 598 484 l 1,1,2
 592 380 592 380 521.5 331 c 128,-1,3
 451 282 451 282 308 282 c 2,4,-1
 188 282 l 1,5,-1
 188 0 l 1,6,-1
 138 0 l 1,7,-1
 138 484 l 1,8,-1
 29 484 l 1,9,-1
 29 527 l 1,10,-1
 138 527 l 1,11,-1
 138 730 l 1,12,-1
 301 730 l 2,13,14
 448 730 448 730 520 680.5 c 128,-1,15
 592 631 592 631 598 527 c 1,16,-1
 689 527 l 1,17,-1
 689 484 l 1,0,-1
188 527 m 1,18,-1
 548 527 l 1,19,20
 542 610 542 610 483.5 647.5 c 128,-1,21
 425 685 425 685 303 685 c 2,22,-1
 188 685 l 1,23,-1
 188 527 l 1,18,-1
483.5 363.5 m 128,-1,25
 542 401 542 401 548 484 c 1,26,-1
 188 484 l 1,27,-1
 188 326 l 1,28,-1
 303 326 l 2,29,24
 425 326 425 326 483.5 363.5 c 128,-1,25
EndSplineSet
EndChar

StartChar: uni20B1
Encoding: 8369 8369 492
Width: 700
Flags: W
LayerCount: 2
Fore
SplineSet
689 569 m 1,0,-1
 593 569 l 1,1,2
 599 541 599 541 599 506 c 256,3,4
 599 471 599 471 593 442 c 1,5,-1
 689 442 l 1,6,-1
 689 399 l 1,7,-1
 579 399 l 1,8,9
 551 339 551 339 484.5 310.5 c 128,-1,10
 418 282 418 282 308 282 c 2,11,-1
 188 282 l 1,12,-1
 188 0 l 1,13,-1
 138 0 l 1,14,-1
 138 399 l 1,15,-1
 29 399 l 1,16,-1
 29 442 l 1,17,-1
 138 442 l 1,18,-1
 138 569 l 1,19,-1
 29 569 l 1,20,-1
 29 612 l 1,21,-1
 138 612 l 1,22,-1
 138 730 l 1,23,-1
 301 730 l 2,24,25
 415 730 415 730 483 701 c 128,-1,26
 551 672 551 672 579 612 c 1,27,-1
 689 612 l 1,28,-1
 689 569 l 1,0,-1
188 612 m 1,29,-1
 521 612 l 1,30,31
 494 649 494 649 440.5 667 c 128,-1,32
 387 685 387 685 303 685 c 2,33,-1
 188 685 l 1,34,-1
 188 612 l 1,29,-1
541 569 m 1,36,-1
 188 569 l 1,37,-1
 188 442 l 1,38,-1
 541 442 l 1,39,40
 549 472 549 472 549 505 c 0,41,35
 549 539 549 539 541 569 c 1,36,-1
441 344 m 128,-1,43
 495 362 495 362 521 399 c 1,44,-1
 188 399 l 1,45,-1
 188 326 l 1,46,-1
 303 326 l 2,47,42
 387 326 387 326 441 344 c 128,-1,43
EndSplineSet
EndChar

StartChar: uni20BD
Encoding: 8381 8381 493
Width: 628
Flags: W
LayerCount: 2
Fore
SplineSet
188 297 m 1,0,-1
 188 171 l 1,1,-1
 462 171 l 1,2,-1
 462 127 l 1,3,-1
 188 127 l 1,4,-1
 188 0 l 1,5,-1
 138 0 l 1,6,-1
 138 127 l 1,7,-1
 29 127 l 1,8,-1
 29 171 l 1,9,-1
 138 171 l 1,10,-1
 138 297 l 1,11,-1
 29 297 l 1,12,-1
 29 341 l 1,13,-1
 138 341 l 1,14,-1
 138 730 l 1,15,-1
 301 730 l 2,16,17
 456 730 456 730 527.5 677.5 c 128,-1,18
 599 625 599 625 599 512 c 0,19,20
 599 401 599 401 529 349 c 128,-1,21
 459 297 459 297 308 297 c 2,22,-1
 188 297 l 1,0,-1
188 341 m 1,23,-1
 303 341 l 2,24,25
 433 341 433 341 491 381.5 c 128,-1,26
 549 422 549 422 549 512 c 0,27,28
 549 603 549 603 491 643.5 c 128,-1,29
 433 684 433 684 303 684 c 2,30,-1
 188 684 l 1,31,-1
 188 341 l 1,23,-1
EndSplineSet
EndChar

StartChar: uni20B9
Encoding: 8377 8377 494
Width: 635
Flags: W
LayerCount: 2
Fore
SplineSet
578 687 m 1,0,-1
 398 687 l 1,1,2
 440 667 440 667 462 634 c 128,-1,3
 484 601 484 601 488 553 c 1,4,-1
 578 553 l 1,5,-1
 578 510 l 1,6,-1
 488 510 l 1,7,8
 481 419 481 419 410 376.5 c 128,-1,9
 339 334 339 334 197 334 c 2,10,-1
 196 334 l 1,11,-1
 510 0 l 1,12,-1
 444 0 l 1,13,-1
 130 334 l 1,14,-1
 52 334 l 1,15,-1
 52 380 l 1,16,-1
 197 380 l 2,17,18
 316 380 316 380 372.5 411 c 128,-1,19
 429 442 429 442 437 510 c 1,20,-1
 52 510 l 1,21,-1
 52 553 l 1,22,-1
 437 553 l 1,23,24
 430 621 430 621 373 652.5 c 128,-1,25
 316 684 316 684 197 684 c 2,26,-1
 52 684 l 1,27,-1
 52 730 l 1,28,-1
 578 730 l 1,29,-1
 578 687 l 1,0,-1
EndSplineSet
EndChar

StartChar: sterling
Encoding: 163 163 495
Width: 658
Flags: W
LayerCount: 2
Fore
SplineSet
589 46 m 1,0,-1
 589 0 l 1,1,-1
 99 0 l 1,2,-1
 99 46 l 1,3,4
 130 48 130 48 156 69.5 c 128,-1,5
 182 91 182 91 198 129.5 c 128,-1,6
 214 168 214 168 214 219 c 2,7,-1
 214 366 l 1,8,-1
 99 366 l 1,9,-1
 99 409 l 1,10,-1
 214 409 l 1,11,-1
 214 545 l 2,12,13
 214 640 214 640 269.5 690 c 128,-1,14
 325 740 325 740 429 740 c 0,15,16
 495 740 495 740 556 714 c 1,17,-1
 543 670 l 1,18,19
 495 694 495 694 433 694 c 0,20,21
 264 694 264 694 264 539 c 2,22,-1
 264 409 l 1,23,-1
 528 409 l 1,24,-1
 528 366 l 1,25,-1
 264 366 l 1,26,-1
 264 219 l 2,27,28
 264 162 264 162 242.5 117 c 128,-1,29
 221 72 221 72 185 48 c 1,30,-1
 185 46 l 1,31,-1
 589 46 l 1,0,-1
EndSplineSet
EndChar

StartChar: uni20A9
Encoding: 8361 8361 496
Width: 977
GlyphClass: 2
Flags: W
AnchorPoint: "Anchor-1" 489 730 basechar 0
AnchorPoint: "Anchor-0" 489 0 basechar 0
LayerCount: 2
Fore
SplineSet
948 428 m 1,0,-1
 836 428 l 1,1,-1
 805 302 l 1,2,-1
 948 302 l 1,3,-1
 948 258 l 1,4,-1
 794 258 l 1,5,-1
 729 0 l 1,6,-1
 663 0 l 1,7,-1
 585 258 l 1,8,-1
 393 258 l 1,9,-1
 316 0 l 1,10,-1
 249 0 l 1,11,-1
 185 258 l 1,12,-1
 29 258 l 1,13,-1
 29 302 l 1,14,-1
 174 302 l 1,15,-1
 142 428 l 1,16,-1
 29 428 l 1,17,-1
 29 472 l 1,18,-1
 131 472 l 1,19,-1
 67 730 l 1,20,-1
 118 730 l 1,21,-1
 181 472 l 1,22,-1
 409 472 l 1,23,-1
 456 630 l 1,24,-1
 522 630 l 1,25,-1
 569 472 l 1,26,-1
 797 472 l 1,27,-1
 860 730 l 1,28,-1
 912 730 l 1,29,-1
 847 472 l 1,30,-1
 948 472 l 1,31,-1
 948 428 l 1,0,-1
488 575 m 1,32,-1
 457 472 l 1,33,-1
 521 472 l 1,34,-1
 490 575 l 1,35,-1
 488 575 l 1,32,-1
192 428 m 1,36,-1
 223 302 l 1,37,-1
 358 302 l 1,38,-1
 396 428 l 1,39,-1
 192 428 l 1,36,-1
572 302 m 1,40,-1
 534 428 l 1,41,-1
 444 428 l 1,42,-1
 406 302 l 1,43,-1
 572 302 l 1,40,-1
756 302 m 1,44,-1
 787 428 l 1,45,-1
 583 428 l 1,46,-1
 620 302 l 1,47,-1
 756 302 l 1,44,-1
285 56 m 1,48,-1
 345 258 l 1,49,-1
 234 258 l 1,50,-1
 283 56 l 1,51,-1
 285 56 l 1,48,-1
696 56 m 1,52,-1
 745 258 l 1,53,-1
 633 258 l 1,54,-1
 694 56 l 1,55,-1
 696 56 l 1,52,-1
EndSplineSet
EndChar

StartChar: yen
Encoding: 165 165 497
Width: 633
Flags: W
LayerCount: 2
Fore
SplineSet
623 730 m 1,0,-1
 366 353 l 1,1,-1
 565 353 l 1,2,-1
 565 310 l 1,3,-1
 342 310 l 1,4,-1
 342 183 l 1,5,-1
 565 183 l 1,6,-1
 565 140 l 1,7,-1
 342 140 l 1,8,-1
 342 0 l 1,9,-1
 291 0 l 1,10,-1
 291 140 l 1,11,-1
 68 140 l 1,12,-1
 68 183 l 1,13,-1
 291 183 l 1,14,-1
 291 310 l 1,15,-1
 68 310 l 1,16,-1
 68 353 l 1,17,-1
 267 353 l 1,18,-1
 10 730 l 1,19,-1
 68 730 l 1,20,-1
 315 365 l 1,21,-1
 317 365 l 1,22,-1
 565 730 l 1,23,-1
 623 730 l 1,0,-1
EndSplineSet
EndChar

StartChar: uni2215
Encoding: 8725 8725 499
Width: 402
Flags: W
LayerCount: 2
Fore
SplineSet
334 730 m 1,0,-1
 385 730 l 1,1,-1
 68 0 l 1,2,-1
 17 0 l 1,3,-1
 334 730 l 1,0,-1
EndSplineSet
EndChar

StartChar: plus
Encoding: 43 43 500
Width: 693
Flags: W
LayerCount: 2
Fore
SplineSet
323 267 m 1,0,-1
 57 267 l 1,1,-1
 57 313 l 1,2,-1
 323 313 l 1,3,-1
 323 580 l 1,4,-1
 370 580 l 1,5,-1
 370 313 l 1,6,-1
 637 313 l 1,7,-1
 637 267 l 1,8,-1
 370 267 l 1,9,-1
 370 0 l 1,10,-1
 323 0 l 1,11,-1
 323 267 l 1,0,-1
EndSplineSet
EndChar

StartChar: minus
Encoding: 8722 8722 501
Width: 693
Flags: W
LayerCount: 2
Fore
SplineSet
57 313 m 1,0,-1
 637 313 l 1,1,-1
 637 267 l 1,2,-1
 57 267 l 1,3,-1
 57 313 l 1,0,-1
EndSplineSet
EndChar

StartChar: multiply
Encoding: 215 215 502
Width: 594
Flags: W
LayerCount: 2
Fore
SplineSet
546 73 m 1,0,-1
 514 41 l 1,1,-1
 297 258 l 1,2,-1
 80 41 l 1,3,-1
 48 73 l 1,4,-1
 265 290 l 1,5,-1
 48 507 l 1,6,-1
 80 539 l 1,7,-1
 297 322 l 1,8,-1
 514 539 l 1,9,-1
 546 507 l 1,10,-1
 329 290 l 1,11,-1
 546 73 l 1,0,-1
EndSplineSet
EndChar

StartChar: divide
Encoding: 247 247 503
Width: 693
Flags: W
LayerCount: 2
Fore
SplineSet
314.5 488.5 m 128,-1,1
 301 502 301 502 301 521 c 256,2,3
 301 540 301 540 314.5 553.5 c 128,-1,4
 328 567 328 567 347 567 c 256,5,6
 366 567 366 567 379 553.5 c 128,-1,7
 392 540 392 540 392 521 c 256,8,9
 392 502 392 502 379 488.5 c 128,-1,10
 366 475 366 475 347 475 c 256,11,0
 328 475 328 475 314.5 488.5 c 128,-1,1
57 313 m 1,12,-1
 637 313 l 1,13,-1
 637 267 l 1,14,-1
 57 267 l 1,15,-1
 57 313 l 1,12,-1
314.5 26.5 m 128,-1,17
 301 40 301 40 301 59 c 256,18,19
 301 78 301 78 314.5 91.5 c 128,-1,20
 328 105 328 105 347 105 c 256,21,22
 366 105 366 105 379 91.5 c 128,-1,23
 392 78 392 78 392 59 c 256,24,25
 392 40 392 40 379 26.5 c 128,-1,26
 366 13 366 13 347 13 c 256,27,16
 328 13 328 13 314.5 26.5 c 128,-1,17
EndSplineSet
EndChar

StartChar: equal
Encoding: 61 61 504
Width: 779
Flags: W
LayerCount: 2
Fore
SplineSet
99 425 m 1,0,-1
 679 425 l 1,1,-1
 679 379 l 1,2,-1
 99 379 l 1,3,-1
 99 425 l 1,0,-1
99 201 m 1,4,-1
 679 201 l 1,5,-1
 679 155 l 1,6,-1
 99 155 l 1,7,-1
 99 201 l 1,4,-1
EndSplineSet
EndChar

StartChar: notequal
Encoding: 8800 8800 505
Width: 779
Flags: W
LayerCount: 2
Fore
SplineSet
679 379 m 1,0,-1
 444 379 l 1,1,-1
 385 201 l 1,2,-1
 679 201 l 1,3,-1
 679 155 l 1,4,-1
 370 155 l 1,5,-1
 312 -20 l 1,6,-1
 267 -6 l 1,7,-1
 320 155 l 1,8,-1
 99 155 l 1,9,-1
 99 201 l 1,10,-1
 335 201 l 1,11,-1
 394 379 l 1,12,-1
 99 379 l 1,13,-1
 99 425 l 1,14,-1
 409 425 l 1,15,-1
 467 600 l 1,16,-1
 512 586 l 1,17,-1
 459 425 l 1,18,-1
 679 425 l 1,19,-1
 679 379 l 1,0,-1
EndSplineSet
EndChar

StartChar: greater
Encoding: 62 62 506
Width: 727
Flags: W
LayerCount: 2
Fore
SplineSet
90 74 m 1,0,-1
 628 289 l 1,1,-1
 628 291 l 1,2,-1
 90 506 l 1,3,-1
 90 557 l 1,4,-1
 670 319 l 1,5,-1
 670 261 l 1,6,-1
 90 23 l 1,7,-1
 90 74 l 1,0,-1
EndSplineSet
EndChar

StartChar: less
Encoding: 60 60 507
Width: 727
Flags: W
LayerCount: 2
Fore
SplineSet
57 261 m 1,0,-1
 57 319 l 1,1,-1
 637 557 l 1,2,-1
 637 506 l 1,3,-1
 99 291 l 1,4,-1
 99 289 l 1,5,-1
 637 74 l 1,6,-1
 637 23 l 1,7,-1
 57 261 l 1,0,-1
EndSplineSet
EndChar

StartChar: greaterequal
Encoding: 8805 8805 508
Width: 713
Flags: W
LayerCount: 2
Fore
SplineSet
81 179 m 1,0,-1
 81 230 l 1,1,-1
 618 445 l 1,2,-1
 618 447 l 1,3,-1
 81 662 l 1,4,-1
 81 713 l 1,5,-1
 661 475 l 1,6,-1
 661 417 l 1,7,-1
 81 179 l 1,0,-1
81 0 m 1,8,-1
 81 45 l 1,9,-1
 661 45 l 1,10,-1
 661 0 l 1,11,-1
 81 0 l 1,8,-1
EndSplineSet
EndChar

StartChar: lessequal
Encoding: 8804 8804 509
Width: 713
Flags: W
LayerCount: 2
Fore
SplineSet
52 475 m 1,0,-1
 632 713 l 1,1,-1
 632 662 l 1,2,-1
 94 447 l 1,3,-1
 94 445 l 1,4,-1
 632 230 l 1,5,-1
 632 179 l 1,6,-1
 52 417 l 1,7,-1
 52 475 l 1,0,-1
52 45 m 1,8,-1
 632 45 l 1,9,-1
 632 0 l 1,10,-1
 52 0 l 1,11,-1
 52 45 l 1,8,-1
EndSplineSet
EndChar

StartChar: plusminus
Encoding: 177 177 510
Width: 779
Flags: W
LayerCount: 2
Fore
SplineSet
366 423 m 1,0,-1
 99 423 l 1,1,-1
 99 469 l 1,2,-1
 366 469 l 1,3,-1
 366 730 l 1,4,-1
 413 730 l 1,5,-1
 413 469 l 1,6,-1
 679 469 l 1,7,-1
 679 423 l 1,8,-1
 413 423 l 1,9,-1
 413 162 l 1,10,-1
 366 162 l 1,11,-1
 366 423 l 1,0,-1
99 45 m 1,12,-1
 679 45 l 1,13,-1
 679 0 l 1,14,-1
 99 0 l 1,15,-1
 99 45 l 1,12,-1
EndSplineSet
EndChar

StartChar: approxequal
Encoding: 8776 8776 511
Width: 732
Flags: W
LayerCount: 2
Fore
SplineSet
193 478 m 0,1,2
 256 478 256 478 378 423 c 0,3,4
 434 398 434 398 470.5 387 c 128,-1,5
 507 376 507 376 533 376 c 0,6,7
 572 376 572 376 590 398 c 128,-1,8
 608 420 608 420 608 468 c 1,9,-1
 653 468 l 1,10,11
 653 393 653 393 621.5 360.5 c 128,-1,12
 590 328 590 328 539 328 c 0,13,14
 506 328 506 328 461.5 341 c 128,-1,15
 417 354 417 354 354 382 c 0,16,17
 299 407 299 407 262 418.5 c 128,-1,18
 225 430 225 430 199 430 c 0,19,20
 159 430 159 430 141.5 406.5 c 128,-1,21
 124 383 124 383 124 331 c 1,22,-1
 79 331 l 1,23,0
 79 478 79 478 193 478 c 0,1,2
193 250 m 0,25,26
 256 250 256 250 378 195 c 0,27,28
 433 170 433 170 470 158.5 c 128,-1,29
 507 147 507 147 533 147 c 0,30,31
 572 147 572 147 590 169 c 128,-1,32
 608 191 608 191 608 240 c 1,33,-1
 653 240 l 1,34,35
 653 165 653 165 621.5 132 c 128,-1,36
 590 99 590 99 539 99 c 0,37,38
 507 99 507 99 462.5 112.5 c 128,-1,39
 418 126 418 126 354 154 c 0,40,41
 299 179 299 179 262 190.5 c 128,-1,42
 225 202 225 202 199 202 c 0,43,44
 159 202 159 202 141.5 178.5 c 128,-1,45
 124 155 124 155 124 103 c 1,46,-1
 79 103 l 1,47,24
 79 250 79 250 193 250 c 0,25,26
EndSplineSet
EndChar

StartChar: asciitilde
Encoding: 126 126 512
Width: 687
Flags: W
LayerCount: 2
Fore
SplineSet
171 376 m 0,1,2
 235 376 235 376 355 321 c 0,3,4
 411 295 411 295 447.5 284 c 128,-1,5
 484 273 484 273 511 273 c 0,6,7
 549 273 549 273 567 295 c 128,-1,8
 585 317 585 317 585 366 c 1,9,-1
 630 366 l 1,10,11
 630 290 630 290 598.5 257 c 128,-1,12
 567 224 567 224 516 224 c 0,13,14
 484 224 484 224 440 237.5 c 128,-1,15
 396 251 396 251 332 279 c 0,16,17
 275 305 275 305 238.5 316.5 c 128,-1,18
 202 328 202 328 176 328 c 0,19,20
 136 328 136 328 119 304.5 c 128,-1,21
 102 281 102 281 102 228 c 1,22,-1
 57 228 l 1,23,0
 57 376 57 376 171 376 c 0,1,2
EndSplineSet
EndChar

StartChar: logicalnot
Encoding: 172 172 513
Width: 723
Flags: W
LayerCount: 2
Fore
SplineSet
577 378 m 1,0,-1
 57 378 l 1,1,-1
 57 425 l 1,2,-1
 623 425 l 1,3,-1
 623 155 l 1,4,-1
 577 155 l 1,5,-1
 577 378 l 1,0,-1
EndSplineSet
EndChar

StartChar: asciicircum
Encoding: 94 94 514
Width: 580
Flags: W
LayerCount: 2
Fore
SplineSet
256 730 m 1,0,-1
 324 730 l 1,1,-1
 563 280 l 1,2,-1
 508 280 l 1,3,-1
 291 695 l 1,4,-1
 289 695 l 1,5,-1
 72 280 l 1,6,-1
 17 280 l 1,7,-1
 256 730 l 1,0,-1
EndSplineSet
EndChar

StartChar: uni00B5
Encoding: 181 181 515
Width: 564
GlyphClass: 2
Flags: W
AnchorPoint: "Anchor-3" 478 480 basechar 0
AnchorPoint: "Anchor-2" 483 0 basechar 0
AnchorPoint: "Anchor-1" 282 520 basechar 0
AnchorPoint: "Anchor-0" 282 0 basechar 0
LayerCount: 2
Fore
SplineSet
483 520 m 1,0,-1
 483 0 l 1,1,-1
 435 0 l 1,2,-1
 435 96 l 1,3,-1
 433 96 l 1,4,5
 404 47 404 47 352 18.5 c 128,-1,6
 300 -10 300 -10 240 -10 c 0,7,8
 164 -10 164 -10 122 37 c 1,9,-1
 122 -220 l 1,10,-1
 73 -220 l 1,11,-1
 73 520 l 1,12,-1
 122 520 l 1,13,-1
 122 207 l 2,14,15
 122 123 122 123 155 78 c 128,-1,16
 188 33 188 33 250 33 c 0,17,18
 300 33 300 33 342 61 c 128,-1,19
 384 89 384 89 409 136 c 128,-1,20
 434 183 434 183 434 238 c 2,21,-1
 434 520 l 1,22,-1
 483 520 l 1,0,-1
EndSplineSet
EndChar

StartChar: percent
Encoding: 37 37 516
Width: 837
Flags: W
LayerCount: 2
Fore
SplineSet
84 342.5 m 128,-1,1
 45 399 45 399 45 511 c 256,2,3
 45 623 45 623 84 679.5 c 128,-1,4
 123 736 123 736 200 736 c 0,5,6
 355 736 355 736 355 511 c 256,7,8
 355 286 355 286 200 286 c 0,9,0
 123 286 123 286 84 342.5 c 128,-1,1
600 730 m 1,10,-1
 650 730 l 1,11,-1
 236 0 l 1,12,-1
 186 0 l 1,13,-1
 600 730 l 1,10,-1
309 511 m 256,15,16
 309 693 309 693 200 693 c 0,17,18
 92 693 92 693 92 511 c 256,19,20
 92 329 92 329 200 329 c 0,21,14
 309 329 309 329 309 511 c 256,15,16
521 50.5 m 128,-1,23
 482 107 482 107 482 219 c 256,24,25
 482 331 482 331 521 387.5 c 128,-1,26
 560 444 560 444 636 444 c 0,27,28
 791 444 791 444 791 219 c 256,29,30
 791 -6 791 -6 636 -6 c 0,31,22
 560 -6 560 -6 521 50.5 c 128,-1,23
718 82 m 128,-1,33
 745 127 745 127 745 219 c 256,34,35
 745 311 745 311 718 356 c 128,-1,36
 691 401 691 401 636 401 c 0,37,38
 528 401 528 401 528 219 c 256,39,40
 528 37 528 37 636 37 c 0,41,32
 691 37 691 37 718 82 c 128,-1,33
EndSplineSet
EndChar

StartChar: at
Encoding: 64 64 518
Width: 824
Flags: W
LayerCount: 2
Fore
SplineSet
578 466 m 1,0,-1
 578 94 l 1,1,-1
 698 94 l 1,2,3
 740 167 740 167 740 260 c 0,4,5
 740 356 740 356 698.5 430.5 c 128,-1,6
 657 505 657 505 582.5 546.5 c 128,-1,7
 508 588 508 588 412 588 c 0,8,9
 317 588 317 588 242 546.5 c 128,-1,10
 167 505 167 505 125.5 430 c 128,-1,11
 84 355 84 355 84 260 c 256,12,13
 84 165 84 165 125.5 90 c 128,-1,14
 167 15 167 15 242 -26.5 c 128,-1,15
 317 -68 317 -68 412 -68 c 0,16,17
 524 -68 524 -68 608 -9 c 1,18,-1
 631 -41 l 1,19,20
 536 -108 536 -108 412 -108 c 0,21,22
 306 -108 306 -108 222.5 -61 c 128,-1,23
 139 -14 139 -14 92 70 c 128,-1,24
 45 154 45 154 45 260 c 0,25,26
 45 367 45 367 92 450.5 c 128,-1,27
 139 534 139 534 222.5 581 c 128,-1,28
 306 628 306 628 412 628 c 0,29,30
 520 628 520 628 603.5 581.5 c 128,-1,31
 687 535 687 535 733.5 451.5 c 128,-1,32
 780 368 780 368 780 260 c 0,33,34
 780 143 780 143 723 54 c 1,35,-1
 531 54 l 1,36,-1
 530 130 l 1,37,-1
 528 130 l 1,38,39
 486 45 486 45 388 45 c 0,40,41
 310 45 310 45 265.5 102 c 128,-1,42
 221 159 221 159 221 260 c 0,43,44
 221 360 221 360 266 417.5 c 128,-1,45
 311 475 311 475 388 475 c 0,46,47
 487 475 487 475 528 391 c 1,48,-1
 530 391 l 1,49,-1
 531 466 l 1,50,-1
 578 466 l 1,0,-1
529 276 m 2,51,52
 529 351 529 351 495 392.5 c 128,-1,53
 461 434 461 434 400 434 c 0,54,55
 340 434 340 434 305 387.5 c 128,-1,56
 270 341 270 341 270 260 c 0,57,58
 270 178 270 178 304.5 132 c 128,-1,59
 339 86 339 86 400 86 c 256,60,61
 461 86 461 86 495 127.5 c 128,-1,62
 529 169 529 169 529 244 c 2,63,-1
 529 276 l 2,51,52
EndSplineSet
EndChar

StartChar: ampersand
Encoding: 38 38 519
Width: 667
Flags: W
LayerCount: 2
Fore
SplineSet
629 -6 m 1,0,-1
 537 93 l 1,1,2
 425 -10 425 -10 276 -10 c 0,3,4
 169 -10 169 -10 107 39 c 128,-1,5
 45 88 45 88 45 172 c 0,6,7
 45 214 45 214 63 249.5 c 128,-1,8
 81 285 81 285 123 323 c 128,-1,9
 165 361 165 361 240 410 c 1,10,-1
 229 422 l 2,11,12
 173 481 173 481 149.5 524 c 128,-1,13
 126 567 126 567 126 609 c 0,14,15
 126 671 126 671 171.5 705.5 c 128,-1,16
 217 740 217 740 299 740 c 0,17,18
 380 740 380 740 426 705.5 c 128,-1,19
 472 671 472 671 472 609 c 0,20,21
 472 557 472 557 435.5 511 c 128,-1,22
 399 465 399 465 310 404 c 1,23,-1
 519 178 l 1,24,-1
 520 422 l 1,25,-1
 567 422 l 1,26,-1
 566 128 l 1,27,-1
 665 21 l 1,28,-1
 629 -6 l 1,0,-1
197.5 536 m 128,-1,30
 221 498 221 498 278 438 c 2,31,-1
 280 436 l 1,32,33
 360 490 360 490 392 528.5 c 128,-1,34
 424 567 424 567 424 608 c 0,35,36
 424 653 424 653 392 676.5 c 128,-1,37
 360 700 360 700 299 700 c 0,38,39
 239 700 239 700 206.5 676 c 128,-1,40
 174 652 174 652 174 608 c 0,41,29
 174 574 174 574 197.5 536 c 128,-1,30
402 57.5 m 128,-1,43
 459 82 459 82 503 129 c 1,44,-1
 271 377 l 1,45,-1
 270 377 l 1,46,47
 202 333 202 333 164.5 300.5 c 128,-1,48
 127 268 127 268 111.5 238.5 c 128,-1,49
 96 209 96 209 96 174 c 0,50,51
 96 109 96 109 144.5 71 c 128,-1,52
 193 33 193 33 278 33 c 0,53,42
 345 33 345 33 402 57.5 c 128,-1,43
EndSplineSet
EndChar

StartChar: paragraph
Encoding: 182 182 520
Width: 581
Flags: W
LayerCount: 2
Fore
SplineSet
126 301 m 128,-1,1
 73 332 73 332 42 385 c 128,-1,2
 11 438 11 438 11 500 c 256,3,4
 11 562 11 562 42 615 c 128,-1,5
 73 668 73 668 126 699 c 128,-1,6
 179 730 179 730 241 730 c 2,7,-1
 491 730 l 1,8,-1
 491 -110 l 1,9,-1
 446 -110 l 1,10,-1
 446 689 l 1,11,-1
 286 689 l 1,12,-1
 286 -110 l 1,13,-1
 241 -110 l 1,14,-1
 241 270 l 1,15,0
 179 270 179 270 126 301 c 128,-1,1
EndSplineSet
EndChar

StartChar: section
Encoding: 167 167 521
Width: 534
Flags: W
LayerCount: 2
Fore
SplineSet
439 106 m 128,-1,1
 454 77 454 77 454 37 c 0,2,3
 454 -36 454 -36 403.5 -78 c 128,-1,4
 353 -120 353 -120 267 -120 c 0,5,6
 174 -120 174 -120 85 -74 c 1,7,-1
 101 -34 l 1,8,9
 143 -56 143 -56 182 -66.5 c 128,-1,10
 221 -77 221 -77 264 -77 c 0,11,12
 331 -77 331 -77 369 -46.5 c 128,-1,13
 407 -16 407 -16 407 37 c 0,14,15
 407 85 407 85 376 114.5 c 128,-1,16
 345 144 345 144 264 161 c 0,17,18
 165 182 165 182 118.5 224 c 128,-1,19
 72 266 72 266 72 335 c 0,20,21
 72 375 72 375 89.5 407.5 c 128,-1,22
 107 440 107 440 140 463 c 1,23,24
 109 485 109 485 94 514 c 128,-1,25
 79 543 79 543 79 583 c 0,26,27
 79 656 79 656 129.5 698 c 128,-1,28
 180 740 180 740 267 740 c 0,29,30
 360 740 360 740 448 694 c 1,31,-1
 433 654 l 1,32,33
 391 676 391 676 352 686.5 c 128,-1,34
 313 697 313 697 270 697 c 0,35,36
 203 697 203 697 164.5 666.5 c 128,-1,37
 126 636 126 636 126 583 c 0,38,39
 126 535 126 535 157 505.5 c 128,-1,40
 188 476 188 476 269 459 c 0,41,42
 369 438 369 438 415.5 396 c 128,-1,43
 462 354 462 354 462 285 c 0,44,45
 462 245 462 245 444 212.5 c 128,-1,46
 426 180 426 180 393 157 c 1,47,0
 424 135 424 135 439 106 c 128,-1,1
150.5 252 m 128,-1,49
 186 222 186 222 271 203 c 0,50,51
 320 193 320 193 356 177 c 1,52,53
 385 194 385 194 401.5 222.5 c 128,-1,54
 418 251 418 251 418 285 c 0,55,56
 418 338 418 338 382.5 368 c 128,-1,57
 347 398 347 398 263 417 c 0,58,59
 214 427 214 427 178 443 c 1,60,61
 148 426 148 426 131.5 397.5 c 128,-1,62
 115 369 115 369 115 335 c 0,63,48
 115 282 115 282 150.5 252 c 128,-1,49
EndSplineSet
EndChar

StartChar: copyright
Encoding: 169 169 522
Width: 823
Flags: W
LayerCount: 2
Fore
SplineSet
227 47.5 m 128,-1,1
 143 97 143 97 94 181 c 128,-1,2
 45 265 45 265 45 365 c 256,3,4
 45 465 45 465 94 549 c 128,-1,5
 143 633 143 633 227 682.5 c 128,-1,6
 311 732 311 732 411 732 c 256,7,8
 511 732 511 732 595 682.5 c 128,-1,9
 679 633 679 633 728.5 549 c 128,-1,10
 778 465 778 465 778 365 c 256,11,12
 778 265 778 265 728.5 181 c 128,-1,13
 679 97 679 97 595 47.5 c 128,-1,14
 511 -2 511 -2 411 -2 c 256,15,0
 311 -2 311 -2 227 47.5 c 128,-1,1
577 79 m 128,-1,17
 653 123 653 123 697 199 c 128,-1,18
 741 275 741 275 741 365 c 256,19,20
 741 455 741 455 697 531 c 128,-1,21
 653 607 653 607 577 651 c 128,-1,22
 501 695 501 695 411 695 c 256,23,24
 321 695 321 695 245.5 650.5 c 128,-1,25
 170 606 170 606 125.5 530.5 c 128,-1,26
 81 455 81 455 81 365 c 256,27,28
 81 275 81 275 125.5 199.5 c 128,-1,29
 170 124 170 124 245.5 79.5 c 128,-1,30
 321 35 321 35 411 35 c 256,31,16
 501 35 501 35 577 79 c 128,-1,17
265 201 m 128,-1,33
 207 262 207 262 207 365 c 256,34,35
 207 468 207 468 265.5 529 c 128,-1,36
 324 590 324 590 422 590 c 0,37,38
 500 590 500 590 559 551 c 1,39,-1
 537 513 l 1,40,41
 487 547 487 547 423 547 c 0,42,43
 345 547 345 547 299.5 498 c 128,-1,44
 254 449 254 449 254 365 c 0,45,46
 254 280 254 280 299 231.5 c 128,-1,47
 344 183 344 183 423 183 c 0,48,49
 487 183 487 183 537 217 c 1,50,-1
 559 179 l 1,51,52
 500 140 500 140 422 140 c 0,53,32
 323 140 323 140 265 201 c 128,-1,33
EndSplineSet
EndChar

StartChar: registered
Encoding: 174 174 523
Width: 823
Flags: W
LayerCount: 2
Fore
SplineSet
595 682.5 m 128,-1,1
 679 633 679 633 728.5 549 c 128,-1,2
 778 465 778 465 778 365 c 256,3,4
 778 265 778 265 728.5 181 c 128,-1,5
 679 97 679 97 595 47.5 c 128,-1,6
 511 -2 511 -2 411 -2 c 256,7,8
 311 -2 311 -2 227 47.5 c 128,-1,9
 143 97 143 97 94 181 c 128,-1,10
 45 265 45 265 45 365 c 256,11,12
 45 465 45 465 94 549 c 128,-1,13
 143 633 143 633 227 682.5 c 128,-1,14
 311 732 311 732 411 732 c 256,15,0
 511 732 511 732 595 682.5 c 128,-1,1
577 79 m 128,-1,17
 653 123 653 123 697 199 c 128,-1,18
 741 275 741 275 741 365 c 256,19,20
 741 455 741 455 697 531 c 128,-1,21
 653 607 653 607 577 651 c 128,-1,22
 501 695 501 695 411 695 c 256,23,24
 321 695 321 695 245.5 650.5 c 128,-1,25
 170 606 170 606 125.5 530.5 c 128,-1,26
 81 455 81 455 81 365 c 256,27,28
 81 275 81 275 125.5 199.5 c 128,-1,29
 170 124 170 124 245.5 79.5 c 128,-1,30
 321 35 321 35 411 35 c 256,31,16
 501 35 501 35 577 79 c 128,-1,17
582 146 m 1,32,-1
 522 146 l 1,33,-1
 332 342 l 1,34,-1
 331 342 l 1,35,-1
 331 146 l 1,36,-1
 284 146 l 1,37,-1
 284 584 l 1,38,-1
 384 584 l 2,39,40
 477 584 477 584 520 555 c 128,-1,41
 563 526 563 526 563 463 c 256,42,43
 563 400 563 400 520.5 371 c 128,-1,44
 478 342 478 342 388 342 c 1,45,-1
 582 146 l 1,32,-1
331 544 m 1,46,-1
 331 380 l 1,47,-1
 385 380 l 2,48,49
 455 380 455 380 485.5 399 c 128,-1,50
 516 418 516 418 516 462 c 256,51,52
 516 506 516 506 485.5 525 c 128,-1,53
 455 544 455 544 385 544 c 2,54,-1
 331 544 l 1,46,-1
EndSplineSet
EndChar

StartChar: trademark
Encoding: 8482 8482 524
Width: 753
Flags: W
LayerCount: 2
Fore
SplineSet
148 691 m 1,0,-1
 28 691 l 1,1,-1
 28 730 l 1,2,-1
 311 730 l 1,3,-1
 311 691 l 1,4,-1
 192 691 l 1,5,-1
 192 365 l 1,6,-1
 148 365 l 1,7,-1
 148 691 l 1,0,-1
371 730 m 1,8,-1
 427 730 l 1,9,-1
 540 498 l 1,10,-1
 541 498 l 1,11,-1
 654 730 l 1,12,-1
 710 730 l 1,13,-1
 710 365 l 1,14,-1
 667 365 l 1,15,-1
 667 656 l 1,16,-1
 666 656 l 1,17,-1
 562 443 l 1,18,-1
 519 443 l 1,19,-1
 415 656 l 1,20,-1
 414 656 l 1,21,-1
 414 365 l 1,22,-1
 371 365 l 1,23,-1
 371 730 l 1,8,-1
EndSplineSet
EndChar

StartChar: degree
Encoding: 176 176 525
Width: 406
Flags: W
LayerCount: 2
Fore
SplineSet
122.5 432 m 128,-1,1
 85 454 85 454 63 491.5 c 128,-1,2
 41 529 41 529 41 573 c 256,3,4
 41 617 41 617 63 654 c 128,-1,5
 85 691 85 691 122.5 713 c 128,-1,6
 160 735 160 735 204 735 c 0,7,8
 247 735 247 735 284.5 713 c 128,-1,9
 322 691 322 691 344 654 c 128,-1,10
 366 617 366 617 366 573 c 256,11,12
 366 529 366 529 344 491.5 c 128,-1,13
 322 454 322 454 284.5 432 c 128,-1,14
 247 410 247 410 204 410 c 0,15,0
 160 410 160 410 122.5 432 c 128,-1,1
290 486 m 128,-1,17
 326 522 326 522 326 573 c 0,18,19
 326 623 326 623 290 659 c 128,-1,20
 254 695 254 695 204 695 c 0,21,22
 171 695 171 695 142.5 678.5 c 128,-1,23
 114 662 114 662 97 634 c 128,-1,24
 80 606 80 606 80 573 c 0,25,26
 80 522 80 522 116.5 486 c 128,-1,27
 153 450 153 450 204 450 c 0,28,16
 254 450 254 450 290 486 c 128,-1,17
EndSplineSet
EndChar

StartChar: bar
Encoding: 124 124 526
Width: 247
Flags: W
LayerCount: 2
Fore
SplineSet
99 810 m 1,0,-1
 147 810 l 1,1,-1
 147 -220 l 1,2,-1
 99 -220 l 1,3,-1
 99 810 l 1,0,-1
EndSplineSet
EndChar

StartChar: brokenbar
Encoding: 166 166 527
Width: 247
Flags: W
LayerCount: 2
Fore
SplineSet
99 810 m 1,0,-1
 147 810 l 1,1,-1
 147 370 l 1,2,-1
 99 370 l 1,3,-1
 99 810 l 1,0,-1
99 220 m 1,4,-1
 147 220 l 1,5,-1
 147 -220 l 1,6,-1
 99 -220 l 1,7,-1
 99 220 l 1,4,-1
EndSplineSet
EndChar

StartChar: dagger
Encoding: 8224 8224 528
Width: 489
Flags: W
LayerCount: 2
Fore
SplineSet
220 477 m 1,0,-1
 28 477 l 1,1,-1
 28 520 l 1,2,-1
 220 520 l 1,3,-1
 220 730 l 1,4,-1
 268 730 l 1,5,-1
 268 520 l 1,6,-1
 461 520 l 1,7,-1
 461 477 l 1,8,-1
 268 477 l 1,9,-1
 268 -110 l 1,10,-1
 220 -110 l 1,11,-1
 220 477 l 1,0,-1
EndSplineSet
EndChar

StartChar: daggerdbl
Encoding: 8225 8225 529
Width: 511
Flags: W
LayerCount: 2
Fore
SplineSet
231 100 m 1,0,-1
 39 100 l 1,1,-1
 39 143 l 1,2,-1
 231 143 l 1,3,-1
 231 477 l 1,4,-1
 39 477 l 1,5,-1
 39 520 l 1,6,-1
 231 520 l 1,7,-1
 231 730 l 1,8,-1
 279 730 l 1,9,-1
 279 520 l 1,10,-1
 472 520 l 1,11,-1
 472 477 l 1,12,-1
 279 477 l 1,13,-1
 279 143 l 1,14,-1
 472 143 l 1,15,-1
 472 100 l 1,16,-1
 279 100 l 1,17,-1
 279 -110 l 1,18,-1
 231 -110 l 1,19,-1
 231 100 l 1,0,-1
EndSplineSet
EndChar

StartChar: uni2116
Encoding: 8470 8470 530
Width: 1171
GlyphClass: 2
Flags: W
AnchorPoint: "Anchor-1" 358 730 basechar 0
AnchorPoint: "Anchor-0" 358 0 basechar 0
LayerCount: 2
Fore
SplineSet
777.5 365.5 m 128,-1,1
 727 423 727 423 727 524 c 256,2,3
 727 625 727 625 777.5 682.5 c 128,-1,4
 828 740 828 740 917 740 c 0,5,6
 1007 740 1007 740 1057 683 c 128,-1,7
 1107 626 1107 626 1107 524 c 256,8,9
 1107 422 1107 422 1057 365 c 128,-1,10
 1007 308 1007 308 917 308 c 0,11,0
 828 308 828 308 777.5 365.5 c 128,-1,1
151 730 m 1,12,-1
 573 73 l 1,13,-1
 575 73 l 1,14,-1
 575 730 l 1,15,-1
 625 730 l 1,16,-1
 625 0 l 1,17,-1
 564 0 l 1,18,-1
 142 657 l 1,19,-1
 140 657 l 1,20,-1
 140 0 l 1,21,-1
 90 0 l 1,22,-1
 90 730 l 1,23,-1
 151 730 l 1,12,-1
1022.5 394 m 128,-1,25
 1060 440 1060 440 1060 524 c 256,26,27
 1060 608 1060 608 1022.5 654 c 128,-1,28
 985 700 985 700 917 700 c 0,29,30
 850 700 850 700 812.5 654 c 128,-1,31
 775 608 775 608 775 524 c 256,32,33
 775 440 775 440 812.5 394 c 128,-1,34
 850 348 850 348 917 348 c 0,35,24
 985 348 985 348 1022.5 394 c 128,-1,25
737 237 m 1,36,-1
 1097 237 l 1,37,-1
 1097 195 l 1,38,-1
 737 195 l 1,39,-1
 737 237 l 1,36,-1
EndSplineSet
Ligature2: "'ordn' Ordinals in Latin lookup 9 subtable" N o period
EndChar

StartChar: uni0308
Encoding: 776 776 533
Width: 0
GlyphClass: 4
Flags: W
AnchorPoint: "Anchor-10" -191 706 basemark 0
AnchorPoint: "Anchor-10" -191 520 mark 0
AnchorPoint: "Anchor-6" -191 520 mark 0
AnchorPoint: "Anchor-1" -191 520 mark 0
LayerCount: 2
Fore
SplineSet
-354 706 m 1,0,-1
 -272 706 l 1,1,-1
 -272 624 l 1,2,-1
 -354 624 l 1,3,-1
 -354 706 l 1,0,-1
-109 706 m 1,4,-1
 -28 706 l 1,5,-1
 -28 624 l 1,6,-1
 -109 624 l 1,7,-1
 -109 706 l 1,4,-1
EndSplineSet
EndChar

StartChar: uni0307
Encoding: 775 775 534
Width: 0
GlyphClass: 4
Flags: W
AnchorPoint: "Anchor-10" -69 706 basemark 0
AnchorPoint: "Anchor-10" -69 520 mark 0
AnchorPoint: "Anchor-6" -69 520 mark 0
AnchorPoint: "Anchor-1" -69 520 mark 0
LayerCount: 2
Fore
SplineSet
-110 706 m 1,0,-1
 -28 706 l 1,1,-1
 -28 624 l 1,2,-1
 -110 624 l 1,3,-1
 -110 706 l 1,0,-1
EndSplineSet
EndChar

StartChar: gravecomb
Encoding: 768 768 535
Width: 0
GlyphClass: 4
Flags: W
AnchorPoint: "Anchor-10" -127 520 mark 0
AnchorPoint: "Anchor-6" -127 520 mark 0
AnchorPoint: "Anchor-1" -127 520 mark 0
LayerCount: 2
Fore
SplineSet
-220 770 m 1,0,-1
 -158 770 l 1,1,-1
 -46 560 l 1,2,-1
 -97 560 l 1,3,-1
 -220 770 l 1,0,-1
EndSplineSet
EndChar

StartChar: acutecomb
Encoding: 769 769 536
Width: 0
GlyphClass: 4
Flags: W
AnchorPoint: "Anchor-10" -120 520 mark 0
AnchorPoint: "Anchor-6" -120 520 mark 0
AnchorPoint: "Anchor-1" -120 520 mark 0
LayerCount: 2
Fore
SplineSet
-150 560 m 1,0,-1
 -202 560 l 1,1,-1
 -89 770 l 1,2,-1
 -28 770 l 1,3,-1
 -150 560 l 1,0,-1
EndSplineSet
EndChar

StartChar: uni0302
Encoding: 770 770 538
Width: 0
GlyphClass: 4
Flags: W
AnchorPoint: "Anchor-10" -216 520 mark 0
AnchorPoint: "Anchor-6" -216 520 mark 0
AnchorPoint: "Anchor-1" -216 520 mark 0
LayerCount: 2
Fore
SplineSet
-258 770 m 1,0,-1
 -174 770 l 1,1,-1
 -28 560 l 1,2,-1
 -87 560 l 1,3,-1
 -215 744 l 1,4,-1
 -217 744 l 1,5,-1
 -345 560 l 1,6,-1
 -404 560 l 1,7,-1
 -258 770 l 1,0,-1
EndSplineSet
EndChar

StartChar: uni030C
Encoding: 780 780 539
Width: 0
GlyphClass: 4
Flags: W
AnchorPoint: "Anchor-10" -216 770 basemark 0
AnchorPoint: "Anchor-10" -216 520 mark 0
AnchorPoint: "Anchor-6" -216 520 mark 0
AnchorPoint: "Anchor-1" -216 520 mark 0
LayerCount: 2
Fore
SplineSet
-403 770 m 1,0,-1
 -344 770 l 1,1,-1
 -216 586 l 1,2,-1
 -214 586 l 1,3,-1
 -86 770 l 1,4,-1
 -27 770 l 1,5,-1
 -173 560 l 1,6,-1
 -257 560 l 1,7,-1
 -403 770 l 1,0,-1
EndSplineSet
EndChar

StartChar: uni0306
Encoding: 774 774 540
Width: 0
GlyphClass: 4
Flags: W
AnchorPoint: "Anchor-10" -191 520 mark 0
AnchorPoint: "Anchor-6" -191 520 mark 0
AnchorPoint: "Anchor-1" -191 520 mark 0
LayerCount: 2
Fore
SplineSet
-309 625.5 m 128,-1,1
 -357 663 -357 663 -365 724 c 1,2,-1
 -313 724 l 1,3,4
 -305 680 -305 680 -272.5 655 c 128,-1,5
 -240 630 -240 630 -191 630 c 256,6,7
 -142 630 -142 630 -109.5 655 c 128,-1,8
 -77 680 -77 680 -69 724 c 1,9,-1
 -17 724 l 1,10,11
 -25 663 -25 663 -73 625.5 c 128,-1,12
 -121 588 -121 588 -191 588 c 256,13,0
 -261 588 -261 588 -309 625.5 c 128,-1,1
EndSplineSet
EndChar

StartChar: uni030A
Encoding: 778 778 541
Width: 0
GlyphClass: 4
Flags: W
AnchorPoint: "Anchor-10" -156 717 basemark 0
AnchorPoint: "Anchor-10" -156 520 mark 0
AnchorPoint: "Anchor-6" -156 520 mark 0
AnchorPoint: "Anchor-1" -156 520 mark 0
LayerCount: 2
Fore
SplineSet
-222.5 540 m 128,-1,1
 -253 558 -253 558 -271 588.5 c 128,-1,2
 -289 619 -289 619 -289 655 c 256,3,4
 -289 691 -289 691 -271 721.5 c 128,-1,5
 -253 752 -253 752 -222.5 770 c 128,-1,6
 -192 788 -192 788 -156 788 c 0,7,8
 -119 788 -119 788 -88.5 770 c 128,-1,9
 -58 752 -58 752 -40 721.5 c 128,-1,10
 -22 691 -22 691 -22 655 c 256,11,12
 -22 619 -22 619 -40 588.5 c 128,-1,13
 -58 558 -58 558 -88.5 540 c 128,-1,14
 -119 522 -119 522 -156 522 c 0,15,0
 -192 522 -192 522 -222.5 540 c 128,-1,1
-89.5 589 m 128,-1,17
 -62 616 -62 616 -62 655 c 256,18,19
 -62 694 -62 694 -89.5 721 c 128,-1,20
 -117 748 -117 748 -156 748 c 0,21,22
 -194 748 -194 748 -221.5 721 c 128,-1,23
 -249 694 -249 694 -249 655 c 256,24,25
 -249 616 -249 616 -221.5 589 c 128,-1,26
 -194 562 -194 562 -156 562 c 0,27,16
 -117 562 -117 562 -89.5 589 c 128,-1,17
EndSplineSet
EndChar

StartChar: tildecomb
Encoding: 771 771 542
Width: 0
GlyphClass: 4
Flags: W
AnchorPoint: "Anchor-10" -202 734 basemark 0
AnchorPoint: "Anchor-10" -202 520 mark 0
AnchorPoint: "Anchor-6" -202 520 mark 0
AnchorPoint: "Anchor-1" -202 520 mark 0
LayerCount: 2
Fore
SplineSet
-161.5 609.5 m 128,-1,1
 -190 623 -190 623 -218 647 c 0,2,3
 -262 686 -262 686 -295 686 c 0,4,5
 -312 686 -312 686 -320 668 c 128,-1,6
 -328 650 -328 650 -328 606 c 1,7,-1
 -376 606 l 1,8,9
 -376 734 -376 734 -295 734 c 0,10,11
 -271 734 -271 734 -242.5 720.5 c 128,-1,12
 -214 707 -214 707 -186 683 c 0,13,14
 -142 644 -142 644 -109 644 c 0,15,16
 -92 644 -92 644 -84 662 c 128,-1,17
 -76 680 -76 680 -76 724 c 1,18,-1
 -28 724 l 1,19,20
 -28 596 -28 596 -109 596 c 0,21,0
 -133 596 -133 596 -161.5 609.5 c 128,-1,1
EndSplineSet
EndChar

StartChar: uni0304
Encoding: 772 772 543
Width: 0
GlyphClass: 4
Flags: W
AnchorPoint: "Anchor-10" -202 686 basemark 0
AnchorPoint: "Anchor-10" -202 520 mark 0
AnchorPoint: "Anchor-6" -202 520 mark 0
AnchorPoint: "Anchor-1" -202 520 mark 0
LayerCount: 2
Fore
SplineSet
-377 686 m 1,0,-1
 -28 686 l 1,1,-1
 -28 644 l 1,2,-1
 -377 644 l 1,3,-1
 -377 686 l 1,0,-1
EndSplineSet
EndChar

StartChar: uni0305
Encoding: 773 773 544
Width: 0
GlyphClass: 4
Flags: W
LayerCount: 2
Fore
SplineSet
-573 841 m 1,0,-1
 0 841 l 1,1,-1
 0 800 l 1,2,-1
 -573 800 l 1,3,-1
 -573 841 l 1,0,-1
EndSplineSet
EndChar

StartChar: hookabovecomb
Encoding: 777 777 545
Width: 0
GlyphClass: 4
Flags: W
AnchorPoint: "Anchor-10" -164 768 basemark 0
AnchorPoint: "Anchor-10" -164 520 mark 0
AnchorPoint: "Anchor-6" -164 520 mark 0
AnchorPoint: "Anchor-1" -164 520 mark 0
LayerCount: 2
Fore
SplineSet
-85 637 m 128,-1,1
 -80 661 -80 661 -80 678 c 0,2,3
 -80 706 -80 706 -99 716 c 128,-1,4
 -118 726 -118 726 -172 726 c 0,5,6
 -229 726 -229 726 -292 710 c 1,7,-1
 -299 751 l 1,8,9
 -229 768 -229 768 -163 768 c 0,10,11
 -87 768 -87 768 -57.5 751.5 c 128,-1,12
 -28 735 -28 735 -28 692 c 0,13,14
 -28 672 -28 672 -33 645 c 128,-1,15
 -38 618 -38 618 -45 598 c 1,16,-1
 -96 598 l 1,17,0
 -90 613 -90 613 -85 637 c 128,-1,1
EndSplineSet
EndChar

StartChar: uni030F
Encoding: 783 783 546
Width: 0
GlyphClass: 4
Flags: W
AnchorPoint: "Anchor-10" -218 770 basemark 0
AnchorPoint: "Anchor-10" -218 520 mark 0
AnchorPoint: "Anchor-6" -218 520 mark 0
AnchorPoint: "Anchor-1" -218 520 mark 0
LayerCount: 2
Fore
SplineSet
-415 770 m 1,0,-1
 -353 770 l 1,1,-1
 -241 560 l 1,2,-1
 -292 560 l 1,3,-1
 -415 770 l 1,0,-1
-220 770 m 1,4,-1
 -158 770 l 1,5,-1
 -46 560 l 1,6,-1
 -97 560 l 1,7,-1
 -220 770 l 1,4,-1
EndSplineSet
EndChar

StartChar: uni0311
Encoding: 785 785 547
Width: 0
GlyphClass: 4
Flags: W
AnchorPoint: "Anchor-10" -191 742 basemark 0
AnchorPoint: "Anchor-10" -191 520 mark 0
AnchorPoint: "Anchor-6" -191 520 mark 0
AnchorPoint: "Anchor-1" -191 520 mark 0
LayerCount: 2
Fore
SplineSet
-73 704.5 m 128,-1,1
 -25 667 -25 667 -17 606 c 1,2,-1
 -69 606 l 1,3,4
 -77 650 -77 650 -109.5 675 c 128,-1,5
 -142 700 -142 700 -191 700 c 256,6,7
 -240 700 -240 700 -272.5 675 c 128,-1,8
 -305 650 -305 650 -313 606 c 1,9,-1
 -365 606 l 1,10,11
 -357 667 -357 667 -309 704.5 c 128,-1,12
 -261 742 -261 742 -191 742 c 256,13,0
 -121 742 -121 742 -73 704.5 c 128,-1,1
EndSplineSet
EndChar

StartChar: uni0312
Encoding: 786 786 548
Width: 0
GlyphClass: 4
Flags: W
AnchorPoint: "Anchor-10" -132 770 basemark 0
AnchorPoint: "Anchor-10" -132 520 mark 0
AnchorPoint: "Anchor-6" -132 520 mark 0
AnchorPoint: "Anchor-1" -132 520 mark 0
LayerCount: 2
Fore
SplineSet
-97 770 m 1,0,-1
 -46 770 l 1,1,-1
 -158 560 l 1,2,-1
 -220 560 l 1,3,-1
 -97 770 l 1,0,-1
EndSplineSet
EndChar

StartChar: uni031B
Encoding: 795 795 549
Width: 0
GlyphClass: 4
Flags: W
AnchorPoint: "Anchor-11" -70 770 basemark 0
AnchorPoint: "Anchor-11" -259 617 mark 0
AnchorPoint: "Anchor-7" -259 617 mark 0
AnchorPoint: "Anchor-3" -259 617 mark 0
LayerCount: 2
Fore
SplineSet
-267 574 m 1,1,-1
 -259 617 l 1,2,3
 -234 599 -234 599 -202 599 c 0,4,5
 -141 599 -141 599 -141 673 c 0,6,7
 -141 695 -141 695 -146 723.5 c 128,-1,8
 -151 752 -151 752 -159 770 c 1,9,-1
 -108 770 l 1,10,11
 -90 719 -90 719 -90 669 c 0,12,13
 -90 615 -90 615 -116 585 c 128,-1,14
 -142 555 -142 555 -189 555 c 0,15,0
 -227 555 -227 555 -267 574 c 1,1,-1
EndSplineSet
EndChar

StartChar: uni0326
Encoding: 806 806 552
Width: 0
GlyphClass: 4
Flags: W
AnchorPoint: "Anchor-10" -120 -290 mark 0
AnchorPoint: "Anchor-9" -114 -210 basemark 0
AnchorPoint: "Anchor-6" -120 -290 mark 0
AnchorPoint: "Anchor-1" -120 -290 mark 0
LayerCount: 2
Fore
SplineSet
-150 -250 m 1,0,-1
 -202 -250 l 1,1,-1
 -89 -40 l 1,2,-1
 -28 -40 l 1,3,-1
 -150 -250 l 1,0,-1
EndSplineSet
EndChar

StartChar: uni0327
Encoding: 807 807 553
Width: 0
GlyphClass: 4
Flags: W
AnchorPoint: "Anchor-8" -214 0 mark 0
LayerCount: 2
Fore
SplineSet
-301 -198 m 1,1,-1
 -290 -158 l 1,2,3
 -249 -177 -249 -177 -199 -177 c 0,4,5
 -158 -177 -158 -177 -131 -164 c 128,-1,6
 -104 -151 -104 -151 -104 -121 c 0,7,8
 -104 -92 -104 -92 -132.5 -60.5 c 128,-1,9
 -161 -29 -161 -29 -214 0 c 1,10,-1
 -170 17 l 1,11,12
 -115 -16 -115 -16 -86 -52.5 c 128,-1,13
 -57 -89 -57 -89 -57 -127 c 0,14,15
 -57 -166 -57 -166 -89.5 -192.5 c 128,-1,16
 -122 -219 -122 -219 -196 -219 c 0,17,0
 -253 -219 -253 -219 -301 -198 c 1,1,-1
EndSplineSet
EndChar

StartChar: uni0328
Encoding: 808 808 554
Width: 0
GlyphClass: 4
Flags: W
AnchorPoint: "Anchor-5" -144 0 mark 0
AnchorPoint: "Anchor-2" -144 0 mark 0
LayerCount: 2
Fore
SplineSet
-268.5 -192.5 m 128,-1,1
 -301 -166 -301 -166 -301 -127 c 0,2,3
 -301 -89 -301 -89 -272 -52.5 c 128,-1,4
 -243 -16 -243 -16 -189 17 c 1,5,-1
 -144 0 l 1,6,7
 -197 -29 -197 -29 -225.5 -60.5 c 128,-1,8
 -254 -92 -254 -92 -254 -121 c 0,9,10
 -254 -151 -254 -151 -227 -164 c 128,-1,11
 -200 -177 -200 -177 -159 -177 c 0,12,13
 -109 -177 -109 -177 -68 -158 c 1,14,-1
 -57 -198 l 1,15,16
 -105 -219 -105 -219 -162 -219 c 0,17,0
 -236 -219 -236 -219 -268.5 -192.5 c 128,-1,1
EndSplineSet
EndChar

StartChar: uni0370
Encoding: 880 880 570
Width: 569
Flags: W
LayerCount: 2
Fore
SplineSet
521 417 m 1,0,-1
 521 375 l 1,1,-1
 138 375 l 1,2,-1
 138 0 l 1,3,-1
 88 0 l 1,4,-1
 88 730 l 1,5,-1
 138 730 l 1,6,-1
 138 417 l 1,7,-1
 521 417 l 1,0,-1
EndSplineSet
EndChar

StartChar: uni0371
Encoding: 881 881 571
Width: 439
Flags: W
LayerCount: 2
Fore
SplineSet
391 302 m 1,0,-1
 391 262 l 1,1,-1
 125 262 l 1,2,-1
 125 0 l 1,3,-1
 78 0 l 1,4,-1
 78 520 l 1,5,-1
 125 520 l 1,6,-1
 125 302 l 1,7,-1
 391 302 l 1,0,-1
EndSplineSet
EndChar

StartChar: uni0372
Encoding: 882 882 572
Width: 706
Flags: W
LayerCount: 2
Fore
SplineSet
328 686 m 1,0,-1
 116 686 l 1,1,-1
 116 377 l 1,2,-1
 68 377 l 1,3,-1
 68 730 l 1,4,-1
 638 730 l 1,5,-1
 638 377 l 1,6,-1
 590 377 l 1,7,-1
 590 686 l 1,8,-1
 378 686 l 1,9,-1
 378 0 l 1,10,-1
 328 0 l 1,11,-1
 328 686 l 1,0,-1
EndSplineSet
EndChar

StartChar: uni0373
Encoding: 883 883 573
Width: 580
Flags: W
LayerCount: 2
Fore
SplineSet
267 690 m 1,0,-1
 107 690 l 1,1,-1
 107 477 l 1,2,-1
 63 477 l 1,3,-1
 63 730 l 1,4,-1
 517 730 l 1,5,-1
 517 477 l 1,6,-1
 473 477 l 1,7,-1
 473 690 l 1,8,-1
 313 690 l 1,9,-1
 313 0 l 1,10,-1
 267 0 l 1,11,-1
 267 690 l 1,0,-1
EndSplineSet
EndChar

StartChar: uni0374
Encoding: 884 884 574
Width: 259
Flags: W
LayerCount: 2
Fore
SplineSet
73 537 m 1,0,-1
 150 770 l 1,1,-1
 211 770 l 1,2,-1
 121 537 l 1,3,-1
 73 537 l 1,0,-1
EndSplineSet
EndChar

StartChar: uni0375
Encoding: 885 885 575
Width: 259
Flags: W
LayerCount: 2
Fore
SplineSet
109 -110 m 1,0,-1
 48 -110 l 1,1,-1
 138 123 l 1,2,-1
 186 123 l 1,3,-1
 109 -110 l 1,0,-1
EndSplineSet
EndChar

StartChar: uni0376
Encoding: 886 886 576
Width: 702
Flags: W
LayerCount: 2
Fore
SplineSet
614 0 m 1,0,-1
 565 0 l 1,1,-1
 565 654 l 1,2,-1
 563 654 l 1,3,-1
 145 0 l 1,4,-1
 88 0 l 1,5,-1
 88 730 l 1,6,-1
 137 730 l 1,7,-1
 137 76 l 1,8,-1
 139 76 l 1,9,-1
 557 730 l 1,10,-1
 614 730 l 1,11,-1
 614 0 l 1,0,-1
EndSplineSet
EndChar

StartChar: uni0377
Encoding: 887 887 577
Width: 598
Flags: W
LayerCount: 2
Fore
SplineSet
126 63 m 1,0,-1
 128 63 l 1,1,-1
 465 520 l 1,2,-1
 520 520 l 1,3,-1
 520 0 l 1,4,-1
 472 0 l 1,5,-1
 472 457 l 1,6,-1
 470 457 l 1,7,-1
 133 0 l 1,8,-1
 78 0 l 1,9,-1
 78 520 l 1,10,-1
 126 520 l 1,11,-1
 126 63 l 1,0,-1
EndSplineSet
EndChar

StartChar: uni037A
Encoding: 890 890 578
Width: 343
Flags: W
LayerCount: 2
Fore
SplineSet
136 -115 m 2,0,1
 136 -186 136 -186 147.5 -201.5 c 128,-1,2
 159 -217 159 -217 211 -217 c 0,3,4
 252 -217 252 -217 286 -203 c 1,5,-1
 295 -238 l 1,6,7
 253 -253 253 -253 205 -253 c 0,8,9
 130 -253 130 -253 109 -227 c 128,-1,10
 88 -201 88 -201 88 -115 c 2,11,-1
 88 -60 l 1,12,-1
 136 -60 l 1,13,-1
 136 -115 l 2,0,1
EndSplineSet
EndChar

StartChar: uni037B
Encoding: 891 891 579
Width: 515
Flags: W
LayerCount: 2
Fore
SplineSet
83 63 m 1,0,1
 146 30 146 30 215 30 c 0,2,3
 308 30 308 30 365.5 93 c 128,-1,4
 423 156 423 156 423 260 c 0,5,6
 423 368 423 368 368 428.5 c 128,-1,7
 313 489 313 489 215 489 c 0,8,9
 146 489 146 489 83 456 c 1,10,-1
 68 495 l 1,11,12
 138 530 138 530 217 530 c 0,13,14
 336 530 336 530 404 458 c 128,-1,15
 472 386 472 386 472 260 c 0,16,17
 472 138 472 138 401.5 64 c 128,-1,18
 331 -10 331 -10 217 -10 c 0,19,20
 138 -10 138 -10 68 25 c 1,21,-1
 83 63 l 1,0,1
EndSplineSet
EndChar

StartChar: uni037C
Encoding: 892 892 580
Width: 515
Flags: W
LayerCount: 2
Fore
SplineSet
295 203 m 1,0,-1
 295 317 l 1,1,-1
 342 317 l 1,2,-1
 342 203 l 1,3,-1
 295 203 l 1,0,-1
432 456 m 1,4,5
 369 489 369 489 300 489 c 0,6,7
 202 489 202 489 147 428.5 c 128,-1,8
 92 368 92 368 92 260 c 0,9,10
 92 156 92 156 149.5 93 c 128,-1,11
 207 30 207 30 300 30 c 0,12,13
 369 30 369 30 432 63 c 1,14,-1
 447 25 l 1,15,16
 377 -10 377 -10 298 -10 c 0,17,18
 184 -10 184 -10 113.5 64 c 128,-1,19
 43 138 43 138 43 260 c 0,20,21
 43 386 43 386 111 458 c 128,-1,22
 179 530 179 530 298 530 c 0,23,24
 377 530 377 530 447 495 c 1,25,-1
 432 456 l 1,4,5
EndSplineSet
EndChar

StartChar: uni037D
Encoding: 893 893 581
Width: 515
Flags: W
LayerCount: 2
Fore
SplineSet
173 203 m 1,0,-1
 173 317 l 1,1,-1
 220 317 l 1,2,-1
 220 203 l 1,3,-1
 173 203 l 1,0,-1
83 456 m 1,4,-1
 68 495 l 1,5,6
 138 530 138 530 217 530 c 0,7,8
 336 530 336 530 404 458 c 128,-1,9
 472 386 472 386 472 260 c 0,10,11
 472 138 472 138 401.5 64 c 128,-1,12
 331 -10 331 -10 217 -10 c 0,13,14
 138 -10 138 -10 68 25 c 1,15,-1
 83 63 l 1,16,17
 146 30 146 30 215 30 c 0,18,19
 308 30 308 30 365.5 93 c 128,-1,20
 423 156 423 156 423 260 c 0,21,22
 423 368 423 368 368 428.5 c 128,-1,23
 313 489 313 489 215 489 c 0,24,25
 146 489 146 489 83 456 c 1,4,-1
EndSplineSet
EndChar

StartChar: uni037E
Encoding: 894 894 582
Width: 354
Flags: W
LayerCount: 2
Fore
SplineSet
160 123 m 1,0,-1
 221 123 l 1,1,-1
 131 -110 l 1,2,-1
 83 -110 l 1,3,-1
 160 123 l 1,0,-1
150 383 m 1,4,-1
 150 513 l 1,5,-1
 206 513 l 1,6,-1
 206 383 l 1,7,-1
 150 383 l 1,4,-1
EndSplineSet
EndChar

StartChar: tonos
Encoding: 900 900 583
Width: 301
Flags: W
LayerCount: 2
Fore
SplineSet
123 590 m 1,0,-1
 73 590 l 1,1,-1
 190 753 l 1,2,-1
 253 753 l 1,3,-1
 123 590 l 1,0,-1
EndSplineSet
EndChar

StartChar: dieresistonos
Encoding: 901 901 584
Width: 413
Flags: W
LayerCount: 2
Fore
SplineSet
205 790 m 1,0,-1
 155 790 l 1,1,-1
 272 953 l 1,2,-1
 335 953 l 1,3,-1
 205 790 l 1,0,-1
278 610 m 1,4,-1
 278 733 l 1,5,-1
 324 733 l 1,6,-1
 324 610 l 1,7,-1
 278 610 l 1,4,-1
78 610 m 1,8,-1
 78 733 l 1,9,-1
 124 733 l 1,10,-1
 124 610 l 1,11,-1
 78 610 l 1,8,-1
EndSplineSet
EndChar

StartChar: Alphatonos
Encoding: 902 902 585
Width: 672
Flags: W
LayerCount: 2
Fore
SplineSet
331 686 m 1,0,-1
 329 686 l 1,1,-1
 179 273 l 1,2,-1
 481 273 l 1,3,-1
 331 686 l 1,0,-1
82 590 m 1,4,-1
 32 590 l 1,5,-1
 149 753 l 1,6,-1
 212 753 l 1,7,-1
 82 590 l 1,4,-1
497 231 m 1,8,-1
 164 231 l 1,9,-1
 80 0 l 1,10,-1
 28 0 l 1,11,-1
 301 730 l 1,12,-1
 361 730 l 1,13,-1
 634 0 l 1,14,-1
 581 0 l 1,15,-1
 497 231 l 1,8,-1
EndSplineSet
EndChar

StartChar: anoteleia
Encoding: 903 903 586
Width: 252
Flags: W
LayerCount: 2
Fore
SplineSet
98 225 m 1,0,-1
 98 355 l 1,1,-1
 154 355 l 1,2,-1
 154 225 l 1,3,-1
 98 225 l 1,0,-1
EndSplineSet
EndChar

StartChar: Epsilontonos
Encoding: 904 904 587
Width: 741
Flags: W
LayerCount: 2
Fore
SplineSet
300 687 m 1,0,-1
 300 417 l 1,1,-1
 643 417 l 1,2,-1
 643 375 l 1,3,-1
 300 375 l 1,4,-1
 300 43 l 1,5,-1
 663 43 l 1,6,-1
 663 0 l 1,7,-1
 250 0 l 1,8,-1
 250 730 l 1,9,-1
 663 730 l 1,10,-1
 663 687 l 1,11,-1
 300 687 l 1,0,-1
78 590 m 1,12,-1
 28 590 l 1,13,-1
 145 753 l 1,14,-1
 208 753 l 1,15,-1
 78 590 l 1,12,-1
EndSplineSet
EndChar

StartChar: Etatonos
Encoding: 905 905 588
Width: 857
Flags: W
LayerCount: 2
Fore
SplineSet
299 730 m 1,0,-1
 299 417 l 1,1,-1
 719 417 l 1,2,-1
 719 730 l 1,3,-1
 769 730 l 1,4,-1
 769 0 l 1,5,-1
 719 0 l 1,6,-1
 719 375 l 1,7,-1
 299 375 l 1,8,-1
 299 0 l 1,9,-1
 249 0 l 1,10,-1
 249 730 l 1,11,-1
 299 730 l 1,0,-1
78 590 m 1,12,-1
 28 590 l 1,13,-1
 145 753 l 1,14,-1
 208 753 l 1,15,-1
 78 590 l 1,12,-1
EndSplineSet
EndChar

StartChar: Iotatonos
Encoding: 906 906 589
Width: 451
Flags: W
LayerCount: 2
Fore
SplineSet
275 0 m 1,0,-1
 275 730 l 1,1,-1
 328 730 l 1,2,-1
 328 0 l 1,3,-1
 275 0 l 1,0,-1
103 590 m 1,4,-1
 53 590 l 1,5,-1
 169 753 l 1,6,-1
 233 753 l 1,7,-1
 103 590 l 1,4,-1
EndSplineSet
EndChar

StartChar: Omicrontonos
Encoding: 908 908 590
Width: 906
Flags: W
LayerCount: 2
Fore
SplineSet
510 697 m 128,-1,1
 374 697 374 697 290.5 606 c 128,-1,2
 207 515 207 515 207 365 c 128,-1,3
 207 215 207 215 290.5 124 c 128,-1,4
 374 33 374 33 510 33 c 128,-1,5
 646 33 646 33 729.5 124 c 128,-1,6
 813 215 813 215 813 365 c 128,-1,7
 813 515 813 515 729.5 606 c 128,-1,0
 646 697 646 697 510 697 c 128,-1,1
78 590 m 1,8,-1
 28 590 l 1,9,-1
 145 753 l 1,10,-1
 208 753 l 1,11,-1
 78 590 l 1,8,-1
510 -10 m 128,-1,13
 351 -10 351 -10 254 93 c 128,-1,14
 157 196 157 196 157 365 c 128,-1,15
 157 534 157 534 254 637 c 128,-1,16
 351 740 351 740 510 740 c 128,-1,17
 669 740 669 740 766 637 c 128,-1,18
 863 534 863 534 863 365 c 128,-1,19
 863 196 863 196 766 93 c 128,-1,12
 669 -10 669 -10 510 -10 c 128,-1,13
EndSplineSet
EndChar

StartChar: Upsilontonos
Encoding: 910 910 591
Width: 862
Flags: W
LayerCount: 2
Fore
SplineSet
298 730 m 1,0,-1
 533 362 l 1,1,-1
 535 362 l 1,2,-1
 771 730 l 1,3,-1
 829 730 l 1,4,-1
 559 318 l 1,5,-1
 559 0 l 1,6,-1
 508 0 l 1,7,-1
 508 318 l 1,8,-1
 239 730 l 1,9,-1
 298 730 l 1,0,-1
78 590 m 1,10,-1
 28 590 l 1,11,-1
 145 753 l 1,12,-1
 208 753 l 1,13,-1
 78 590 l 1,10,-1
EndSplineSet
EndChar

StartChar: Omegatonos
Encoding: 911 911 592
Width: 936
Flags: W
LayerCount: 2
Fore
SplineSet
510 740 m 128,-1,1
 667 740 667 740 765 639.5 c 128,-1,2
 863 539 863 539 863 380 c 0,3,4
 863 263 863 263 814.5 177 c 128,-1,5
 766 91 766 91 677 45 c 1,6,-1
 677 42 l 1,7,-1
 878 42 l 1,8,-1
 878 0 l 1,9,-1
 571 0 l 1,10,-1
 571 42 l 1,11,12
 681 65 681 65 747 154 c 128,-1,13
 813 243 813 243 813 373 c 0,14,15
 813 517 813 517 729 607 c 128,-1,16
 645 697 645 697 510 697 c 128,-1,17
 375 697 375 697 291 607 c 128,-1,18
 207 517 207 517 207 373 c 0,19,20
 207 243 207 243 273 154 c 128,-1,21
 339 65 339 65 449 42 c 1,22,-1
 449 0 l 1,23,-1
 142 0 l 1,24,-1
 142 42 l 1,25,-1
 343 42 l 1,26,-1
 343 45 l 1,27,28
 254 91 254 91 205.5 177 c 128,-1,29
 157 263 157 263 157 380 c 0,30,31
 157 539 157 539 255 639.5 c 128,-1,0
 353 740 353 740 510 740 c 128,-1,1
78 590 m 1,32,-1
 28 590 l 1,33,-1
 145 753 l 1,34,-1
 208 753 l 1,35,-1
 78 590 l 1,32,-1
EndSplineSet
EndChar

StartChar: iotadieresistonos
Encoding: 912 912 593
Width: 460
Flags: W
LayerCount: 2
Fore
SplineSet
215 520 m 1,0,-1
 215 153 l 2,1,2
 215 78 215 78 236.5 54 c 128,-1,3
 258 30 258 30 317 30 c 0,4,5
 364 30 364 30 402 45 c 1,6,-1
 412 7 l 1,7,8
 364 -10 364 -10 312 -10 c 0,9,10
 231 -10 231 -10 199 24.5 c 128,-1,11
 167 59 167 59 167 147 c 2,12,-1
 167 520 l 1,13,-1
 215 520 l 1,0,-1
268 610 m 1,14,-1
 268 733 l 1,15,-1
 314 733 l 1,16,-1
 314 610 l 1,17,-1
 268 610 l 1,14,-1
68 610 m 1,18,-1
 68 733 l 1,19,-1
 114 733 l 1,20,-1
 114 610 l 1,21,-1
 68 610 l 1,18,-1
214 790 m 1,22,-1
 164 790 l 1,23,-1
 281 953 l 1,24,-1
 344 953 l 1,25,-1
 214 790 l 1,22,-1
EndSplineSet
EndChar

StartChar: Alpha
Encoding: 913 913 594
Width: 682
Flags: W
LayerCount: 2
Fore
SplineSet
38 0 m 1,0,-1
 311 730 l 1,1,-1
 371 730 l 1,2,-1
 644 0 l 1,3,-1
 591 0 l 1,4,-1
 507 231 l 1,5,-1
 174 231 l 1,6,-1
 90 0 l 1,7,-1
 38 0 l 1,0,-1
189 273 m 1,8,-1
 491 273 l 1,9,-1
 341 686 l 1,10,-1
 339 686 l 1,11,-1
 189 273 l 1,8,-1
EndSplineSet
EndChar

StartChar: Gamma
Encoding: 915 915 596
Width: 550
Flags: W
LayerCount: 2
Fore
SplineSet
140 685 m 1,0,-1
 140 0 l 1,1,-1
 88 0 l 1,2,-1
 88 730 l 1,3,-1
 492 730 l 1,4,-1
 492 685 l 1,5,-1
 140 685 l 1,0,-1
EndSplineSet
EndChar

StartChar: uni0394
Encoding: 916 916 597
Width: 682
Flags: W
LayerCount: 2
Fore
SplineSet
341 686 m 1,0,-1
 339 686 l 1,1,-1
 105 43 l 1,2,-1
 575 43 l 1,3,-1
 341 686 l 1,0,-1
591 0 m 1,4,-1
 90 0 l 1,5,-1
 74 0 l 1,6,-1
 38 0 l 1,7,-1
 311 730 l 1,8,-1
 371 730 l 1,9,-1
 644 0 l 1,10,-1
 608 0 l 1,11,-1
 591 0 l 1,4,-1
EndSplineSet
EndChar

StartChar: Epsilon
Encoding: 917 917 598
Width: 579
Flags: W
LayerCount: 2
Fore
SplineSet
138 687 m 1,0,-1
 138 417 l 1,1,-1
 481 417 l 1,2,-1
 481 375 l 1,3,-1
 138 375 l 1,4,-1
 138 43 l 1,5,-1
 501 43 l 1,6,-1
 501 0 l 1,7,-1
 88 0 l 1,8,-1
 88 730 l 1,9,-1
 501 730 l 1,10,-1
 501 687 l 1,11,-1
 138 687 l 1,0,-1
EndSplineSet
EndChar

StartChar: Zeta
Encoding: 918 918 599
Width: 630
Flags: W
LayerCount: 2
Fore
SplineSet
78 687 m 1,0,-1
 78 730 l 1,1,-1
 552 730 l 1,2,-1
 552 687 l 1,3,-1
 138 45 l 1,4,-1
 138 43 l 1,5,-1
 552 43 l 1,6,-1
 552 0 l 1,7,-1
 78 0 l 1,8,-1
 78 43 l 1,9,-1
 492 685 l 1,10,-1
 492 687 l 1,11,-1
 78 687 l 1,0,-1
EndSplineSet
EndChar

StartChar: Eta
Encoding: 919 919 600
Width: 696
Flags: W
LayerCount: 2
Fore
SplineSet
138 730 m 1,0,-1
 138 417 l 1,1,-1
 558 417 l 1,2,-1
 558 730 l 1,3,-1
 608 730 l 1,4,-1
 608 0 l 1,5,-1
 558 0 l 1,6,-1
 558 375 l 1,7,-1
 138 375 l 1,8,-1
 138 0 l 1,9,-1
 88 0 l 1,10,-1
 88 730 l 1,11,-1
 138 730 l 1,0,-1
EndSplineSet
EndChar

StartChar: Theta
Encoding: 920 920 601
Width: 792
Flags: W
LayerCount: 2
Fore
SplineSet
193 343 m 1,0,-1
 193 387 l 1,1,-1
 599 387 l 1,2,-1
 599 343 l 1,3,-1
 193 343 l 1,0,-1
43 365 m 128,-1,5
 43 534 43 534 140 637 c 128,-1,6
 237 740 237 740 396 740 c 128,-1,7
 555 740 555 740 652 637 c 128,-1,8
 749 534 749 534 749 365 c 128,-1,9
 749 196 749 196 652 93 c 128,-1,10
 555 -10 555 -10 396 -10 c 128,-1,11
 237 -10 237 -10 140 93 c 128,-1,4
 43 196 43 196 43 365 c 128,-1,5
396 33 m 128,-1,13
 532 33 532 33 615.5 124 c 128,-1,14
 699 215 699 215 699 365 c 128,-1,15
 699 515 699 515 615.5 606 c 128,-1,16
 532 697 532 697 396 697 c 128,-1,17
 260 697 260 697 176.5 606 c 128,-1,18
 93 515 93 515 93 365 c 128,-1,19
 93 215 93 215 176.5 124 c 128,-1,12
 260 33 260 33 396 33 c 128,-1,13
EndSplineSet
EndChar

StartChar: Iota
Encoding: 921 921 602
Width: 300
Flags: W
LayerCount: 2
Fore
SplineSet
123 0 m 1,0,-1
 123 730 l 1,1,-1
 177 730 l 1,2,-1
 177 0 l 1,3,-1
 123 0 l 1,0,-1
EndSplineSet
EndChar

StartChar: Kappa
Encoding: 922 922 603
Width: 613
Flags: W
LayerCount: 2
Fore
SplineSet
140 361 m 1,0,-1
 138 361 l 1,1,-1
 138 0 l 1,2,-1
 88 0 l 1,3,-1
 88 730 l 1,4,-1
 138 730 l 1,5,-1
 138 399 l 1,6,-1
 140 399 l 1,7,-1
 501 730 l 1,8,-1
 565 730 l 1,9,-1
 181 380 l 1,10,-1
 575 0 l 1,11,-1
 511 0 l 1,12,-1
 140 361 l 1,0,-1
EndSplineSet
EndChar

StartChar: Lambda
Encoding: 923 923 604
Width: 682
Flags: W
LayerCount: 2
Fore
SplineSet
644 0 m 1,0,-1
 591 0 l 1,1,-1
 341 686 l 1,2,-1
 339 686 l 1,3,-1
 90 0 l 1,4,-1
 38 0 l 1,5,-1
 311 730 l 1,6,-1
 371 730 l 1,7,-1
 644 0 l 1,0,-1
EndSplineSet
EndChar

StartChar: Mu
Encoding: 924 924 605
Width: 850
Flags: W
LayerCount: 2
Fore
SplineSet
712 0 m 1,0,-1
 712 652 l 1,1,-1
 710 652 l 1,2,-1
 449 233 l 1,3,-1
 400 233 l 1,4,-1
 139 652 l 1,5,-1
 137 652 l 1,6,-1
 137 0 l 1,7,-1
 88 0 l 1,8,-1
 88 730 l 1,9,-1
 145 730 l 1,10,-1
 423 280 l 1,11,-1
 425 280 l 1,12,-1
 704 730 l 1,13,-1
 762 730 l 1,14,-1
 762 0 l 1,15,-1
 712 0 l 1,0,-1
EndSplineSet
EndChar

StartChar: Nu
Encoding: 925 925 606
Width: 702
Flags: W
LayerCount: 2
Fore
SplineSet
88 0 m 1,0,-1
 88 730 l 1,1,-1
 145 730 l 1,2,-1
 563 76 l 1,3,-1
 565 76 l 1,4,-1
 565 730 l 1,5,-1
 614 730 l 1,6,-1
 614 0 l 1,7,-1
 557 0 l 1,8,-1
 139 654 l 1,9,-1
 137 654 l 1,10,-1
 137 0 l 1,11,-1
 88 0 l 1,0,-1
EndSplineSet
EndChar

StartChar: Xi
Encoding: 926 926 607
Width: 600
Flags: W
LayerCount: 2
Fore
SplineSet
78 0 m 1,0,-1
 78 43 l 1,1,-1
 522 43 l 1,2,-1
 522 0 l 1,3,-1
 78 0 l 1,0,-1
98 375 m 1,4,-1
 98 417 l 1,5,-1
 502 417 l 1,6,-1
 502 375 l 1,7,-1
 98 375 l 1,4,-1
78 687 m 1,8,-1
 78 730 l 1,9,-1
 522 730 l 1,10,-1
 522 687 l 1,11,-1
 78 687 l 1,8,-1
EndSplineSet
EndChar

StartChar: Pi
Encoding: 928 928 609
Width: 696
Flags: W
LayerCount: 2
Fore
SplineSet
88 730 m 1,0,-1
 608 730 l 1,1,-1
 608 0 l 1,2,-1
 558 0 l 1,3,-1
 558 687 l 1,4,-1
 138 687 l 1,5,-1
 138 0 l 1,6,-1
 88 0 l 1,7,-1
 88 730 l 1,0,-1
EndSplineSet
EndChar

StartChar: Sigma
Encoding: 931 931 611
Width: 559
Flags: W
LayerCount: 2
Fore
SplineSet
130 687 m 1,0,-1
 356 384 l 1,1,-1
 129 43 l 1,2,-1
 486 43 l 1,3,-1
 486 0 l 1,4,-1
 73 0 l 1,5,-1
 73 43 l 1,6,-1
 300 383 l 1,7,-1
 73 687 l 1,8,-1
 73 730 l 1,9,-1
 486 730 l 1,10,-1
 486 687 l 1,11,-1
 130 687 l 1,0,-1
EndSplineSet
EndChar

StartChar: Tau
Encoding: 932 932 612
Width: 652
Flags: W
LayerCount: 2
Fore
SplineSet
63 730 m 1,0,-1
 589 730 l 1,1,-1
 589 686 l 1,2,-1
 351 686 l 1,3,-1
 351 0 l 1,4,-1
 301 0 l 1,5,-1
 301 686 l 1,6,-1
 63 686 l 1,7,-1
 63 730 l 1,0,-1
EndSplineSet
EndChar

StartChar: Upsilon
Encoding: 933 933 613
Width: 656
Flags: W
LayerCount: 2
Fore
SplineSet
92 730 m 1,0,-1
 328 362 l 1,1,-1
 330 362 l 1,2,-1
 565 730 l 1,3,-1
 623 730 l 1,4,-1
 354 318 l 1,5,-1
 354 0 l 1,6,-1
 302 0 l 1,7,-1
 302 318 l 1,8,-1
 33 730 l 1,9,-1
 92 730 l 1,0,-1
EndSplineSet
EndChar

StartChar: Phi
Encoding: 934 934 614
Width: 716
Flags: W
LayerCount: 2
Fore
SplineSet
383 142 m 1,0,1
 497 148 497 148 562.5 209 c 128,-1,2
 628 270 628 270 628 370 c 128,-1,3
 628 470 628 470 562.5 531 c 128,-1,4
 497 592 497 592 383 598 c 1,5,-1
 383 142 l 1,0,1
383 641 m 1,6,7
 519 634 519 634 598.5 561 c 128,-1,8
 678 488 678 488 678 370 c 128,-1,9
 678 252 678 252 598.5 179 c 128,-1,10
 519 106 519 106 383 99 c 1,11,-1
 383 0 l 1,12,-1
 333 0 l 1,13,-1
 333 99 l 1,14,15
 197 106 197 106 117.5 179 c 128,-1,16
 38 252 38 252 38 370 c 128,-1,17
 38 488 38 488 117.5 561 c 128,-1,18
 197 634 197 634 333 641 c 1,19,-1
 333 730 l 1,20,-1
 383 730 l 1,21,-1
 383 641 l 1,6,7
333 598 m 1,22,23
 219 592 219 592 153.5 531 c 128,-1,24
 88 470 88 470 88 370 c 128,-1,25
 88 270 88 270 153.5 209 c 128,-1,26
 219 148 219 148 333 142 c 1,27,-1
 333 598 l 1,22,23
EndSplineSet
EndChar

StartChar: Chi
Encoding: 935 935 615
Width: 636
Flags: W
LayerCount: 2
Fore
SplineSet
318 332 m 1,0,-1
 316 332 l 1,1,-1
 106 0 l 1,2,-1
 48 0 l 1,3,-1
 287 369 l 1,4,-1
 53 730 l 1,5,-1
 111 730 l 1,6,-1
 318 406 l 1,7,-1
 320 406 l 1,8,-1
 526 730 l 1,9,-1
 583 730 l 1,10,-1
 349 369 l 1,11,-1
 588 0 l 1,12,-1
 529 0 l 1,13,-1
 318 332 l 1,0,-1
EndSplineSet
EndChar

StartChar: Psi
Encoding: 936 936 616
Width: 782
Flags: W
LayerCount: 2
Fore
SplineSet
416 207 m 1,0,1
 535 213 535 213 597.5 275 c 128,-1,2
 660 337 660 337 660 449 c 2,3,-1
 660 730 l 1,4,-1
 709 730 l 1,5,-1
 709 452 l 2,6,7
 709 317 709 317 634.5 243.5 c 128,-1,8
 560 170 560 170 416 164 c 1,9,-1
 416 0 l 1,10,-1
 366 0 l 1,11,-1
 366 164 l 1,12,13
 222 170 222 170 147.5 243.5 c 128,-1,14
 73 317 73 317 73 452 c 2,15,-1
 73 730 l 1,16,-1
 122 730 l 1,17,-1
 122 449 l 2,18,19
 122 337 122 337 184.5 275 c 128,-1,20
 247 213 247 213 366 207 c 1,21,-1
 366 730 l 1,22,-1
 416 730 l 1,23,-1
 416 207 l 1,0,1
EndSplineSet
EndChar

StartChar: uni03A9
Encoding: 937 937 617
Width: 852
Flags: W
LayerCount: 2
Fore
SplineSet
426 740 m 128,-1,1
 583 740 583 740 681 639.5 c 128,-1,2
 779 539 779 539 779 380 c 0,3,4
 779 148 779 148 608 45 c 1,5,-1
 608 42 l 1,6,-1
 794 42 l 1,7,-1
 794 0 l 1,8,-1
 487 0 l 1,9,-1
 487 42 l 1,10,11
 597 65 597 65 663 154 c 128,-1,12
 729 243 729 243 729 373 c 0,13,14
 729 517 729 517 645 607 c 128,-1,15
 561 697 561 697 426 697 c 128,-1,16
 291 697 291 697 207 607 c 128,-1,17
 123 517 123 517 123 373 c 0,18,19
 123 243 123 243 189 154 c 128,-1,20
 255 65 255 65 365 42 c 1,21,-1
 365 0 l 1,22,-1
 58 0 l 1,23,-1
 58 42 l 1,24,-1
 244 42 l 1,25,-1
 244 45 l 1,26,27
 73 148 73 148 73 380 c 0,28,29
 73 539 73 539 171 639.5 c 128,-1,0
 269 740 269 740 426 740 c 128,-1,1
EndSplineSet
EndChar

StartChar: Iotadieresis
Encoding: 938 938 618
Width: 298
Flags: W
LayerCount: 2
Fore
SplineSet
226 810 m 1,0,-1
 226 933 l 1,1,-1
 272 933 l 1,2,-1
 272 810 l 1,3,-1
 226 810 l 1,0,-1
26 810 m 1,4,-1
 26 933 l 1,5,-1
 72 933 l 1,6,-1
 72 810 l 1,7,-1
 26 810 l 1,4,-1
122 0 m 1,8,-1
 122 730 l 1,9,-1
 176 730 l 1,10,-1
 176 0 l 1,11,-1
 122 0 l 1,8,-1
EndSplineSet
EndChar

StartChar: Upsilondieresis
Encoding: 939 939 619
Width: 656
Flags: W
LayerCount: 2
Fore
SplineSet
405 810 m 1,0,-1
 405 933 l 1,1,-1
 451 933 l 1,2,-1
 451 810 l 1,3,-1
 405 810 l 1,0,-1
205 810 m 1,4,-1
 205 933 l 1,5,-1
 251 933 l 1,6,-1
 251 810 l 1,7,-1
 205 810 l 1,4,-1
92 730 m 1,8,-1
 328 362 l 1,9,-1
 330 362 l 1,10,-1
 565 730 l 1,11,-1
 623 730 l 1,12,-1
 354 318 l 1,13,-1
 354 0 l 1,14,-1
 302 0 l 1,15,-1
 302 318 l 1,16,-1
 33 730 l 1,17,-1
 92 730 l 1,8,-1
EndSplineSet
EndChar

StartChar: alphatonos
Encoding: 940 940 620
Width: 622
Flags: W
LayerCount: 2
Fore
SplineSet
301 590 m 1,0,-1
 251 590 l 1,1,-1
 367 753 l 1,2,-1
 431 753 l 1,3,-1
 301 590 l 1,0,-1
476 246 m 1,4,5
 520 137 520 137 569 0 c 1,6,-1
 521 0 l 1,7,8
 486 103 486 103 452 191 c 1,9,10
 359 -10 359 -10 233 -10 c 0,11,12
 151 -10 151 -10 99.5 61.5 c 128,-1,13
 48 133 48 133 48 260 c 128,-1,14
 48 387 48 387 99.5 458.5 c 128,-1,15
 151 530 151 530 233 530 c 0,16,17
 297 530 297 530 343.5 485.5 c 128,-1,18
 390 441 390 441 452 302 c 1,19,20
 486 401 486 401 513 520 c 1,21,-1
 559 520 l 1,22,23
 521 361 521 361 476 246 c 1,4,5
431 245 m 1,24,25
 389 347 389 347 354.5 402 c 128,-1,26
 320 457 320 457 294 473.5 c 128,-1,27
 268 490 268 490 233 490 c 0,28,29
 170 490 170 490 132.5 429 c 128,-1,30
 95 368 95 368 95 260 c 0,31,32
 95 153 95 153 134 91.5 c 128,-1,33
 173 30 173 30 236 30 c 0,34,35
 346 30 346 30 431 245 c 1,24,25
EndSplineSet
EndChar

StartChar: epsilontonos
Encoding: 941 941 621
Width: 515
Flags: W
LayerCount: 2
Fore
SplineSet
194 281 m 1,0,-1
 194 283 l 1,1,2
 126 297 126 297 91.5 330 c 128,-1,3
 57 363 57 363 57 403 c 0,4,5
 57 461 57 461 116 495.5 c 128,-1,6
 175 530 175 530 279 530 c 0,7,8
 370 530 370 530 462 493 c 1,9,-1
 448 457 l 1,10,11
 368 491 368 491 283 491 c 128,-1,12
 198 491 198 491 152 466 c 128,-1,13
 106 441 106 441 106 398 c 0,14,15
 106 352 106 352 163.5 326.5 c 128,-1,16
 221 301 221 301 329 301 c 2,17,-1
 376 301 l 1,18,-1
 376 262 l 1,19,-1
 329 262 l 2,20,21
 97 262 97 262 97 144 c 0,22,23
 97 89 97 89 144 59.5 c 128,-1,24
 191 30 191 30 281 30 c 0,25,26
 364 30 364 30 454 64 c 1,27,-1
 467 26 l 1,28,29
 376 -10 376 -10 279 -10 c 0,30,31
 168 -10 168 -10 108 30 c 128,-1,32
 48 70 48 70 48 140 c 0,33,34
 48 187 48 187 82 226.5 c 128,-1,35
 116 266 116 266 194 281 c 1,0,-1
245 590 m 1,36,-1
 195 590 l 1,37,-1
 311 753 l 1,38,-1
 375 753 l 1,39,-1
 245 590 l 1,36,-1
EndSplineSet
EndChar

StartChar: etatonos
Encoding: 942 942 622
Width: 558
Flags: W
LayerCount: 2
Fore
SplineSet
296 489 m 0,0,1
 230 489 230 489 177.5 426 c 128,-1,2
 125 363 125 363 125 277 c 2,3,-1
 125 0 l 1,4,-1
 78 0 l 1,5,-1
 78 520 l 1,6,-1
 123 520 l 1,7,-1
 124 410 l 1,8,-1
 126 410 l 1,9,10
 153 465 153 465 201.5 497.5 c 128,-1,11
 250 530 250 530 308 530 c 0,12,13
 399 530 399 530 442 477 c 128,-1,14
 485 424 485 424 485 307 c 2,15,-1
 485 -220 l 1,16,-1
 439 -220 l 1,17,-1
 439 303 l 2,18,19
 439 405 439 405 406.5 447 c 128,-1,20
 374 489 374 489 296 489 c 0,0,1
256 590 m 1,21,-1
 206 590 l 1,22,-1
 323 753 l 1,23,-1
 386 753 l 1,24,-1
 256 590 l 1,21,-1
EndSplineSet
EndChar

